<svg width="1080" height="566" viewBox="0 0 1080 566" fill="none" xmlns="http://www.w3.org/2000/svg">
<rect width="1080" height="566" fill="#94C7A2"/>
<path d="M639.985 237.585C642.36 237.585 643.405 238.25 643.405 239.675C643.405 240.245 643.215 240.91 642.93 241.765C639.225 252.405 631.34 263.52 621.46 272.64C611.295 281.95 599.23 288.79 587.735 293.16C585.93 293.825 584.885 295.535 584.885 297.245C584.885 297.815 584.98 298.385 585.17 298.86C585.74 300.475 587.07 301.235 588.685 301.235C589.445 301.235 590.205 301.045 590.965 300.76C605.69 295.25 620.605 286.035 631.15 274.445C641.695 282.71 649.105 289.835 656.23 298.385C657.18 299.43 658.415 299.905 659.65 299.905C660.885 299.905 662.12 299.43 662.975 298.48C663.735 297.625 664.21 296.58 664.21 295.44C664.21 294.3 663.735 293.16 662.88 292.115C654.9 282.9 647.11 276.725 636.47 268.46C643.12 260.29 648.44 252.215 651.575 243.76C652.24 241.765 652.62 239.865 652.62 238.25C652.62 236.35 652.145 234.83 651.385 233.5C649.675 231.03 647.015 229.7 642.93 229.7L594.575 230.175C592.39 230.175 591.06 231.695 591.06 233.975C591.06 236.54 592.295 238.155 594.575 238.155L639.985 237.585ZM717.98 274.255L723.87 301.615C724.345 303.61 725.675 304.56 727.385 304.56C727.86 304.56 728.335 304.465 728.905 304.37C730.9 303.895 731.945 302.85 731.945 301.045C731.945 300.76 731.945 300.38 731.85 300L725.96 272.925L755.695 268.175C757.5 267.89 758.545 266.465 758.545 264.66C758.545 264.375 758.545 264.09 758.45 263.805C758.165 261.905 756.835 260.575 755.03 260.575C754.84 260.575 754.555 260.575 754.365 260.67L724.345 265.515L720.26 246.8L748.76 242.24C750.375 241.955 751.325 240.72 751.325 239.105C751.325 238.725 751.325 238.44 751.23 238.06C750.755 236.255 749.615 234.83 747.905 234.83C747.715 234.83 747.62 234.83 747.43 234.83L718.645 239.485L715.7 226.09C715.225 224 714.085 223.145 712.375 223.145C711.995 223.145 711.615 223.145 711.14 223.24C709.05 223.715 707.815 224.855 707.815 226.66C707.815 226.945 707.815 227.325 707.91 227.61L710.76 240.72L683.305 245.09C681.69 245.375 680.645 246.895 680.645 248.605C680.645 248.89 680.645 249.175 680.74 249.46C681.025 251.36 682.355 252.5 684.065 252.5C684.255 252.5 684.445 252.5 684.635 252.5L712.28 248.035L716.365 266.845L683.4 272.165C681.785 272.45 680.74 273.97 680.74 275.775C680.74 276.06 680.74 276.345 680.835 276.63C681.12 278.435 682.64 279.575 684.35 279.575C684.54 279.575 684.73 279.575 684.92 279.575L717.98 274.255ZM810.51 279.29C810.51 281.475 812.315 282.52 814.31 282.52C816.21 282.52 818.015 281.475 818.11 279.29L819.44 230.65C819.535 227.99 817.445 226.28 814.405 226.28C811.27 226.28 809.18 227.99 809.18 230.65L810.51 279.29ZM814.31 288.315C810.605 288.315 807.755 290.88 807.755 294.87C807.755 298.86 810.605 301.425 814.31 301.425C817.825 301.425 820.865 298.86 820.865 294.87C820.865 290.88 817.825 288.315 814.31 288.315Z" fill="#383838"/>
<rect x="48" y="41" width="985" height="484" rx="25" stroke="#F2FD79" stroke-width="8"/>
<rect x="503" y="343" width="391" height="120" rx="32" fill="white"/>
<path d="M897.172 335.156C898.733 334.58 900.274 336.051 899.771 337.637L891.841 362.619C891.393 364.029 889.623 364.482 888.553 363.461L871.894 347.552C870.824 346.531 871.195 344.742 872.582 344.23L897.172 335.156Z" fill="white"/>
<path d="M302.462 185.303C288.096 170.931 278.262 145.835 273.382 123C268.495 145.839 258.672 170.941 244.301 185.313C229.934 199.674 204.83 209.508 182 214.398C204.839 219.277 229.939 229.105 244.305 243.477C258.672 257.843 268.505 282.945 273.392 305.78C278.272 282.941 288.103 257.839 302.467 243.467C316.833 229.101 341.937 219.272 364.767 214.382C341.933 209.502 316.834 199.67 302.462 185.303Z" fill="#F2FD79"/>
<path d="M395.78 300.373C387.204 291.794 381.32 276.793 378.405 263.152C375.484 276.793 369.62 291.793 361.035 300.378C352.45 308.953 337.452 314.832 323.814 317.753C337.457 320.673 352.45 326.542 361.035 335.127C369.62 343.707 375.495 358.708 378.415 372.348C381.329 358.702 387.204 343.707 395.784 335.122C404.364 326.542 419.365 320.667 433 317.743C419.365 314.828 404.365 308.953 395.78 300.373Z" fill="#F2FD79"/>
<path d="M243.596 329.726C241.144 341.177 236.22 353.774 229.014 360.98C221.81 368.18 209.217 373.114 197.768 375.566C209.217 378.023 221.81 382.942 229.014 390.152C236.22 397.357 241.154 409.944 243.606 421.401C246.055 409.944 250.981 397.357 258.19 390.147C265.39 382.942 277.984 378.013 289.431 375.556C277.985 373.109 265.39 368.18 258.185 360.975C250.981 353.775 246.046 341.177 243.596 329.726Z" fill="#F2FD79"/>
</svg>
