<svg width="1080" height="566" viewBox="0 0 1080 566" fill="none" xmlns="http://www.w3.org/2000/svg">
<rect width="1080" height="566" fill="#FFFCBE"/>
<path d="M426.006 241.904L380.008 281.974L379.818 286.008C379.675 288.282 378.92 291.504 377.637 294.872C376.929 296.627 376.118 298.381 375.266 300.136L323.104 255.134C321.067 253.379 318.362 252.573 315.709 252.906C315.232 252.999 276.967 257.792 238.841 273.866C235.044 275.477 232.201 275.954 230.303 275.954C228.742 275.954 227.839 275.667 227.126 275.338C226.084 274.815 225.371 274.153 224.662 272.778C223.949 271.449 223.477 269.503 223.477 267.415C223.477 264.48 224.519 261.487 225.704 260.02C227.177 258.122 228.979 255.514 231.442 252.147C235.142 247.169 240.166 240.718 246.145 234.411C252.118 228.104 259.042 222.038 266.298 217.768C276.11 211.984 284.506 210.563 292.424 210.511C297.31 210.511 302.001 211.132 306.604 211.795C311.156 212.457 315.565 213.314 320.353 213.314C323.391 213.314 326.614 212.981 329.981 211.605H330.027C335.246 209.378 340.363 206.103 345.536 202.404C353.219 196.81 360.804 190.22 366.588 184.955C367.727 183.96 368.769 182.964 369.718 182.061L356.775 168.265C353.927 170.919 350.227 174.239 346.245 177.606C342.169 181.116 337.756 184.673 333.583 187.613C329.411 190.6 325.428 192.971 322.724 194.06C322.581 194.157 321.826 194.347 320.353 194.347C318.079 194.393 314.19 193.777 309.401 193.063C304.613 192.355 298.87 191.544 292.424 191.544C286.831 191.498 280.616 192.211 274.072 194.013C267.575 192.211 261.365 191.544 255.72 191.544C249.27 191.544 243.582 192.354 238.79 193.063C234.002 193.777 230.112 194.393 227.792 194.347C226.37 194.347 225.611 194.157 225.467 194.06C222.573 192.92 218.257 190.267 213.802 187.044C207.022 182.158 199.812 175.897 194.362 170.919C192.889 169.59 191.56 168.359 190.374 167.27L177.385 181.066C180.182 183.677 183.831 187.044 187.911 190.6C192.463 194.485 197.539 198.658 202.66 202.404C207.828 206.104 212.95 209.379 218.164 211.605C221.531 212.981 224.805 213.314 227.791 213.314C232.579 213.314 237.039 212.508 241.591 211.795C241.92 211.749 242.207 211.749 242.49 211.697C236.182 217.106 230.681 222.988 226.036 228.438C222.1 233.036 218.826 237.352 216.173 240.909C213.611 244.419 211.62 247.262 210.717 248.401C206.401 254 204.554 260.733 204.507 267.415C204.554 273.676 206.216 280.219 210.527 285.721C212.662 288.426 215.51 290.842 218.923 292.454C222.336 294.065 226.272 294.923 230.301 294.923C235.377 294.923 240.642 293.686 246.235 291.316C263.782 283.92 281.897 278.942 295.503 275.905C302.334 274.39 308.025 273.344 312.007 272.681C312.767 272.537 313.383 272.445 313.998 272.348L373.607 323.704V323.755H373.653C373.653 323.944 373.556 324.463 373.13 325.269C372.421 326.598 370.856 328.353 368.865 329.585C366.873 330.816 364.549 331.53 362.367 331.53C361.562 331.53 360.802 331.674 360.043 331.812C358.714 331.53 357.339 331.15 356.014 330.58C351.888 328.969 348.044 326.408 345.345 324.18C343.969 323.088 342.876 322.092 342.168 321.383L341.362 320.624L341.172 320.434V320.388C339.746 318.869 337.806 318.109 335.908 318.109C334.199 318.109 332.494 318.726 331.119 319.958C328.225 322.616 328.035 327.121 330.693 330.011C330.929 330.299 334.486 334.183 340.362 338.218C343.257 340.208 346.814 342.246 350.847 343.857C351.745 344.191 352.741 344.57 353.736 344.853C354.024 345.469 354.352 346.089 354.778 346.654H354.731L354.778 346.705C354.921 346.988 355.208 348.127 355.158 349.502C355.209 352.109 354.26 355.522 352.884 357.42C352.217 358.416 351.555 358.986 350.892 359.365C350.18 359.745 349.517 359.982 348.235 360.028H347.762C347.526 359.981 347.239 360.028 347.003 360.074C346.956 360.074 346.956 360.074 346.956 360.074C340.793 360.074 335.055 357.42 330.832 354.526C328.697 353.104 326.993 351.637 325.854 350.59C325.284 350.072 324.858 349.645 324.622 349.358L324.335 349.076L324.289 349.025V348.978C322.913 347.367 320.922 346.561 318.931 346.561C317.273 346.561 315.61 347.131 314.282 348.317C311.295 350.877 310.966 355.383 313.573 358.324C313.809 358.653 317.13 362.399 322.821 366.289C326.567 368.849 331.499 371.503 337.329 373.022C337.236 373.166 337.186 373.355 337.139 373.495C336.38 375.204 335.338 376.912 332.397 378.617C330.452 379.756 329.031 380.326 328.035 380.659C327.04 380.942 326.516 380.988 325.808 380.988C324.858 380.988 323.483 380.798 321.209 380.326C320.778 380.228 320.353 380.228 319.927 380.182C319.783 380.135 319.644 380.089 319.454 379.992C317.129 378.853 314.235 376.861 312.1 375.157C311.058 374.351 310.16 373.546 309.539 373.022L308.831 372.361L308.687 372.217H308.641C305.797 369.466 301.292 369.61 298.587 372.407C295.882 375.25 295.98 379.755 298.823 382.46C298.966 382.599 301.953 385.493 306.172 388.48C306.885 389.05 307.737 389.573 308.543 390.091C307.408 391.944 306.172 393.222 304.987 394.027C303.092 395.356 301.055 395.973 298.397 395.973C296.026 395.973 293.229 395.403 290.432 394.218C289.482 393.838 288.579 393.268 287.681 392.796C288.199 390.759 288.487 388.717 288.487 386.632C288.487 382.363 287.348 378 284.93 374.111C280.85 367.568 274.025 363.683 266.86 363.066C266.86 362.825 266.911 362.543 266.911 362.307C266.911 357.611 265.628 352.823 263.022 348.553C258.136 340.681 249.647 336.272 241.021 336.272H240.877C240.497 336.272 240.163 336.319 239.835 336.319C239.409 332.618 238.223 328.97 236.134 325.649C232.105 319.152 225.655 315.077 218.685 313.795C218.634 309.196 217.357 304.5 214.795 300.328C209.864 292.409 201.329 288.047 192.651 288.047C187.955 288.047 183.167 289.325 178.898 291.983L169.793 297.624C169.557 297.151 169.275 296.628 169.085 296.156C167.469 292.364 166.473 288.566 166.38 286.01L166.19 281.976L120.192 241.905L107.2 255.704L147.938 291.222C148.646 295.491 149.975 299.567 151.541 303.359C152.536 305.828 153.676 308.152 154.81 310.333C152.346 314.408 150.971 319.104 150.971 323.8C150.971 328.496 152.249 333.284 154.907 337.549C158.936 344 165.387 348.08 172.357 349.358C172.403 353.957 173.686 358.652 176.246 362.825C181.179 370.744 189.713 375.157 198.391 375.157C198.725 375.157 199.054 375.106 199.387 375.06C199.859 378.76 201.045 382.409 203.133 385.776C208.065 393.699 216.6 398.061 225.278 398.061C226.13 398.061 226.987 397.964 227.839 397.872C228.265 401.187 229.358 404.508 231.205 407.494C235.711 414.705 243.486 418.733 251.359 418.687C255.628 418.687 259.991 417.548 263.876 415.13L275.731 407.781C278.056 409.301 280.473 410.624 283.085 411.671C287.827 413.709 293.042 414.94 298.399 414.94C304.28 414.986 310.542 413.375 315.899 409.582C319.358 407.165 322.299 403.845 324.717 399.908C325.096 399.908 325.429 399.955 325.81 399.955C328.273 399.955 330.931 399.626 333.631 398.77C336.289 397.964 338.942 396.732 341.791 395.121C348.57 391.277 352.65 385.636 354.641 380.848C355.067 379.755 355.401 378.759 355.683 377.81C357.294 377.292 358.907 376.671 360.333 375.819C365.547 372.832 368.96 368.234 371.095 363.631C373.183 358.986 374.128 354.147 374.128 349.502C374.128 349.025 374.082 348.599 374.035 348.126C377.495 346.751 380.579 344.76 383.186 342.482C385.89 340.111 388.164 337.36 389.826 334.234C391.484 331.15 392.623 327.547 392.623 323.658C392.623 321.097 392.1 318.444 390.966 315.929C390.633 315.123 390.109 314.41 389.591 313.65C391.628 310.048 393.666 306.019 395.328 301.656C396.606 298.335 397.648 294.872 398.269 291.269L439 255.704L426.006 241.904ZM181.225 329.538L180.798 329.82C179.613 330.534 178.33 330.867 177.053 330.867C174.681 330.867 172.357 329.727 171.028 327.546C170.273 326.36 169.94 325.078 169.94 323.799C169.986 321.428 171.125 319.15 173.306 317.774L188.907 308.054C190.139 307.346 191.37 307.012 192.654 307.012C195.071 307.012 197.349 308.197 198.673 310.333L206.736 305.35L198.673 310.379C199.433 311.565 199.767 312.797 199.767 314.079C199.72 315.737 199.151 317.349 198.058 318.632L184.638 326.977C183.405 327.736 182.317 328.588 181.225 329.538ZM202.137 355.095C200.951 355.855 199.669 356.188 198.391 356.188C196.02 356.188 193.695 355.002 192.366 352.821C191.611 351.636 191.278 350.399 191.278 349.121C191.324 347.463 191.893 345.847 192.986 344.568L206.402 336.224C207.638 335.465 208.727 334.562 209.773 333.663L210.246 333.376C211.477 332.616 212.709 332.288 213.992 332.288C216.409 332.334 218.688 333.473 220.012 335.654C220.771 336.84 221.105 338.071 221.105 339.354C221.058 341.771 219.92 344.045 217.738 345.421L202.137 355.095ZM244.625 368.326L228.977 378.046C227.791 378.759 226.555 379.092 225.277 379.092C222.86 379.092 220.581 377.907 219.257 375.772C218.498 374.54 218.164 373.304 218.164 372.026C218.164 369.609 219.35 367.33 221.531 366.001L237.132 356.281C238.318 355.572 239.596 355.239 240.879 355.239C243.249 355.239 245.523 356.378 246.899 358.56C247.612 359.746 247.946 361.024 247.946 362.307C247.946 364.677 246.806 366.951 244.625 368.326ZM267.293 390.66L253.873 399.004C253.067 399.528 252.262 399.717 251.359 399.717C249.793 399.717 248.228 398.958 247.33 397.49C246.853 396.684 246.617 395.878 246.617 394.975C246.617 393.364 247.423 391.845 248.844 390.993V390.947L262.265 382.597C263.122 382.124 263.928 381.888 264.779 381.888C266.39 381.935 267.909 382.694 268.808 384.162C269.331 384.968 269.521 385.774 269.521 386.63C269.52 388.243 268.761 389.762 267.293 390.66Z" fill="#FFD961"/>
<path d="M625.985 237.585C628.36 237.585 629.405 238.25 629.405 239.675C629.405 240.245 629.215 240.91 628.93 241.765C625.225 252.405 617.34 263.52 607.46 272.64C597.295 281.95 585.23 288.79 573.735 293.16C571.93 293.825 570.885 295.535 570.885 297.245C570.885 297.815 570.98 298.385 571.17 298.86C571.74 300.475 573.07 301.235 574.685 301.235C575.445 301.235 576.205 301.045 576.965 300.76C591.69 295.25 606.605 286.035 617.15 274.445C627.695 282.71 635.105 289.835 642.23 298.385C643.18 299.43 644.415 299.905 645.65 299.905C646.885 299.905 648.12 299.43 648.975 298.48C649.735 297.625 650.21 296.58 650.21 295.44C650.21 294.3 649.735 293.16 648.88 292.115C640.9 282.9 633.11 276.725 622.47 268.46C629.12 260.29 634.44 252.215 637.575 243.76C638.24 241.765 638.62 239.865 638.62 238.25C638.62 236.35 638.145 234.83 637.385 233.5C635.675 231.03 633.015 229.7 628.93 229.7L580.575 230.175C578.39 230.175 577.06 231.695 577.06 233.975C577.06 236.54 578.295 238.155 580.575 238.155L625.985 237.585ZM703.98 274.255L709.87 301.615C710.345 303.61 711.675 304.56 713.385 304.56C713.86 304.56 714.335 304.465 714.905 304.37C716.9 303.895 717.945 302.85 717.945 301.045C717.945 300.76 717.945 300.38 717.85 300L711.96 272.925L741.695 268.175C743.5 267.89 744.545 266.465 744.545 264.66C744.545 264.375 744.545 264.09 744.45 263.805C744.165 261.905 742.835 260.575 741.03 260.575C740.84 260.575 740.555 260.575 740.365 260.67L710.345 265.515L706.26 246.8L734.76 242.24C736.375 241.955 737.325 240.72 737.325 239.105C737.325 238.725 737.325 238.44 737.23 238.06C736.755 236.255 735.615 234.83 733.905 234.83C733.715 234.83 733.62 234.83 733.43 234.83L704.645 239.485L701.7 226.09C701.225 224 700.085 223.145 698.375 223.145C697.995 223.145 697.615 223.145 697.14 223.24C695.05 223.715 693.815 224.855 693.815 226.66C693.815 226.945 693.815 227.325 693.91 227.61L696.76 240.72L669.305 245.09C667.69 245.375 666.645 246.895 666.645 248.605C666.645 248.89 666.645 249.175 666.74 249.46C667.025 251.36 668.355 252.5 670.065 252.5C670.255 252.5 670.445 252.5 670.635 252.5L698.28 248.035L702.365 266.845L669.4 272.165C667.785 272.45 666.74 273.97 666.74 275.775C666.74 276.06 666.74 276.345 666.835 276.63C667.12 278.435 668.64 279.575 670.35 279.575C670.54 279.575 670.73 279.575 670.92 279.575L703.98 274.255ZM796.51 279.29C796.51 281.475 798.315 282.52 800.31 282.52C802.21 282.52 804.015 281.475 804.11 279.29L805.44 230.65C805.535 227.99 803.445 226.28 800.405 226.28C797.27 226.28 795.18 227.99 795.18 230.65L796.51 279.29ZM800.31 288.315C796.605 288.315 793.755 290.88 793.755 294.87C793.755 298.86 796.605 301.425 800.31 301.425C803.825 301.425 806.865 298.86 806.865 294.87C806.865 290.88 803.825 288.315 800.31 288.315Z" fill="#383838"/>
<rect x="48" y="41" width="985" height="484" rx="25" stroke="#FFD961" stroke-width="8"/>
<rect x="503" y="343" width="391" height="120" rx="32" fill="white"/>
<path d="M897.172 335.156C898.733 334.58 900.274 336.051 899.771 337.637L891.841 362.619C891.393 364.029 889.623 364.482 888.553 363.461L871.894 347.552C870.824 346.531 871.195 344.742 872.582 344.23L897.172 335.156Z" fill="white"/>
</svg>
