<svg width="66" height="57" viewBox="0 0 66 57" fill="none" xmlns="http://www.w3.org/2000/svg">
<path d="M64.6545 41.0226L59.8401 41.5311C59.139 41.6066 58.2174 41.2094 57.7905 40.6492L39.5936 16.784C39.1666 16.224 38.5311 16.2636 38.1815 16.8754L22.241 44.7247C21.8914 45.3345 22.1774 45.9045 22.8765 45.988L52.6722 49.5927C53.3713 49.6761 54.1796 50.27 54.4697 50.9115L56.4677 55.3227C57.0338 56.4786 58.3744 56.2323 58.6127 55.1697C58.6127 55.1697 59.4012 51.8867 61.0716 48.9691C62.7399 46.0534 65.6098 42.9472 65.6098 42.9472C66.4022 42.2043 65.9394 40.9232 64.6545 41.0226Z" fill="#FF8F5F"/>
<path d="M33.671 17.0583L23.5638 0.734375L21.3195 2.12472L31.4288 18.4466L33.671 17.0583Z" fill="#FF8F5F"/>
<path d="M0.918091 40.2938L20.1138 40.7447L20.1755 38.1091L0.981646 37.6562L0.918091 40.2938Z" fill="#FF8F5F"/>
</svg>
