<svg width="460" height="402" viewBox="0 0 460 402" fill="none" xmlns="http://www.w3.org/2000/svg">
<rect x="4" y="4" width="452" height="394" rx="33" fill="white" stroke="#8CE3FF" stroke-width="8"/>
<path d="M303.932 116.751C286.508 99.3219 258.257 99.3219 240.833 116.751C234.795 122.783 230.853 130.12 228.995 137.854C227.147 130.12 223.205 122.783 217.168 116.751C199.744 99.3219 171.492 99.3219 154.068 116.751C136.644 134.175 136.644 162.427 154.068 179.845L228.995 254.777L303.932 179.845C321.356 162.427 321.356 134.175 303.932 116.751Z" fill="#FFA5BD"/>
<path d="M32.9476 54.834H30.6596C30.1536 54.834 29.9116 55.164 29.9116 55.626C29.9116 56.11 30.1756 56.418 30.6596 56.418H32.7056L32.1116 60.312H29.8236C29.2956 60.312 29.0536 60.642 29.0536 61.126C29.0536 61.588 29.3176 61.896 29.8236 61.896H31.8696L31.1656 66.472C31.1436 66.538 31.1436 66.582 31.1436 66.648C31.1436 67.088 31.4516 67.264 31.8476 67.286C31.8916 67.286 31.9356 67.286 32.0016 67.286C32.4416 67.286 32.7276 67.088 32.7936 66.604L33.5416 61.896H36.3356L35.6096 66.472C35.5876 66.538 35.5876 66.604 35.5876 66.648C35.5876 67.088 35.8736 67.264 36.3136 67.286C36.3576 67.286 36.4016 67.286 36.4676 67.286C36.9076 67.286 37.1496 67.088 37.2376 66.604L37.9856 61.896H40.2296C40.7136 61.896 40.9556 61.588 40.9556 61.126C40.9556 60.62 40.7356 60.312 40.2296 60.312H38.2276L38.8216 56.418H41.0656C41.5276 56.418 41.8136 56.11 41.8136 55.626C41.8136 55.142 41.5716 54.834 41.0656 54.834H39.0856L39.7016 50.676C39.7236 50.61 39.7236 50.566 39.7236 50.5C39.7236 50.082 39.4376 49.906 39.0196 49.884C38.9756 49.884 38.9316 49.884 38.8876 49.884C38.4476 49.884 38.1396 50.082 38.0516 50.566L37.3916 54.834H34.6196L35.2796 50.676C35.3016 50.61 35.3016 50.566 35.3016 50.5C35.3016 50.082 34.9936 49.906 34.5756 49.884C34.5316 49.884 34.4876 49.884 34.4436 49.884C34.0036 49.884 33.6956 50.082 33.6296 50.566L32.9476 54.834ZM33.7836 60.312L34.3776 56.418H37.1716L36.5776 60.312H33.7836ZM52.8698 59.982C53.0898 60.466 53.2878 60.95 53.4198 61.478C50.7138 63.678 47.2158 65.328 44.0698 66.142C43.7178 66.274 43.4758 66.582 43.4758 66.956C43.4758 67.066 43.4978 67.176 43.5198 67.286C43.6518 67.66 43.9598 67.836 44.2678 67.836C44.3778 67.836 44.4658 67.814 44.5538 67.792C47.8318 66.78 51.1318 65.152 53.7498 63.084C53.8158 63.656 53.8598 64.25 53.8598 64.844C53.8598 66.956 53.5298 67.154 52.2538 67.154C51.7258 67.154 51.0658 67.066 50.5818 66.934C50.5158 66.912 50.4498 66.912 50.3838 66.912C50.0318 66.912 49.7238 67.132 49.6358 67.528C49.6138 67.616 49.6138 67.704 49.6138 67.77C49.6138 68.166 49.8998 68.43 50.2518 68.518C50.8898 68.672 51.6158 68.738 52.5178 68.738C54.4978 68.738 55.4438 67.99 55.4438 64.932C55.4438 63.15 55.1578 61.434 54.5638 59.982C54.0578 58.772 53.3098 57.496 52.2758 56.462C52.8918 56.066 53.4858 55.648 54.0578 55.208H54.7398C55.7738 60.686 58.1058 64.844 62.0218 67.264C62.1978 67.374 62.3958 67.44 62.5718 67.44C62.8578 67.44 63.1438 67.308 63.3418 67.044C63.4518 66.89 63.4958 66.714 63.4958 66.538C63.4958 66.208 63.3198 65.922 63.0338 65.746C60.8778 64.448 59.2278 62.754 58.0398 60.532C59.4918 59.542 60.7238 58.486 61.6038 57.54C61.7358 57.408 61.8018 57.232 61.8018 57.078C61.8018 56.858 61.6918 56.616 61.4718 56.44C61.2738 56.264 61.0538 56.198 60.8558 56.198C60.6358 56.198 60.4598 56.264 60.3278 56.418C59.5358 57.386 58.4798 58.31 57.3798 59.124C56.8738 57.87 56.5218 56.55 56.2798 55.208H60.1738C60.5258 55.208 60.7238 54.922 60.7238 54.526C60.7238 54.108 60.5258 53.844 60.1738 53.844H46.8198C46.4678 53.844 46.2698 54.108 46.2698 54.526C46.2698 54.922 46.4678 55.208 46.8198 55.208H51.6818C49.8558 56.44 47.3038 57.364 44.8618 57.848C44.5098 57.98 44.2678 58.2 44.2678 58.552C44.2678 58.64 44.2678 58.728 44.3118 58.816C44.3998 59.19 44.6418 59.41 44.9938 59.41C45.0598 59.41 45.1478 59.41 45.2358 59.388C47.2158 58.904 49.1958 58.156 51.0218 57.188C51.4398 57.628 51.7918 58.112 52.1218 58.596C49.8118 60.158 46.7978 61.346 44.2898 61.918C43.9598 62.05 43.7838 62.336 43.7838 62.688C43.7838 62.776 43.7838 62.864 43.8058 62.952C43.9378 63.348 44.2238 63.546 44.5758 63.546C44.6418 63.546 44.7298 63.546 44.7958 63.524C47.6558 62.732 50.3398 61.566 52.8258 59.872L52.8698 59.982ZM54.1898 50.368V48.938C54.1898 48.52 53.9478 48.322 53.3758 48.322C52.8038 48.322 52.5178 48.52 52.5178 48.938V50.368H45.8518C44.5758 50.368 43.9598 50.852 43.9598 52.084V54.196C43.9598 54.636 44.2678 54.856 44.7958 54.856C45.3238 54.856 45.6758 54.636 45.6758 54.196V52.392C45.6758 51.974 45.8958 51.842 46.3798 51.842H60.6138C61.0978 51.842 61.3178 51.974 61.3178 52.392V54.196C61.3178 54.636 61.6478 54.856 62.1758 54.856C62.7038 54.856 63.0338 54.636 63.0338 54.196V52.084C63.0338 50.852 62.4178 50.368 61.1418 50.368H54.1898ZM78.3458 61.522C77.6198 64.228 76.1018 65.68 73.5498 66.978C73.2638 67.132 73.1098 67.374 73.1098 67.66C73.1098 67.792 73.1538 67.946 73.2418 68.1C73.3738 68.364 73.6158 68.496 73.9018 68.496C74.0778 68.496 74.2758 68.452 74.4518 68.342C77.0038 66.956 78.5658 65.262 79.4678 62.908C80.3918 65.02 81.9318 67.022 84.4398 68.32C84.5938 68.408 84.7698 68.452 84.9238 68.452C85.1878 68.452 85.4298 68.32 85.6278 67.99C85.7158 67.836 85.7598 67.682 85.7598 67.528C85.7598 67.198 85.5838 66.912 85.2318 66.758C82.9658 65.702 81.3378 63.81 80.3918 61.522H84.8358C85.2318 61.522 85.4518 61.214 85.4518 60.752C85.4518 60.312 85.2318 60.004 84.8358 60.004H80.1938C80.3258 59.014 80.3698 58.046 80.4138 57.056H83.9998C84.3738 57.056 84.5718 56.726 84.5718 56.286C84.5718 55.868 84.3738 55.56 83.9998 55.56H77.9278C78.1478 55.142 78.3238 54.724 78.4778 54.306C78.5218 54.218 78.5438 54.108 78.5438 54.02C78.5438 53.734 78.3238 53.514 77.9718 53.426C77.8618 53.404 77.7298 53.382 77.6198 53.382C77.3558 53.382 77.1358 53.492 77.0258 53.8C76.5418 55.208 75.5518 56.902 74.5618 57.87C74.3858 58.046 74.2758 58.266 74.2758 58.464C74.2758 58.64 74.3418 58.794 74.4958 58.948C74.6718 59.124 74.8698 59.212 75.0678 59.212C75.2878 59.212 75.5078 59.102 75.6618 58.926C76.1678 58.398 76.6518 57.76 77.0918 57.056H78.8518C78.8298 58.046 78.8078 59.036 78.6538 60.004H74.3638C73.9678 60.004 73.7478 60.312 73.7478 60.752C73.7478 61.214 73.9678 61.522 74.3638 61.522H78.3458ZM84.8358 52.766C85.2318 52.766 85.4518 52.436 85.4518 51.996C85.4518 51.534 85.2318 51.226 84.8358 51.226H77.0698C77.3558 50.588 77.6198 49.95 77.8398 49.312C77.8618 49.224 77.8838 49.158 77.8838 49.092C77.8838 48.806 77.6858 48.564 77.2898 48.476C77.1578 48.432 77.0258 48.41 76.9158 48.41C76.6298 48.41 76.3878 48.542 76.2778 48.828C75.5958 50.984 74.4518 53.096 72.9558 54.658C72.8238 54.79 72.7578 54.966 72.7578 55.164C72.7578 55.34 72.8238 55.538 72.9778 55.692C73.1538 55.846 73.3738 55.934 73.5718 55.934C73.7698 55.934 73.9678 55.868 74.1218 55.692C74.8918 54.834 75.6178 53.844 76.2338 52.766H84.8358ZM70.5138 51.886V49.114C70.5138 48.674 70.2278 48.454 69.7218 48.454C69.2158 48.454 68.8858 48.674 68.8858 49.114V51.886H65.8278C65.4098 51.886 65.1898 52.194 65.1898 52.656C65.1898 53.118 65.4098 53.404 65.8278 53.404H67.7418C67.7418 60.818 67.1698 64.096 65.2338 67.11C65.1238 67.264 65.0798 67.462 65.0798 67.638C65.0798 67.902 65.2118 68.166 65.4318 68.32C65.5858 68.408 65.7178 68.452 65.8718 68.452C66.1578 68.452 66.4438 68.276 66.6198 67.968C68.1818 65.394 68.9518 62.644 69.2158 57.804H70.8218C71.2398 57.804 71.4598 57.936 71.4598 58.398C71.4378 61.984 71.1738 64.404 70.7998 65.988C70.6458 66.67 70.3598 66.846 69.9418 66.846C69.6338 66.846 69.1938 66.78 68.8858 66.67C68.8418 66.648 68.7758 66.648 68.7098 66.648C68.4678 66.648 68.1818 66.802 68.0718 67.176C68.0498 67.264 68.0278 67.374 68.0278 67.462C68.0278 67.748 68.1818 68.012 68.4678 68.122C68.8638 68.276 69.4358 68.386 70.0738 68.386C71.4158 68.386 71.9658 67.792 72.2518 66.626C72.7138 64.712 73.0438 62.028 73.0438 58.09C73.0438 56.814 72.5158 56.308 71.2398 56.308H69.2818C69.3258 55.494 69.3258 54.658 69.3258 53.844C69.3258 53.69 69.3258 53.558 69.3258 53.404H73.0218C73.3958 53.404 73.6158 53.096 73.6158 52.656C73.6158 52.194 73.3958 51.886 73.0218 51.886H70.5138ZM96.4738 55.956C95.8358 54.108 95.3738 51.974 94.9998 49.884C94.9338 49.378 94.5598 49.136 94.1198 49.136C94.0318 49.136 93.9658 49.136 93.8778 49.158C93.4378 49.246 93.0858 49.532 93.0858 50.016C93.0858 50.082 93.0858 50.148 93.1078 50.214C93.5258 52.436 94.0538 54.724 94.7138 56.704C91.5458 58.244 89.6978 60.4 89.6978 62.622C89.6978 65.944 92.1838 67.44 97.5738 67.418C100.148 67.418 102.546 67.264 104.24 66.89C104.768 66.78 105.076 66.406 105.076 65.944C105.076 65.856 105.076 65.79 105.054 65.702C104.988 65.196 104.658 64.91 104.174 64.91C104.086 64.91 103.998 64.91 103.91 64.932C102.238 65.284 99.8178 65.526 97.6618 65.526C92.9978 65.526 91.5898 64.558 91.5898 62.644C91.5898 61.038 93.0858 59.388 95.9458 58.09C98.2778 57.034 101.402 56.022 103.69 55.45C104.196 55.318 104.438 54.988 104.438 54.592C104.438 54.482 104.416 54.372 104.394 54.262C104.262 53.822 103.976 53.602 103.536 53.602C103.426 53.602 103.316 53.624 103.184 53.646C101.226 54.152 98.6518 55.032 96.4738 55.956ZM114.58 49.4C114.558 49.4 114.536 49.4 114.536 49.4C113.964 49.4 113.612 49.752 113.59 50.324C113.436 53.558 113.326 57.628 113.326 61.038C113.326 63.832 113.788 65.262 114.8 66.252C115.878 67.286 117.418 67.77 119.486 67.77C121.752 67.77 123.82 67.022 125.448 65.438C126.768 64.162 127.692 62.38 128.374 60.158C128.418 60.026 128.44 59.894 128.44 59.784C128.44 59.344 128.154 58.992 127.758 58.882C127.648 58.838 127.516 58.816 127.406 58.816C127.032 58.816 126.724 59.058 126.57 59.564C126.042 61.39 125.228 62.93 124.238 63.942C122.94 65.284 121.224 65.834 119.53 65.834C118.012 65.834 116.912 65.592 116.186 64.91C115.482 64.228 115.218 63.084 115.218 61.016C115.218 57.496 115.394 53.602 115.504 50.368C115.504 50.346 115.504 50.324 115.504 50.302C115.504 49.752 115.196 49.422 114.58 49.4ZM143.376 52.458C139.13 53.976 136.798 56.99 136.798 60.312C136.798 63.106 138.316 65.108 140.582 66.208C141.968 66.868 143.706 67.22 145.532 67.22C146.192 67.22 146.544 66.868 146.588 66.23C146.588 66.186 146.588 66.164 146.588 66.12C146.588 65.614 146.258 65.218 145.62 65.218C144.146 65.196 142.672 64.954 141.506 64.404C139.922 63.678 138.69 62.358 138.69 60.158C138.69 56.616 142.012 53.448 146.764 52.656C147.27 52.568 147.622 52.524 147.996 52.48C148.634 52.414 148.854 51.996 148.854 51.534C148.854 51.512 148.854 51.49 148.854 51.468C148.81 50.962 148.524 50.61 147.908 50.61C147.886 50.61 147.864 50.61 147.842 50.61C142.518 50.852 136.71 51.226 131.342 51.644C130.858 51.688 130.528 52.084 130.528 52.568C130.528 52.59 130.528 52.612 130.528 52.656C130.572 53.162 130.902 53.492 131.474 53.492C131.518 53.492 131.54 53.492 131.584 53.492C134.378 53.272 137.458 52.986 140.604 52.722C141.33 52.656 142.276 52.546 143.354 52.326L143.376 52.458ZM161.64 52.238C165.534 52.37 167.976 55.076 167.976 58.794C167.976 61.104 166.964 62.886 165.578 63.92C164.478 64.734 162.784 65.284 161.178 65.504C160.672 65.592 160.386 65.922 160.386 66.362C160.386 66.428 160.386 66.516 160.408 66.582C160.496 67.132 160.87 67.352 161.332 67.352C161.398 67.352 161.486 67.352 161.574 67.33C163.334 67.066 164.918 66.56 166.194 65.746C168.482 64.294 169.824 61.94 169.824 58.838C169.824 53.998 166.392 50.61 161.2 50.61C155.194 50.61 151.366 54.57 151.366 60.048C151.366 63.744 153.192 65.966 155.48 65.966C156.382 65.966 157.306 65.68 158.01 64.998C158.78 64.272 159.418 63.282 160.188 61.016C160.958 58.662 161.442 55.582 161.64 52.238ZM159.814 52.304C159.66 55.318 159.11 58.332 158.428 60.4C157.9 62.006 157.394 62.952 156.91 63.414C156.448 63.876 155.942 64.052 155.436 64.052C154.27 64.052 153.148 62.666 153.148 60.026C153.148 55.758 155.788 52.678 159.814 52.304ZM186.236 52.546C186.786 52.546 187.028 52.7 187.028 53.03C187.028 53.162 186.984 53.316 186.918 53.514C186.06 55.978 184.234 58.552 181.946 60.664C179.592 62.82 176.798 64.404 174.136 65.416C173.718 65.57 173.476 65.966 173.476 66.362C173.476 66.494 173.498 66.626 173.542 66.736C173.674 67.11 173.982 67.286 174.356 67.286C174.532 67.286 174.708 67.242 174.884 67.176C178.294 65.9 181.748 63.766 184.19 61.082C186.632 62.996 188.348 64.646 189.998 66.626C190.218 66.868 190.504 66.978 190.79 66.978C191.076 66.978 191.362 66.868 191.56 66.648C191.736 66.45 191.846 66.208 191.846 65.944C191.846 65.68 191.736 65.416 191.538 65.174C189.69 63.04 187.886 61.61 185.422 59.696C186.962 57.804 188.194 55.934 188.92 53.976C189.074 53.514 189.162 53.074 189.162 52.7C189.162 52.26 189.052 51.908 188.876 51.6C188.48 51.028 187.864 50.72 186.918 50.72L175.72 50.83C175.214 50.83 174.906 51.182 174.906 51.71C174.906 52.304 175.192 52.678 175.72 52.678L186.236 52.546ZM204.298 61.038L205.662 67.374C205.772 67.836 206.08 68.056 206.476 68.056C206.586 68.056 206.696 68.034 206.828 68.012C207.29 67.902 207.532 67.66 207.532 67.242C207.532 67.176 207.532 67.088 207.51 67L206.146 60.73L213.032 59.63C213.45 59.564 213.692 59.234 213.692 58.816C213.692 58.75 213.692 58.684 213.67 58.618C213.604 58.178 213.296 57.87 212.878 57.87C212.834 57.87 212.768 57.87 212.724 57.892L205.772 59.014L204.826 54.68L211.426 53.624C211.8 53.558 212.02 53.272 212.02 52.898C212.02 52.81 212.02 52.744 211.998 52.656C211.888 52.238 211.624 51.908 211.228 51.908C211.184 51.908 211.162 51.908 211.118 51.908L204.452 52.986L203.77 49.884C203.66 49.4 203.396 49.202 203 49.202C202.912 49.202 202.824 49.202 202.714 49.224C202.23 49.334 201.944 49.598 201.944 50.016C201.944 50.082 201.944 50.17 201.966 50.236L202.626 53.272L196.268 54.284C195.894 54.35 195.652 54.702 195.652 55.098C195.652 55.164 195.652 55.23 195.674 55.296C195.74 55.736 196.048 56 196.444 56C196.488 56 196.532 56 196.576 56L202.978 54.966L203.924 59.322L196.29 60.554C195.916 60.62 195.674 60.972 195.674 61.39C195.674 61.456 195.674 61.522 195.696 61.588C195.762 62.006 196.114 62.27 196.51 62.27C196.554 62.27 196.598 62.27 196.642 62.27L204.298 61.038Z" fill="#FFA5BD"/>
<path d="M259.948 280.834H257.66C257.154 280.834 256.912 281.164 256.912 281.626C256.912 282.11 257.176 282.418 257.66 282.418H259.706L259.112 286.312H256.824C256.296 286.312 256.054 286.642 256.054 287.126C256.054 287.588 256.318 287.896 256.824 287.896H258.87L258.166 292.472C258.144 292.538 258.144 292.582 258.144 292.648C258.144 293.088 258.452 293.264 258.848 293.286C258.892 293.286 258.936 293.286 259.002 293.286C259.442 293.286 259.728 293.088 259.794 292.604L260.542 287.896H263.336L262.61 292.472C262.588 292.538 262.588 292.604 262.588 292.648C262.588 293.088 262.874 293.264 263.314 293.286C263.358 293.286 263.402 293.286 263.468 293.286C263.908 293.286 264.15 293.088 264.238 292.604L264.986 287.896H267.23C267.714 287.896 267.956 287.588 267.956 287.126C267.956 286.62 267.736 286.312 267.23 286.312H265.228L265.822 282.418H268.066C268.528 282.418 268.814 282.11 268.814 281.626C268.814 281.142 268.572 280.834 268.066 280.834H266.086L266.702 276.676C266.724 276.61 266.724 276.566 266.724 276.5C266.724 276.082 266.438 275.906 266.02 275.884C265.976 275.884 265.932 275.884 265.888 275.884C265.448 275.884 265.14 276.082 265.052 276.566L264.392 280.834H261.62L262.28 276.676C262.302 276.61 262.302 276.566 262.302 276.5C262.302 276.082 261.994 275.906 261.576 275.884C261.532 275.884 261.488 275.884 261.444 275.884C261.004 275.884 260.696 276.082 260.63 276.566L259.948 280.834ZM260.784 286.312L261.378 282.418H264.172L263.578 286.312H260.784ZM278.022 282.418C278.242 281.406 278.418 280.394 278.528 279.382H289.858C290.254 279.382 290.518 279.03 290.518 278.568C290.518 278.084 290.254 277.754 289.858 277.754H278.704C278.792 276.94 278.836 276.082 278.88 275.202C278.88 275.18 278.88 275.18 278.88 275.158C278.88 274.718 278.55 274.454 278 274.454C277.428 274.454 277.164 274.74 277.142 275.18C277.098 276.082 277.054 276.94 276.988 277.754H271.158C270.762 277.754 270.498 278.084 270.498 278.568C270.498 279.03 270.762 279.382 271.158 279.382H276.834C276.482 282.308 275.844 284.662 274.876 286.752C273.754 289.128 272.17 291.262 270.586 292.648C270.366 292.824 270.256 293.088 270.256 293.33C270.256 293.55 270.344 293.77 270.52 293.946C270.718 294.144 270.916 294.232 271.136 294.232C271.356 294.232 271.576 294.122 271.796 293.946C273.468 292.384 275.14 290.184 276.416 287.39C276.79 286.554 277.142 285.63 277.45 284.618C277.67 285.124 277.868 285.608 278.132 286.07C278.946 287.5 279.98 288.798 281.146 289.92C279.32 291.35 277.076 292.494 274.678 293.154C274.304 293.264 274.084 293.528 274.084 293.902C274.084 294.012 274.106 294.144 274.15 294.276C274.304 294.672 274.612 294.826 274.942 294.826C275.074 294.826 275.184 294.804 275.316 294.76C277.912 294.056 280.354 292.736 282.422 291.042C284.534 292.78 286.932 294.034 289.198 294.694C289.308 294.738 289.44 294.76 289.572 294.76C289.924 294.76 290.254 294.584 290.408 294.144C290.452 293.99 290.474 293.858 290.474 293.726C290.474 293.33 290.276 293.044 289.946 292.934C287.724 292.362 285.568 291.306 283.698 289.898C285.26 288.38 286.514 286.62 287.306 284.794C287.46 284.42 287.548 284.09 287.548 283.782C287.548 282.968 287.02 282.418 286.008 282.418H278.022ZM285.106 283.958C285.436 283.958 285.59 284.024 285.59 284.222C285.59 284.332 285.546 284.464 285.502 284.618C284.82 286.114 283.764 287.566 282.422 288.842C280.904 287.456 279.672 285.806 278.814 283.958H285.106ZM298.68 282.374C298.328 282.374 298.13 282.66 298.13 283.034C298.13 283.43 298.328 283.738 298.68 283.738H304.114V285.322H299.45C299.098 285.322 298.9 285.652 298.9 286.026C298.9 286.4 299.098 286.73 299.45 286.73H304.114V288.314H298.438C298.064 288.314 297.888 288.666 297.888 289.018C297.888 289.392 298.108 289.7 298.46 289.7H304.114V291.724C304.114 292.142 304.422 292.362 304.906 292.362C305.39 292.362 305.72 292.142 305.72 291.724V289.7H311.748C312.1 289.7 312.276 289.414 312.276 289.018C312.276 288.666 312.1 288.314 311.748 288.314H305.72V286.73H310.648C311 286.73 311.198 286.4 311.198 286.026C311.198 285.652 311 285.322 310.648 285.322H305.72V283.738H311.506C311.858 283.738 312.056 283.43 312.056 283.034C312.056 282.66 311.858 282.374 311.506 282.374H308.272C308.602 281.714 308.932 281.054 309.174 280.372H311.814C312.166 280.372 312.364 280.064 312.364 279.668C312.364 279.294 312.166 279.008 311.814 279.008H305.676V277.446H310.824C311.154 277.446 311.374 277.116 311.374 276.72C311.374 276.368 311.154 276.016 310.824 276.016H305.676V274.894C305.676 274.498 305.368 274.322 304.884 274.322C304.4 274.322 304.07 274.498 304.07 274.894V276.016H299.296C298.944 276.016 298.746 276.368 298.746 276.72C298.746 277.116 298.944 277.446 299.296 277.446H304.07V279.008H298.284C297.91 279.008 297.734 279.294 297.734 279.668C297.734 280.064 297.91 280.372 298.284 280.372H300.726C301.056 281.01 301.342 281.692 301.562 282.374H298.68ZM303.19 282.374C302.97 281.692 302.706 281.01 302.398 280.372H307.48C307.216 281.054 306.952 281.736 306.6 282.374H303.19ZM296.898 285.014C296.898 283.87 296.414 283.276 295.292 283.276H292.806C292.41 283.276 292.146 283.54 292.146 284.046C292.146 284.552 292.41 284.816 292.806 284.816H294.698C295.094 284.816 295.248 284.948 295.248 285.366V290.14C294.412 291.13 293.18 292.164 292.322 292.758C292.08 292.912 291.97 293.132 291.97 293.374C291.97 293.55 292.036 293.748 292.168 293.924C292.366 294.166 292.608 294.276 292.828 294.276C293.004 294.276 293.18 294.21 293.334 294.122C294.214 293.44 295.204 292.516 296.018 291.504C296.7 292.824 297.954 293.638 299.516 293.99C300.594 294.232 302.244 294.342 304.136 294.342C306.776 294.342 309.79 294.254 312.034 294.166C312.606 294.122 312.87 293.814 312.87 293.33C312.87 293.308 312.87 293.286 312.87 293.264C312.826 292.736 312.606 292.45 312.078 292.45C312.056 292.45 312.012 292.45 311.968 292.45C309.724 292.626 306.996 292.736 304.268 292.736C302.508 292.736 301.1 292.648 300.066 292.494C298.724 292.274 297.47 291.614 296.898 290.184V285.014ZM294.302 275.246C294.126 275.092 293.928 275.026 293.73 275.026C293.532 275.026 293.312 275.114 293.136 275.268C292.938 275.444 292.828 275.664 292.828 275.884C292.828 276.06 292.894 276.236 293.048 276.368C293.906 277.204 294.83 278.392 295.512 279.47C295.666 279.712 295.908 279.822 296.15 279.822C296.348 279.822 296.546 279.734 296.722 279.58C296.964 279.404 297.096 279.162 297.096 278.898C297.096 278.744 297.052 278.568 296.942 278.392C296.15 277.292 295.226 276.126 294.302 275.246ZM323.474 281.956C322.836 280.108 322.374 277.974 322 275.884C321.934 275.378 321.56 275.136 321.12 275.136C321.032 275.136 320.966 275.136 320.878 275.158C320.438 275.246 320.086 275.532 320.086 276.016C320.086 276.082 320.086 276.148 320.108 276.214C320.526 278.436 321.054 280.724 321.714 282.704C318.546 284.244 316.698 286.4 316.698 288.622C316.698 291.944 319.184 293.44 324.574 293.418C327.148 293.418 329.546 293.264 331.24 292.89C331.768 292.78 332.076 292.406 332.076 291.944C332.076 291.856 332.076 291.79 332.054 291.702C331.988 291.196 331.658 290.91 331.174 290.91C331.086 290.91 330.998 290.91 330.91 290.932C329.238 291.284 326.818 291.526 324.662 291.526C319.998 291.526 318.59 290.558 318.59 288.644C318.59 287.038 320.086 285.388 322.946 284.09C325.278 283.034 328.402 282.022 330.69 281.45C331.196 281.318 331.438 280.988 331.438 280.592C331.438 280.482 331.416 280.372 331.394 280.262C331.262 279.822 330.976 279.602 330.536 279.602C330.426 279.602 330.316 279.624 330.184 279.646C328.226 280.152 325.652 281.032 323.474 281.956ZM341.58 275.4C341.558 275.4 341.536 275.4 341.536 275.4C340.964 275.4 340.612 275.752 340.59 276.324C340.436 279.558 340.326 283.628 340.326 287.038C340.326 289.832 340.788 291.262 341.8 292.252C342.878 293.286 344.418 293.77 346.486 293.77C348.752 293.77 350.82 293.022 352.448 291.438C353.768 290.162 354.692 288.38 355.374 286.158C355.418 286.026 355.44 285.894 355.44 285.784C355.44 285.344 355.154 284.992 354.758 284.882C354.648 284.838 354.516 284.816 354.406 284.816C354.032 284.816 353.724 285.058 353.57 285.564C353.042 287.39 352.228 288.93 351.238 289.942C349.94 291.284 348.224 291.834 346.53 291.834C345.012 291.834 343.912 291.592 343.186 290.91C342.482 290.228 342.218 289.084 342.218 287.016C342.218 283.496 342.394 279.602 342.504 276.368C342.504 276.346 342.504 276.324 342.504 276.302C342.504 275.752 342.196 275.422 341.58 275.4ZM370.376 278.458C366.13 279.976 363.798 282.99 363.798 286.312C363.798 289.106 365.316 291.108 367.582 292.208C368.968 292.868 370.706 293.22 372.532 293.22C373.192 293.22 373.544 292.868 373.588 292.23C373.588 292.186 373.588 292.164 373.588 292.12C373.588 291.614 373.258 291.218 372.62 291.218C371.146 291.196 369.672 290.954 368.506 290.404C366.922 289.678 365.69 288.358 365.69 286.158C365.69 282.616 369.012 279.448 373.764 278.656C374.27 278.568 374.622 278.524 374.996 278.48C375.634 278.414 375.854 277.996 375.854 277.534C375.854 277.512 375.854 277.49 375.854 277.468C375.81 276.962 375.524 276.61 374.908 276.61C374.886 276.61 374.864 276.61 374.842 276.61C369.518 276.852 363.71 277.226 358.342 277.644C357.858 277.688 357.528 278.084 357.528 278.568C357.528 278.59 357.528 278.612 357.528 278.656C357.572 279.162 357.902 279.492 358.474 279.492C358.518 279.492 358.54 279.492 358.584 279.492C361.378 279.272 364.458 278.986 367.604 278.722C368.33 278.656 369.276 278.546 370.354 278.326L370.376 278.458ZM388.64 278.238C392.534 278.37 394.976 281.076 394.976 284.794C394.976 287.104 393.964 288.886 392.578 289.92C391.478 290.734 389.784 291.284 388.178 291.504C387.672 291.592 387.386 291.922 387.386 292.362C387.386 292.428 387.386 292.516 387.408 292.582C387.496 293.132 387.87 293.352 388.332 293.352C388.398 293.352 388.486 293.352 388.574 293.33C390.334 293.066 391.918 292.56 393.194 291.746C395.482 290.294 396.824 287.94 396.824 284.838C396.824 279.998 393.392 276.61 388.2 276.61C382.194 276.61 378.366 280.57 378.366 286.048C378.366 289.744 380.192 291.966 382.48 291.966C383.382 291.966 384.306 291.68 385.01 290.998C385.78 290.272 386.418 289.282 387.188 287.016C387.958 284.662 388.442 281.582 388.64 278.238ZM386.814 278.304C386.66 281.318 386.11 284.332 385.428 286.4C384.9 288.006 384.394 288.952 383.91 289.414C383.448 289.876 382.942 290.052 382.436 290.052C381.27 290.052 380.148 288.666 380.148 286.026C380.148 281.758 382.788 278.678 386.814 278.304ZM413.236 278.546C413.786 278.546 414.028 278.7 414.028 279.03C414.028 279.162 413.984 279.316 413.918 279.514C413.06 281.978 411.234 284.552 408.946 286.664C406.592 288.82 403.798 290.404 401.136 291.416C400.718 291.57 400.476 291.966 400.476 292.362C400.476 292.494 400.498 292.626 400.542 292.736C400.674 293.11 400.982 293.286 401.356 293.286C401.532 293.286 401.708 293.242 401.884 293.176C405.294 291.9 408.748 289.766 411.19 287.082C413.632 288.996 415.348 290.646 416.998 292.626C417.218 292.868 417.504 292.978 417.79 292.978C418.076 292.978 418.362 292.868 418.56 292.648C418.736 292.45 418.846 292.208 418.846 291.944C418.846 291.68 418.736 291.416 418.538 291.174C416.69 289.04 414.886 287.61 412.422 285.696C413.962 283.804 415.194 281.934 415.92 279.976C416.074 279.514 416.162 279.074 416.162 278.7C416.162 278.26 416.052 277.908 415.876 277.6C415.48 277.028 414.864 276.72 413.918 276.72L402.72 276.83C402.214 276.83 401.906 277.182 401.906 277.71C401.906 278.304 402.192 278.678 402.72 278.678L413.236 278.546ZM431.298 287.038L432.662 293.374C432.772 293.836 433.08 294.056 433.476 294.056C433.586 294.056 433.696 294.034 433.828 294.012C434.29 293.902 434.532 293.66 434.532 293.242C434.532 293.176 434.532 293.088 434.51 293L433.146 286.73L440.032 285.63C440.45 285.564 440.692 285.234 440.692 284.816C440.692 284.75 440.692 284.684 440.67 284.618C440.604 284.178 440.296 283.87 439.878 283.87C439.834 283.87 439.768 283.87 439.724 283.892L432.772 285.014L431.826 280.68L438.426 279.624C438.8 279.558 439.02 279.272 439.02 278.898C439.02 278.81 439.02 278.744 438.998 278.656C438.888 278.238 438.624 277.908 438.228 277.908C438.184 277.908 438.162 277.908 438.118 277.908L431.452 278.986L430.77 275.884C430.66 275.4 430.396 275.202 430 275.202C429.912 275.202 429.824 275.202 429.714 275.224C429.23 275.334 428.944 275.598 428.944 276.016C428.944 276.082 428.944 276.17 428.966 276.236L429.626 279.272L423.268 280.284C422.894 280.35 422.652 280.702 422.652 281.098C422.652 281.164 422.652 281.23 422.674 281.296C422.74 281.736 423.048 282 423.444 282C423.488 282 423.532 282 423.576 282L429.978 280.966L430.924 285.322L423.29 286.554C422.916 286.62 422.674 286.972 422.674 287.39C422.674 287.456 422.674 287.522 422.696 287.588C422.762 288.006 423.114 288.27 423.51 288.27C423.554 288.27 423.598 288.27 423.642 288.27L431.298 287.038Z" fill="#FFA5BD"/>
<path d="M146.736 329.472C146.736 327.792 146.26 327.204 144.58 327.204C144.552 327.204 144.496 327.204 144.468 327.204L141.444 327.26C140.772 327.288 140.436 327.792 140.436 328.464C140.436 329.108 140.8 329.64 141.444 329.64C141.472 329.64 141.472 329.64 141.5 329.64L143.516 329.612C143.544 329.612 143.6 329.612 143.628 329.612C144.076 329.612 144.16 329.78 144.16 330.256V344.62C144.16 345.32 144.692 345.712 145.448 345.712C146.176 345.712 146.736 345.32 146.736 344.62V329.472ZM145 322.948C137.58 322.948 131.588 328.94 131.588 336.36C131.588 343.78 137.58 349.772 145 349.772C152.42 349.772 158.412 343.78 158.412 336.36C158.412 328.94 152.42 322.948 145 322.948ZM145 324.208C151.72 324.208 157.152 329.64 157.152 336.36C157.152 343.08 151.72 348.512 145 348.512C138.28 348.512 132.848 343.08 132.848 336.36C132.848 329.64 138.28 324.208 145 324.208ZM177.564 328.604C178.264 328.604 178.572 328.8 178.572 329.22C178.572 329.388 178.516 329.584 178.432 329.836C177.34 332.972 175.016 336.248 172.104 338.936C169.108 341.68 165.552 343.696 162.164 344.984C161.632 345.18 161.324 345.684 161.324 346.188C161.324 346.356 161.352 346.524 161.408 346.664C161.576 347.14 161.968 347.364 162.444 347.364C162.668 347.364 162.892 347.308 163.116 347.224C167.456 345.6 171.852 342.884 174.96 339.468C178.068 341.904 180.252 344.004 182.352 346.524C182.632 346.832 182.996 346.972 183.36 346.972C183.724 346.972 184.088 346.832 184.34 346.552C184.564 346.3 184.704 345.992 184.704 345.656C184.704 345.32 184.564 344.984 184.312 344.676C181.96 341.96 179.664 340.14 176.528 337.704C178.488 335.296 180.056 332.916 180.98 330.424C181.176 329.836 181.288 329.276 181.288 328.8C181.288 328.24 181.148 327.792 180.924 327.4C180.42 326.672 179.636 326.28 178.432 326.28L164.18 326.42C163.536 326.42 163.144 326.868 163.144 327.54C163.144 328.296 163.508 328.772 164.18 328.772L177.564 328.604ZM200.552 339.412L202.288 347.476C202.428 348.064 202.82 348.344 203.324 348.344C203.464 348.344 203.604 348.316 203.772 348.288C204.36 348.148 204.668 347.84 204.668 347.308C204.668 347.224 204.668 347.112 204.64 347L202.904 339.02L211.668 337.62C212.2 337.536 212.508 337.116 212.508 336.584C212.508 336.5 212.508 336.416 212.48 336.332C212.396 335.772 212.004 335.38 211.472 335.38C211.416 335.38 211.332 335.38 211.276 335.408L202.428 336.836L201.224 331.32L209.624 329.976C210.1 329.892 210.38 329.528 210.38 329.052C210.38 328.94 210.38 328.856 210.352 328.744C210.212 328.212 209.876 327.792 209.372 327.792C209.316 327.792 209.288 327.792 209.232 327.792L200.748 329.164L199.88 325.216C199.74 324.6 199.404 324.348 198.9 324.348C198.788 324.348 198.676 324.348 198.536 324.376C197.92 324.516 197.556 324.852 197.556 325.384C197.556 325.468 197.556 325.58 197.584 325.664L198.424 329.528L190.332 330.816C189.856 330.9 189.548 331.348 189.548 331.852C189.548 331.936 189.548 332.02 189.576 332.104C189.66 332.664 190.052 333 190.556 333C190.612 333 190.668 333 190.724 333L198.872 331.684L200.076 337.228L190.36 338.796C189.884 338.88 189.576 339.328 189.576 339.86C189.576 339.944 189.576 340.028 189.604 340.112C189.688 340.644 190.136 340.98 190.64 340.98C190.696 340.98 190.752 340.98 190.808 340.98L200.552 339.412ZM222.868 334.596C224.324 333.336 225.612 331.656 226.704 329.808C229.896 329.724 233.396 329.416 236.924 328.912C237.54 328.8 237.876 328.408 237.876 327.876C237.876 327.792 237.876 327.736 237.876 327.68C237.792 327.092 237.428 326.784 236.868 326.784C236.784 326.784 236.7 326.784 236.616 326.812C233.536 327.26 230.204 327.596 227.824 327.68C228.244 326.84 228.608 326.084 228.944 325.272C229.028 325.104 229.056 324.936 229.056 324.796C229.056 324.376 228.748 324.04 228.188 323.928C228.048 323.9 227.936 323.872 227.796 323.872C227.348 323.872 226.956 324.096 226.76 324.684C226.424 325.692 225.92 326.728 225.36 327.736C224.828 327.736 224.296 327.736 223.764 327.736C221.916 327.736 220.124 327.708 218.808 327.596C218.78 327.596 218.752 327.596 218.724 327.596C218.164 327.596 217.772 328.072 217.716 328.632C217.716 328.66 217.716 328.716 217.716 328.744C217.716 329.304 218.08 329.752 218.696 329.78C219.956 329.836 221.552 329.864 222.952 329.864C223.4 329.864 223.848 329.864 224.24 329.864C222.42 332.748 220.012 335.66 217.604 337.9C217.352 338.152 217.212 338.46 217.212 338.796C217.212 339.104 217.324 339.412 217.576 339.636C217.8 339.86 218.052 339.972 218.332 339.972C218.64 339.972 218.976 339.832 219.228 339.552C222.588 336.136 225.668 334.288 228.048 334.288C229.28 334.288 230.12 334.764 230.288 336.472C225.08 338.348 222.504 340.952 222.504 343.612C222.504 346.832 225.472 348.288 230.736 348.288C233.732 348.288 236.448 348.064 238.548 347.7C239.192 347.616 239.584 347.14 239.584 346.552C239.584 346.468 239.584 346.384 239.556 346.272C239.444 345.684 239.08 345.404 238.52 345.404C238.38 345.404 238.268 345.404 238.128 345.432C236.056 345.796 233.256 346.048 230.568 346.048C226.62 346.048 224.8 345.18 224.8 343.528C224.8 341.792 226.536 340.112 230.456 338.6C230.456 339.02 230.456 339.496 230.456 339.944C230.456 340.84 230.456 341.764 230.456 342.52C230.456 343.22 230.848 343.584 231.492 343.584C232.108 343.584 232.556 343.22 232.584 342.52C232.612 341.988 232.612 341.456 232.612 340.924C232.612 339.916 232.584 338.936 232.528 337.928C235.216 336.948 237.848 336.248 239.892 335.716C240.508 335.576 240.788 335.184 240.788 334.68C240.788 334.54 240.76 334.4 240.732 334.232C240.564 333.728 240.2 333.476 239.696 333.476C239.556 333.476 239.388 333.504 239.22 333.532C237.288 334.092 234.852 334.848 232.332 335.744C231.968 333.336 230.484 332.468 228.468 332.468C226.732 332.468 225.164 333.224 222.98 334.764L222.868 334.596ZM257.616 335.744V334.428C257.616 333.952 257.224 333.7 256.608 333.7C256.048 333.7 255.656 333.952 255.656 334.428V335.744H252.492C252.044 335.744 251.82 336.136 251.82 336.584C251.82 337.06 252.044 337.452 252.492 337.452H255.656V339.776H251.512C251.092 339.776 250.84 340.168 250.84 340.616C250.84 341.092 251.092 341.484 251.512 341.484H268.76C269.208 341.484 269.46 341.092 269.46 340.616C269.46 340.168 269.208 339.776 268.76 339.776H264.14V337.452H267.808C268.228 337.452 268.48 337.06 268.48 336.584C268.48 336.136 268.228 335.744 267.808 335.744H264.14V334.428C264.14 333.952 263.748 333.7 263.16 333.7C262.572 333.7 262.18 333.952 262.18 334.428V335.744H257.616ZM257.616 339.776V337.452H262.18V339.776H257.616ZM249.72 336.836C249.72 335.352 249.132 334.624 247.676 334.624H244.652C244.148 334.624 243.812 334.96 243.812 335.604C243.812 336.248 244.148 336.556 244.652 336.556H246.92C247.452 336.556 247.62 336.696 247.62 337.256V343.36C246.584 344.648 245.128 345.964 244.176 346.664C243.896 346.888 243.728 347.196 243.728 347.504C243.728 347.756 243.812 347.98 244.008 348.204C244.26 348.54 244.54 348.68 244.82 348.68C245.016 348.68 245.184 348.624 245.352 348.484C246.528 347.644 247.62 346.384 248.6 345.152C249.468 346.832 251.092 347.868 253.136 348.316C254.508 348.624 256.58 348.736 258.932 348.736C262.292 348.736 266.268 348.652 269.124 348.512C269.824 348.484 270.16 348.092 270.16 347.504C270.16 347.476 270.16 347.42 270.16 347.364C270.132 346.692 269.852 346.356 269.208 346.356C269.152 346.356 269.096 346.356 269.04 346.356C266.184 346.58 262.572 346.72 259.1 346.72C256.916 346.72 255.208 346.608 253.92 346.412C252.156 346.16 250.56 345.292 249.72 343.444V336.836ZM246.5 324.488C246.332 324.32 246.108 324.236 245.884 324.236C245.604 324.236 245.352 324.348 245.072 324.572C244.82 324.796 244.68 325.076 244.68 325.3C244.68 325.524 244.792 325.72 244.96 325.916C246.164 327.064 247.2 328.408 248.18 329.836C248.376 330.144 248.656 330.256 248.936 330.256C249.216 330.256 249.496 330.144 249.748 329.948C250.028 329.724 250.168 329.444 250.168 329.136C250.168 328.912 250.084 328.688 249.916 328.436C249.02 327.092 247.788 325.636 246.5 324.488ZM257.196 329.248C258.54 329.248 259.128 328.94 259.128 327.54V325.972C259.128 324.572 258.68 324.068 257.252 324.068H251.736C251.288 324.068 251.036 324.376 251.036 324.908C251.036 325.412 251.288 325.748 251.736 325.748H256.608C257.28 325.748 257.336 325.916 257.336 326.448V326.98C257.336 327.512 257.224 327.624 256.664 327.624H253.108C251.848 327.624 251.288 328.184 251.288 329.276V331.124C251.288 332.188 251.54 332.748 252.492 333C253.052 333.168 253.864 333.196 255.096 333.196C256.132 333.196 256.916 333.168 257.504 333.112C258.372 333 258.82 332.748 259.1 332.44C259.436 332.076 259.744 331.376 259.8 330.62C259.8 330.62 259.8 330.592 259.8 330.564C259.8 330.144 259.464 329.78 258.932 329.724C258.876 329.724 258.82 329.724 258.764 329.724C258.288 329.724 257.924 329.92 257.868 330.424C257.812 330.816 257.7 331.096 257.42 331.32C257.196 331.516 256.776 331.6 255.124 331.6C253.248 331.6 253.108 331.404 253.108 330.788V329.92C253.108 329.332 253.22 329.248 253.808 329.248H257.196ZM266.716 329.248C268.088 329.248 268.676 328.94 268.676 327.54V325.972C268.676 324.572 268.2 324.068 266.8 324.068H261.284C260.864 324.068 260.584 324.376 260.584 324.908C260.584 325.412 260.864 325.748 261.284 325.748H266.1C266.772 325.748 266.828 325.916 266.828 326.448V326.896C266.828 327.428 266.744 327.624 266.156 327.624H262.544C261.312 327.624 260.752 328.156 260.752 329.164V331.152C260.752 332.272 261.004 332.804 261.956 333.028C262.544 333.168 263.468 333.224 264.7 333.224C265.792 333.224 266.744 333.168 267.332 333.056C268.144 332.944 268.592 332.692 268.844 332.356C269.18 332.104 269.404 331.376 269.46 330.592C269.46 330.592 269.46 330.564 269.46 330.536C269.46 330.116 269.152 329.724 268.648 329.668C268.592 329.668 268.508 329.668 268.452 329.668C268.004 329.668 267.64 329.864 267.612 330.284C267.556 330.788 267.5 331.068 267.22 331.32C267.024 331.488 266.492 331.6 265.176 331.6C265.036 331.6 264.868 331.6 264.7 331.6C262.74 331.572 262.6 331.544 262.6 330.76V329.92C262.6 329.332 262.712 329.248 263.3 329.248H266.716ZM258.092 342.38C257.896 342.156 257.644 342.072 257.392 342.072C257.196 342.072 257.028 342.128 256.86 342.212C255.712 342.94 254.06 343.668 252.744 344.004C252.352 344.116 252.1 344.424 252.1 344.788C252.1 344.928 252.128 345.068 252.212 345.208C252.38 345.572 252.688 345.74 253.08 345.74C253.192 345.74 253.304 345.712 253.444 345.684C254.984 345.236 256.692 344.452 258.008 343.584C258.232 343.416 258.344 343.164 258.344 342.94C258.344 342.744 258.26 342.548 258.092 342.38ZM267.36 345.908C267.5 345.936 267.612 345.964 267.724 345.964C268.088 345.964 268.396 345.768 268.508 345.292C268.536 345.18 268.564 345.096 268.564 344.984C268.564 344.648 268.34 344.34 268.004 344.284C266.38 343.808 264.504 343.08 263.076 342.212C262.88 342.1 262.684 342.044 262.488 342.044C262.264 342.044 262.012 342.128 261.788 342.324C261.592 342.52 261.48 342.744 261.48 342.968C261.48 343.22 261.62 343.416 261.872 343.584C263.328 344.508 265.064 345.236 266.772 345.768L267.36 345.908ZM281.304 326.14C280.716 326.14 280.352 326.56 280.352 327.148V327.232C280.352 327.792 280.688 328.212 281.36 328.268C282.34 328.324 283.404 328.352 284.496 328.352C285.728 328.352 287.016 328.324 288.36 328.24C288.36 329.808 288.388 331.32 288.444 332.58C287.1 332.636 285.784 332.664 284.552 332.664C283.292 332.664 282.116 332.636 281.052 332.58H280.94C280.38 332.58 280.044 332.972 280.016 333.588C280.016 334.204 280.296 334.68 280.996 334.736C281.864 334.764 282.788 334.792 283.712 334.792C285.28 334.792 286.904 334.736 288.528 334.652C288.584 335.8 288.64 336.752 288.696 337.536C288.752 338.292 288.836 339.076 288.92 339.86C287.828 339.468 286.624 339.3 285.476 339.3C282.032 339.3 279.904 341.008 279.904 343.584C279.904 346.356 282.144 347.952 285.588 347.952C289.032 347.952 291.16 346.496 291.16 343.78C291.16 343.668 291.16 343.556 291.16 343.416C291.16 343.304 291.16 343.136 291.132 342.996C292.196 343.64 293.288 344.592 294.324 345.628C294.576 345.88 294.856 345.992 295.164 345.992C295.472 345.992 295.752 345.88 295.976 345.628C296.2 345.376 296.312 345.124 296.312 344.844C296.312 344.508 296.144 344.172 295.892 343.92C294.52 342.576 292.84 341.4 291.16 340.616C291.048 339.552 290.936 338.432 290.852 337.508C290.768 336.584 290.74 335.604 290.684 334.512C292.252 334.4 293.68 334.232 294.968 334.036C295.584 333.896 295.864 333.532 295.864 333C295.864 332.944 295.864 332.888 295.864 332.832C295.808 332.272 295.416 331.964 294.912 331.964C294.828 331.964 294.772 331.964 294.716 331.964C293.484 332.16 292.056 332.328 290.628 332.412C290.572 331.068 290.516 329.612 290.516 328.128C290.936 328.1 291.188 328.072 291.72 328.016C292.28 327.96 292.588 327.596 292.588 327.064C292.588 326.476 292.28 325.916 291.608 325.916C291.552 325.916 291.524 325.916 291.468 325.916C290.124 326.028 289.116 326.112 287.688 326.14C286.484 326.168 285.28 326.196 284.132 326.196C283.18 326.196 282.256 326.168 281.416 326.14H281.304ZM289.032 342.912C289.032 345.012 287.912 345.908 285.392 345.908C283.376 345.908 282.088 345.068 282.088 343.584C282.088 342.156 283.348 341.26 285.448 341.26C286.624 341.26 287.856 341.512 289.004 341.988C289.032 342.324 289.032 342.604 289.032 342.912ZM277.188 326.224C277.244 326.056 277.244 325.916 277.244 325.776C277.244 325.244 276.964 324.908 276.404 324.796C276.264 324.768 276.152 324.768 276.04 324.768C275.48 324.768 275.088 325.02 274.892 325.72C273.912 329.444 273.24 334.652 273.24 338.516C273.24 341.792 273.548 344.76 274.108 347.224C274.248 347.924 274.64 348.288 275.256 348.288C275.368 348.288 275.508 348.288 275.62 348.26C276.208 348.12 276.488 347.784 276.488 347.196C276.488 347.028 276.46 346.86 276.432 346.664C275.9 344.284 275.564 341.372 275.564 338.488C275.564 334.652 276.236 329.92 277.188 326.224ZM292.896 324.488C293.372 325.44 293.82 326.616 294.156 327.792C294.268 328.184 294.548 328.38 294.884 328.38C295.388 328.38 295.78 328.072 295.78 327.652C295.78 327.372 295.752 327.148 295.668 326.868C295.444 326.028 294.912 324.684 294.408 323.704C294.24 323.368 293.904 323.2 293.54 323.2C293.064 323.2 292.728 323.508 292.728 323.9C292.728 324.068 292.812 324.348 292.896 324.488ZM296.144 323.62C296.592 324.432 297.096 325.776 297.348 326.7C297.488 327.204 297.684 327.428 298.104 327.428C298.608 327.428 298.944 327.148 298.944 326.644C298.944 326.364 298.916 326.196 298.86 326C298.608 325.132 298.076 323.76 297.572 322.892C297.404 322.584 297.152 322.444 296.788 322.444C296.396 322.444 296.032 322.724 296.032 323.116C296.032 323.368 296.088 323.508 296.144 323.62ZM306.672 326.812C309.976 327.568 315.24 328.212 318.936 328.296C318.964 328.296 318.992 328.296 319.02 328.296C319.748 328.296 320.196 327.904 320.224 327.232C320.224 327.204 320.224 327.176 320.224 327.176C320.224 326.476 319.804 325.972 319.076 325.944C315.38 325.776 310.648 325.244 307.232 324.46C307.148 324.46 307.064 324.46 307.008 324.46C306.42 324.46 305.972 324.768 305.832 325.384C305.804 325.524 305.776 325.636 305.776 325.748C305.776 326.28 306.084 326.672 306.672 326.812ZM322.408 337.396C322.408 333.868 319.804 331.348 314.456 331.348C311.236 331.348 306.84 332.132 303.676 333.112C303.144 333.252 302.808 333.7 302.808 334.26C302.808 334.4 302.836 334.54 302.864 334.68C303.06 335.24 303.48 335.52 303.956 335.52C304.096 335.52 304.236 335.492 304.376 335.464C307.54 334.484 311.572 333.616 314.512 333.616C318.488 333.616 319.972 335.212 319.972 337.508C319.972 339.944 318.712 342.072 315.996 343.612C314.064 344.704 311.04 345.544 308.52 345.88C307.876 345.992 307.512 346.44 307.512 347.028C307.512 347.112 307.512 347.224 307.54 347.308C307.68 347.924 308.072 348.316 308.716 348.316C308.8 348.316 308.884 348.316 308.968 348.288C311.656 347.952 314.792 347.028 316.976 345.824C320.616 343.808 322.408 340.952 322.408 337.396Z" fill="#FFA5BD"/>
<path d="M27.9476 266.834H25.6596C25.1536 266.834 24.9116 267.164 24.9116 267.626C24.9116 268.11 25.1756 268.418 25.6596 268.418H27.7056L27.1116 272.312H24.8236C24.2956 272.312 24.0536 272.642 24.0536 273.126C24.0536 273.588 24.3176 273.896 24.8236 273.896H26.8696L26.1656 278.472C26.1436 278.538 26.1436 278.582 26.1436 278.648C26.1436 279.088 26.4516 279.264 26.8476 279.286C26.8916 279.286 26.9356 279.286 27.0016 279.286C27.4416 279.286 27.7276 279.088 27.7936 278.604L28.5416 273.896H31.3356L30.6096 278.472C30.5876 278.538 30.5876 278.604 30.5876 278.648C30.5876 279.088 30.8736 279.264 31.3136 279.286C31.3576 279.286 31.4016 279.286 31.4676 279.286C31.9076 279.286 32.1496 279.088 32.2376 278.604L32.9856 273.896H35.2296C35.7136 273.896 35.9556 273.588 35.9556 273.126C35.9556 272.62 35.7356 272.312 35.2296 272.312H33.2276L33.8216 268.418H36.0656C36.5276 268.418 36.8136 268.11 36.8136 267.626C36.8136 267.142 36.5716 266.834 36.0656 266.834H34.0856L34.7016 262.676C34.7236 262.61 34.7236 262.566 34.7236 262.5C34.7236 262.082 34.4376 261.906 34.0196 261.884C33.9756 261.884 33.9316 261.884 33.8876 261.884C33.4476 261.884 33.1396 262.082 33.0516 262.566L32.3916 266.834H29.6196L30.2796 262.676C30.3016 262.61 30.3016 262.566 30.3016 262.5C30.3016 262.082 29.9936 261.906 29.5756 261.884C29.5316 261.884 29.4876 261.884 29.4436 261.884C29.0036 261.884 28.6956 262.082 28.6296 262.566L27.9476 266.834ZM28.7836 272.312L29.3776 268.418H32.1716L31.5776 272.312H28.7836ZM53.5458 278.648V274.952H57.3078C57.6598 274.952 57.8798 274.666 57.8798 274.226C57.8798 273.786 57.6598 273.5 57.3078 273.5H53.5458V270.2H57.3078C57.6598 270.2 57.8798 269.914 57.8798 269.474C57.8798 269.056 57.6598 268.748 57.3078 268.748H53.5458V265.624H57.6158C57.9678 265.624 58.1878 265.316 58.1878 264.854C58.1878 264.414 57.9678 264.128 57.6158 264.128H53.8538C54.3598 263.248 54.7778 262.346 55.0638 261.532C55.1078 261.4 55.1298 261.29 55.1298 261.18C55.1298 260.85 54.8878 260.63 54.5138 260.542C54.4258 260.52 54.3378 260.52 54.2498 260.52C53.9198 260.52 53.6558 260.674 53.5238 261.07C53.2158 261.994 52.7538 263.072 52.2038 264.128H49.8498C49.4758 264.128 49.1018 264.172 48.7278 264.238C49.2338 263.292 49.6518 262.346 49.9818 261.444C50.0258 261.334 50.0478 261.224 50.0478 261.136C50.0478 260.784 49.8278 260.564 49.4538 260.476C49.3438 260.454 49.2338 260.432 49.1238 260.432C48.7938 260.432 48.5518 260.564 48.4198 260.938C47.6278 263.314 46.2198 265.888 44.6578 267.56C44.4598 267.78 44.3718 268 44.3718 268.22C44.3718 268.418 44.4598 268.616 44.6358 268.792C44.8118 268.946 44.9878 269.012 45.1638 269.012C45.4058 269.012 45.6478 268.88 45.8678 268.638C46.1098 268.352 46.3298 268 46.5498 267.648C46.4398 268.506 46.3738 269.43 46.3738 270.244V278.274C46.3738 279.594 46.9898 280.144 48.2658 280.144H58.0118C58.3638 280.144 58.5838 279.836 58.5838 279.374C58.5838 278.934 58.3638 278.648 58.0118 278.648H53.5458ZM47.9578 273.5V270.2H52.0058V273.5H47.9578ZM47.9578 274.952H52.0058V278.648H48.6398C48.1558 278.648 47.9578 278.494 47.9578 277.988V274.952ZM52.0058 265.624V268.748H47.9578V266.284C47.9578 265.778 48.1558 265.624 48.6398 265.624H52.0058ZM43.0298 264.722V260.982C43.0298 260.564 42.7438 260.344 42.2378 260.344C41.7318 260.344 41.4238 260.564 41.4238 260.982V264.722H39.0038C38.6078 264.722 38.3878 265.03 38.3878 265.47C38.3878 265.932 38.6078 266.24 39.0038 266.24H41.4238V271.19C40.5438 271.542 39.6418 271.85 38.7618 272.114C38.4318 272.202 38.2778 272.444 38.2778 272.752C38.2778 272.862 38.2998 272.972 38.3438 273.104C38.4538 273.5 38.7398 273.698 39.0698 273.698C39.1578 273.698 39.2458 273.676 39.3338 273.654C39.9938 273.412 40.7198 273.148 41.4238 272.884V278.406C41.4238 278.956 41.2918 279.132 40.6758 279.132C40.3018 279.132 39.8398 279.066 39.5758 279.022C39.5098 279 39.4218 279 39.3558 279C39.0478 279 38.8058 279.176 38.7398 279.572C38.7178 279.66 38.7178 279.726 38.7178 279.814C38.7178 280.166 38.8938 280.43 39.2678 280.518C39.7078 280.628 40.2578 280.672 40.8518 280.672C42.3918 280.672 43.0298 280.144 43.0298 278.714V272.224C43.7558 271.938 44.4378 271.63 45.0318 271.322C45.3178 271.19 45.4498 270.926 45.4498 270.662C45.4498 270.552 45.4278 270.42 45.3618 270.288C45.2298 269.98 45.0318 269.826 44.7898 269.826C44.7018 269.826 44.5918 269.848 44.4818 269.892C44.0418 270.112 43.5578 270.332 43.0298 270.552V266.24H44.7678C45.1858 266.24 45.3838 265.91 45.3838 265.47C45.3838 265.03 45.1858 264.722 44.7678 264.722H43.0298ZM65.5798 261.4C65.5578 261.4 65.5358 261.4 65.5358 261.4C64.9638 261.4 64.6118 261.752 64.5898 262.324C64.4358 265.558 64.3258 269.628 64.3258 273.038C64.3258 275.832 64.7878 277.262 65.7998 278.252C66.8778 279.286 68.4178 279.77 70.4858 279.77C72.7518 279.77 74.8198 279.022 76.4478 277.438C77.7678 276.162 78.6918 274.38 79.3738 272.158C79.4178 272.026 79.4398 271.894 79.4398 271.784C79.4398 271.344 79.1538 270.992 78.7578 270.882C78.6478 270.838 78.5158 270.816 78.4058 270.816C78.0318 270.816 77.7238 271.058 77.5698 271.564C77.0418 273.39 76.2278 274.93 75.2378 275.942C73.9398 277.284 72.2238 277.834 70.5298 277.834C69.0118 277.834 67.9118 277.592 67.1858 276.91C66.4818 276.228 66.2178 275.084 66.2178 273.016C66.2178 269.496 66.3938 265.602 66.5038 262.368C66.5038 262.346 66.5038 262.324 66.5038 262.302C66.5038 261.752 66.1958 261.422 65.5798 261.4ZM91.4738 267.956C90.8358 266.108 90.3738 263.974 89.9998 261.884C89.9338 261.378 89.5598 261.136 89.1198 261.136C89.0318 261.136 88.9658 261.136 88.8778 261.158C88.4378 261.246 88.0858 261.532 88.0858 262.016C88.0858 262.082 88.0858 262.148 88.1078 262.214C88.5258 264.436 89.0538 266.724 89.7138 268.704C86.5458 270.244 84.6978 272.4 84.6978 274.622C84.6978 277.944 87.1838 279.44 92.5738 279.418C95.1478 279.418 97.5458 279.264 99.2398 278.89C99.7678 278.78 100.076 278.406 100.076 277.944C100.076 277.856 100.076 277.79 100.054 277.702C99.9878 277.196 99.6578 276.91 99.1738 276.91C99.0858 276.91 98.9978 276.91 98.9098 276.932C97.2378 277.284 94.8178 277.526 92.6618 277.526C87.9978 277.526 86.5898 276.558 86.5898 274.644C86.5898 273.038 88.0858 271.388 90.9458 270.09C93.2778 269.034 96.4018 268.022 98.6898 267.45C99.1958 267.318 99.4378 266.988 99.4378 266.592C99.4378 266.482 99.4158 266.372 99.3938 266.262C99.2618 265.822 98.9758 265.602 98.5358 265.602C98.4258 265.602 98.3158 265.624 98.1838 265.646C96.2258 266.152 93.6518 267.032 91.4738 267.956ZM109.58 261.4C109.558 261.4 109.536 261.4 109.536 261.4C108.964 261.4 108.612 261.752 108.59 262.324C108.436 265.558 108.326 269.628 108.326 273.038C108.326 275.832 108.788 277.262 109.8 278.252C110.878 279.286 112.418 279.77 114.486 279.77C116.752 279.77 118.82 279.022 120.448 277.438C121.768 276.162 122.692 274.38 123.374 272.158C123.418 272.026 123.44 271.894 123.44 271.784C123.44 271.344 123.154 270.992 122.758 270.882C122.648 270.838 122.516 270.816 122.406 270.816C122.032 270.816 121.724 271.058 121.57 271.564C121.042 273.39 120.228 274.93 119.238 275.942C117.94 277.284 116.224 277.834 114.53 277.834C113.012 277.834 111.912 277.592 111.186 276.91C110.482 276.228 110.218 275.084 110.218 273.016C110.218 269.496 110.394 265.602 110.504 262.368C110.504 262.346 110.504 262.324 110.504 262.302C110.504 261.752 110.196 261.422 109.58 261.4ZM138.376 264.458C134.13 265.976 131.798 268.99 131.798 272.312C131.798 275.106 133.316 277.108 135.582 278.208C136.968 278.868 138.706 279.22 140.532 279.22C141.192 279.22 141.544 278.868 141.588 278.23C141.588 278.186 141.588 278.164 141.588 278.12C141.588 277.614 141.258 277.218 140.62 277.218C139.146 277.196 137.672 276.954 136.506 276.404C134.922 275.678 133.69 274.358 133.69 272.158C133.69 268.616 137.012 265.448 141.764 264.656C142.27 264.568 142.622 264.524 142.996 264.48C143.634 264.414 143.854 263.996 143.854 263.534C143.854 263.512 143.854 263.49 143.854 263.468C143.81 262.962 143.524 262.61 142.908 262.61C142.886 262.61 142.864 262.61 142.842 262.61C137.518 262.852 131.71 263.226 126.342 263.644C125.858 263.688 125.528 264.084 125.528 264.568C125.528 264.59 125.528 264.612 125.528 264.656C125.572 265.162 125.902 265.492 126.474 265.492C126.518 265.492 126.54 265.492 126.584 265.492C129.378 265.272 132.458 264.986 135.604 264.722C136.33 264.656 137.276 264.546 138.354 264.326L138.376 264.458ZM156.64 264.238C160.534 264.37 162.976 267.076 162.976 270.794C162.976 273.104 161.964 274.886 160.578 275.92C159.478 276.734 157.784 277.284 156.178 277.504C155.672 277.592 155.386 277.922 155.386 278.362C155.386 278.428 155.386 278.516 155.408 278.582C155.496 279.132 155.87 279.352 156.332 279.352C156.398 279.352 156.486 279.352 156.574 279.33C158.334 279.066 159.918 278.56 161.194 277.746C163.482 276.294 164.824 273.94 164.824 270.838C164.824 265.998 161.392 262.61 156.2 262.61C150.194 262.61 146.366 266.57 146.366 272.048C146.366 275.744 148.192 277.966 150.48 277.966C151.382 277.966 152.306 277.68 153.01 276.998C153.78 276.272 154.418 275.282 155.188 273.016C155.958 270.662 156.442 267.582 156.64 264.238ZM154.814 264.304C154.66 267.318 154.11 270.332 153.428 272.4C152.9 274.006 152.394 274.952 151.91 275.414C151.448 275.876 150.942 276.052 150.436 276.052C149.27 276.052 148.148 274.666 148.148 272.026C148.148 267.758 150.788 264.678 154.814 264.304ZM181.236 264.546C181.786 264.546 182.028 264.7 182.028 265.03C182.028 265.162 181.984 265.316 181.918 265.514C181.06 267.978 179.234 270.552 176.946 272.664C174.592 274.82 171.798 276.404 169.136 277.416C168.718 277.57 168.476 277.966 168.476 278.362C168.476 278.494 168.498 278.626 168.542 278.736C168.674 279.11 168.982 279.286 169.356 279.286C169.532 279.286 169.708 279.242 169.884 279.176C173.294 277.9 176.748 275.766 179.19 273.082C181.632 274.996 183.348 276.646 184.998 278.626C185.218 278.868 185.504 278.978 185.79 278.978C186.076 278.978 186.362 278.868 186.56 278.648C186.736 278.45 186.846 278.208 186.846 277.944C186.846 277.68 186.736 277.416 186.538 277.174C184.69 275.04 182.886 273.61 180.422 271.696C181.962 269.804 183.194 267.934 183.92 265.976C184.074 265.514 184.162 265.074 184.162 264.7C184.162 264.26 184.052 263.908 183.876 263.6C183.48 263.028 182.864 262.72 181.918 262.72L170.72 262.83C170.214 262.83 169.906 263.182 169.906 263.71C169.906 264.304 170.192 264.678 170.72 264.678L181.236 264.546ZM199.298 273.038L200.662 279.374C200.772 279.836 201.08 280.056 201.476 280.056C201.586 280.056 201.696 280.034 201.828 280.012C202.29 279.902 202.532 279.66 202.532 279.242C202.532 279.176 202.532 279.088 202.51 279L201.146 272.73L208.032 271.63C208.45 271.564 208.692 271.234 208.692 270.816C208.692 270.75 208.692 270.684 208.67 270.618C208.604 270.178 208.296 269.87 207.878 269.87C207.834 269.87 207.768 269.87 207.724 269.892L200.772 271.014L199.826 266.68L206.426 265.624C206.8 265.558 207.02 265.272 207.02 264.898C207.02 264.81 207.02 264.744 206.998 264.656C206.888 264.238 206.624 263.908 206.228 263.908C206.184 263.908 206.162 263.908 206.118 263.908L199.452 264.986L198.77 261.884C198.66 261.4 198.396 261.202 198 261.202C197.912 261.202 197.824 261.202 197.714 261.224C197.23 261.334 196.944 261.598 196.944 262.016C196.944 262.082 196.944 262.17 196.966 262.236L197.626 265.272L191.268 266.284C190.894 266.35 190.652 266.702 190.652 267.098C190.652 267.164 190.652 267.23 190.674 267.296C190.74 267.736 191.048 268 191.444 268C191.488 268 191.532 268 191.576 268L197.978 266.966L198.924 271.322L191.29 272.554C190.916 272.62 190.674 272.972 190.674 273.39C190.674 273.456 190.674 273.522 190.696 273.588C190.762 274.006 191.114 274.27 191.51 274.27C191.554 274.27 191.598 274.27 191.642 274.27L199.298 273.038Z" fill="#FFA5BD"/>
<path d="M251.948 69.834H249.66C249.154 69.834 248.912 70.164 248.912 70.626C248.912 71.11 249.176 71.418 249.66 71.418H251.706L251.112 75.312H248.824C248.296 75.312 248.054 75.642 248.054 76.126C248.054 76.588 248.318 76.896 248.824 76.896H250.87L250.166 81.472C250.144 81.538 250.144 81.582 250.144 81.648C250.144 82.088 250.452 82.264 250.848 82.286C250.892 82.286 250.936 82.286 251.002 82.286C251.442 82.286 251.728 82.088 251.794 81.604L252.542 76.896H255.336L254.61 81.472C254.588 81.538 254.588 81.604 254.588 81.648C254.588 82.088 254.874 82.264 255.314 82.286C255.358 82.286 255.402 82.286 255.468 82.286C255.908 82.286 256.15 82.088 256.238 81.604L256.986 76.896H259.23C259.714 76.896 259.956 76.588 259.956 76.126C259.956 75.62 259.736 75.312 259.23 75.312H257.228L257.822 71.418H260.066C260.528 71.418 260.814 71.11 260.814 70.626C260.814 70.142 260.572 69.834 260.066 69.834H258.086L258.702 65.676C258.724 65.61 258.724 65.566 258.724 65.5C258.724 65.082 258.438 64.906 258.02 64.884C257.976 64.884 257.932 64.884 257.888 64.884C257.448 64.884 257.14 65.082 257.052 65.566L256.392 69.834H253.62L254.28 65.676C254.302 65.61 254.302 65.566 254.302 65.5C254.302 65.082 253.994 64.906 253.576 64.884C253.532 64.884 253.488 64.884 253.444 64.884C253.004 64.884 252.696 65.082 252.63 65.566L251.948 69.834ZM252.784 75.312L253.378 71.418H256.172L255.578 75.312H252.784ZM281.484 66.226C281.858 66.226 282.056 65.962 282.056 65.588C282.056 65.214 281.858 64.928 281.484 64.928H275.962V63.894C275.962 63.52 275.654 63.322 275.148 63.322C274.642 63.322 274.334 63.52 274.334 63.894V64.928H269.428C269.054 64.928 268.856 65.214 268.856 65.588C268.856 65.962 269.054 66.226 269.428 66.226H271.122C271.452 66.886 271.716 67.612 271.914 68.316H269.318C268.944 68.316 268.746 68.58 268.746 68.976C268.746 69.35 268.944 69.636 269.318 69.636H282.144C282.518 69.636 282.716 69.35 282.716 68.976C282.716 68.58 282.518 68.316 282.144 68.316H278.426C278.756 67.634 279.064 66.952 279.284 66.226H281.484ZM277.678 66.226C277.458 66.952 277.15 67.656 276.776 68.316H273.454C273.256 67.612 272.992 66.908 272.728 66.226H277.678ZM274.4 77.512V79.03H269.054C268.702 79.03 268.526 79.294 268.526 79.668C268.526 80.042 268.702 80.328 269.054 80.328H274.4V82H267.888C267.536 82 267.36 82.242 267.36 82.638C267.36 83.034 267.536 83.342 267.888 83.342H282.21C282.562 83.342 282.76 83.034 282.76 82.638C282.76 82.242 282.562 82 282.21 82H275.896V80.328H281.396C281.726 80.328 281.902 80.042 281.902 79.668C281.902 79.294 281.726 79.03 281.396 79.03H275.896V77.512H279.68C280.824 77.512 281.374 77.094 281.374 75.928V72.408C281.374 71.242 280.824 70.824 279.68 70.824H270.748C269.604 70.824 269.054 71.242 269.054 72.408V75.928C269.054 77.094 269.604 77.512 270.748 77.512H274.4ZM274.4 72.012V73.574H270.572V72.496C270.572 72.122 270.77 72.012 271.144 72.012H274.4ZM275.896 72.012H279.284C279.658 72.012 279.856 72.122 279.856 72.496V73.574H275.896V72.012ZM274.4 74.718V76.324H271.144C270.77 76.324 270.572 76.214 270.572 75.84V74.718H274.4ZM275.896 74.718H279.856V75.84C279.856 76.214 279.658 76.324 279.284 76.324H275.896V74.718ZM266.282 64.004C266.282 63.586 265.974 63.366 265.468 63.366C264.984 63.366 264.698 63.586 264.698 64.004V83.188C264.698 83.606 264.984 83.826 265.468 83.826C265.974 83.826 266.282 83.606 266.282 83.188V64.004ZM263.466 67.568C263.444 67.568 263.422 67.568 263.4 67.568C263.026 67.568 262.74 67.744 262.74 68.118C262.652 69.746 262.41 71.418 262.014 72.738C261.97 72.848 261.948 72.958 261.948 73.046C261.948 73.332 262.124 73.508 262.41 73.596C262.498 73.618 262.608 73.64 262.696 73.64C263.004 73.64 263.246 73.464 263.356 73.134C263.752 71.726 264.016 69.878 264.104 68.228C264.104 68.206 264.104 68.206 264.104 68.184C264.104 67.766 263.818 67.59 263.466 67.568ZM267.272 67.546C266.964 67.59 266.81 67.832 266.81 68.096C266.81 68.162 266.81 68.228 266.832 68.294C267.074 69.174 267.294 70.274 267.382 71.198C267.426 71.55 267.668 71.704 267.976 71.704C268.042 71.704 268.086 71.704 268.152 71.682C268.46 71.638 268.658 71.418 268.658 71.088C268.658 71.066 268.658 71.022 268.658 70.978C268.57 70.032 268.328 68.844 268.042 67.964C267.954 67.678 267.734 67.524 267.47 67.524C267.404 67.524 267.338 67.524 267.272 67.546ZM290.988 69.262C291.208 69.064 291.318 68.822 291.318 68.58C291.318 68.206 291.01 67.898 290.504 67.898C290.482 67.898 290.46 67.898 290.438 67.898C290.482 66.82 290.526 65.808 290.592 64.752C290.592 64.73 290.592 64.708 290.592 64.708C290.592 64.158 290.262 63.894 289.756 63.894C289.734 63.894 289.712 63.894 289.69 63.894C289.162 63.894 288.832 64.18 288.832 64.73C288.788 65.874 288.744 66.974 288.722 68.008C287.644 68.096 286.478 68.162 285.356 68.272C284.96 68.316 284.674 68.69 284.674 69.174C284.674 69.218 284.674 69.24 284.674 69.284C284.696 69.702 285.026 70.01 285.466 70.01C285.488 70.01 285.532 70.01 285.554 70.01C286.632 69.9 287.732 69.812 288.678 69.724C288.634 70.956 288.612 72.056 288.59 73.222C287.16 74.762 285.796 76.478 284.652 77.93C284.498 78.128 284.41 78.37 284.41 78.59C284.41 78.832 284.52 79.074 284.718 79.25C284.894 79.404 285.114 79.492 285.312 79.492C285.576 79.492 285.818 79.382 286.038 79.096C286.61 78.326 287.336 77.446 287.974 76.544C288.194 76.236 288.414 75.95 288.656 75.466C288.568 76.346 288.546 77.006 288.546 77.556C288.546 77.93 288.546 78.37 288.546 78.854C288.546 80.02 288.568 81.384 288.568 82.638C288.568 83.122 288.986 83.408 289.448 83.408C289.47 83.408 289.47 83.408 289.492 83.408C290.042 83.408 290.372 83.1 290.372 82.616C290.35 80.504 290.306 78.458 290.306 76.412C290.306 75.554 290.306 74.718 290.328 73.86C291.296 72.782 292.418 71.638 293.254 70.934C295.036 69.46 296.312 68.756 297.588 68.756C298.666 68.756 299.238 69.372 299.238 70.472C299.238 71.286 299.084 72.342 298.776 73.926C298.314 76.258 298.138 77.842 298.138 78.876C298.138 80.988 299.37 81.956 301.042 81.956C302.802 81.956 304.056 80.988 304.914 78.304C304.958 78.172 304.98 78.04 304.98 77.93C304.98 77.578 304.782 77.292 304.408 77.16C304.298 77.116 304.166 77.094 304.056 77.094C303.704 77.094 303.418 77.314 303.286 77.71C302.67 79.536 302.032 80.086 301.174 80.086C300.426 80.086 299.986 79.712 299.986 78.634C299.986 77.776 300.206 76.28 300.668 73.838C300.976 72.21 301.108 71.264 301.108 70.12C301.108 68.316 299.898 67.062 297.852 67.062C296.246 67.062 294.728 67.81 292.858 69.284C292.242 69.768 291.538 70.428 290.944 71.022C290.702 71.264 290.438 71.594 290.24 71.858C290.306 71.484 290.328 71.22 290.35 70.868C290.35 70.604 290.35 70.208 290.372 69.812L290.988 69.262ZM315.474 70.956C314.836 69.108 314.374 66.974 314 64.884C313.934 64.378 313.56 64.136 313.12 64.136C313.032 64.136 312.966 64.136 312.878 64.158C312.438 64.246 312.086 64.532 312.086 65.016C312.086 65.082 312.086 65.148 312.108 65.214C312.526 67.436 313.054 69.724 313.714 71.704C310.546 73.244 308.698 75.4 308.698 77.622C308.698 80.944 311.184 82.44 316.574 82.418C319.148 82.418 321.546 82.264 323.24 81.89C323.768 81.78 324.076 81.406 324.076 80.944C324.076 80.856 324.076 80.79 324.054 80.702C323.988 80.196 323.658 79.91 323.174 79.91C323.086 79.91 322.998 79.91 322.91 79.932C321.238 80.284 318.818 80.526 316.662 80.526C311.998 80.526 310.59 79.558 310.59 77.644C310.59 76.038 312.086 74.388 314.946 73.09C317.278 72.034 320.402 71.022 322.69 70.45C323.196 70.318 323.438 69.988 323.438 69.592C323.438 69.482 323.416 69.372 323.394 69.262C323.262 68.822 322.976 68.602 322.536 68.602C322.426 68.602 322.316 68.624 322.184 68.646C320.226 69.152 317.652 70.032 315.474 70.956ZM333.58 64.4C333.558 64.4 333.536 64.4 333.536 64.4C332.964 64.4 332.612 64.752 332.59 65.324C332.436 68.558 332.326 72.628 332.326 76.038C332.326 78.832 332.788 80.262 333.8 81.252C334.878 82.286 336.418 82.77 338.486 82.77C340.752 82.77 342.82 82.022 344.448 80.438C345.768 79.162 346.692 77.38 347.374 75.158C347.418 75.026 347.44 74.894 347.44 74.784C347.44 74.344 347.154 73.992 346.758 73.882C346.648 73.838 346.516 73.816 346.406 73.816C346.032 73.816 345.724 74.058 345.57 74.564C345.042 76.39 344.228 77.93 343.238 78.942C341.94 80.284 340.224 80.834 338.53 80.834C337.012 80.834 335.912 80.592 335.186 79.91C334.482 79.228 334.218 78.084 334.218 76.016C334.218 72.496 334.394 68.602 334.504 65.368C334.504 65.346 334.504 65.324 334.504 65.302C334.504 64.752 334.196 64.422 333.58 64.4ZM362.376 67.458C358.13 68.976 355.798 71.99 355.798 75.312C355.798 78.106 357.316 80.108 359.582 81.208C360.968 81.868 362.706 82.22 364.532 82.22C365.192 82.22 365.544 81.868 365.588 81.23C365.588 81.186 365.588 81.164 365.588 81.12C365.588 80.614 365.258 80.218 364.62 80.218C363.146 80.196 361.672 79.954 360.506 79.404C358.922 78.678 357.69 77.358 357.69 75.158C357.69 71.616 361.012 68.448 365.764 67.656C366.27 67.568 366.622 67.524 366.996 67.48C367.634 67.414 367.854 66.996 367.854 66.534C367.854 66.512 367.854 66.49 367.854 66.468C367.81 65.962 367.524 65.61 366.908 65.61C366.886 65.61 366.864 65.61 366.842 65.61C361.518 65.852 355.71 66.226 350.342 66.644C349.858 66.688 349.528 67.084 349.528 67.568C349.528 67.59 349.528 67.612 349.528 67.656C349.572 68.162 349.902 68.492 350.474 68.492C350.518 68.492 350.54 68.492 350.584 68.492C353.378 68.272 356.458 67.986 359.604 67.722C360.33 67.656 361.276 67.546 362.354 67.326L362.376 67.458ZM380.64 67.238C384.534 67.37 386.976 70.076 386.976 73.794C386.976 76.104 385.964 77.886 384.578 78.92C383.478 79.734 381.784 80.284 380.178 80.504C379.672 80.592 379.386 80.922 379.386 81.362C379.386 81.428 379.386 81.516 379.408 81.582C379.496 82.132 379.87 82.352 380.332 82.352C380.398 82.352 380.486 82.352 380.574 82.33C382.334 82.066 383.918 81.56 385.194 80.746C387.482 79.294 388.824 76.94 388.824 73.838C388.824 68.998 385.392 65.61 380.2 65.61C374.194 65.61 370.366 69.57 370.366 75.048C370.366 78.744 372.192 80.966 374.48 80.966C375.382 80.966 376.306 80.68 377.01 79.998C377.78 79.272 378.418 78.282 379.188 76.016C379.958 73.662 380.442 70.582 380.64 67.238ZM378.814 67.304C378.66 70.318 378.11 73.332 377.428 75.4C376.9 77.006 376.394 77.952 375.91 78.414C375.448 78.876 374.942 79.052 374.436 79.052C373.27 79.052 372.148 77.666 372.148 75.026C372.148 70.758 374.788 67.678 378.814 67.304ZM405.236 67.546C405.786 67.546 406.028 67.7 406.028 68.03C406.028 68.162 405.984 68.316 405.918 68.514C405.06 70.978 403.234 73.552 400.946 75.664C398.592 77.82 395.798 79.404 393.136 80.416C392.718 80.57 392.476 80.966 392.476 81.362C392.476 81.494 392.498 81.626 392.542 81.736C392.674 82.11 392.982 82.286 393.356 82.286C393.532 82.286 393.708 82.242 393.884 82.176C397.294 80.9 400.748 78.766 403.19 76.082C405.632 77.996 407.348 79.646 408.998 81.626C409.218 81.868 409.504 81.978 409.79 81.978C410.076 81.978 410.362 81.868 410.56 81.648C410.736 81.45 410.846 81.208 410.846 80.944C410.846 80.68 410.736 80.416 410.538 80.174C408.69 78.04 406.886 76.61 404.422 74.696C405.962 72.804 407.194 70.934 407.92 68.976C408.074 68.514 408.162 68.074 408.162 67.7C408.162 67.26 408.052 66.908 407.876 66.6C407.48 66.028 406.864 65.72 405.918 65.72L394.72 65.83C394.214 65.83 393.906 66.182 393.906 66.71C393.906 67.304 394.192 67.678 394.72 67.678L405.236 67.546ZM423.298 76.038L424.662 82.374C424.772 82.836 425.08 83.056 425.476 83.056C425.586 83.056 425.696 83.034 425.828 83.012C426.29 82.902 426.532 82.66 426.532 82.242C426.532 82.176 426.532 82.088 426.51 82L425.146 75.73L432.032 74.63C432.45 74.564 432.692 74.234 432.692 73.816C432.692 73.75 432.692 73.684 432.67 73.618C432.604 73.178 432.296 72.87 431.878 72.87C431.834 72.87 431.768 72.87 431.724 72.892L424.772 74.014L423.826 69.68L430.426 68.624C430.8 68.558 431.02 68.272 431.02 67.898C431.02 67.81 431.02 67.744 430.998 67.656C430.888 67.238 430.624 66.908 430.228 66.908C430.184 66.908 430.162 66.908 430.118 66.908L423.452 67.986L422.77 64.884C422.66 64.4 422.396 64.202 422 64.202C421.912 64.202 421.824 64.202 421.714 64.224C421.23 64.334 420.944 64.598 420.944 65.016C420.944 65.082 420.944 65.17 420.966 65.236L421.626 68.272L415.268 69.284C414.894 69.35 414.652 69.702 414.652 70.098C414.652 70.164 414.652 70.23 414.674 70.296C414.74 70.736 415.048 71 415.444 71C415.488 71 415.532 71 415.576 71L421.978 69.966L422.924 74.322L415.29 75.554C414.916 75.62 414.674 75.972 414.674 76.39C414.674 76.456 414.674 76.522 414.696 76.588C414.762 77.006 415.114 77.27 415.51 77.27C415.554 77.27 415.598 77.27 415.642 77.27L423.298 76.038Z" fill="#FFA5BD"/>
</svg>
