<svg width="460" height="402" viewBox="0 0 460 402" fill="none" xmlns="http://www.w3.org/2000/svg">
<rect x="4" y="4" width="452" height="394" rx="33" fill="white" stroke="#8CE3FF" stroke-width="8"/>
<path d="M44.6718 313.08C45.1478 311.428 46.6598 309.608 49.2638 308.068L50.7198 307.172C53.4358 305.548 54.6398 304.232 54.6398 301.684C54.6398 298.604 52.3158 296.784 48.7038 296.784C45.2598 296.784 43.0478 298.352 42.2638 301.348C42.2358 301.488 42.2078 301.628 42.2078 301.74C42.2078 302.3 42.6278 302.664 43.1878 302.832C43.3278 302.86 43.4398 302.86 43.5798 302.86C44.1118 302.86 44.5878 302.608 44.7558 302.02C45.2598 300.004 46.4078 298.996 48.5918 298.996C50.6358 298.996 52.0078 299.976 52.0078 301.572C52.0078 303.252 51.3918 304.064 48.7598 305.688L47.2198 306.668C43.1878 309.188 41.9838 312.464 41.9838 313.864C41.9838 314.872 42.4598 315.348 43.4118 315.348H54.0518C54.6678 315.348 55.0318 314.844 55.0318 314.2C55.0318 313.584 54.6958 313.08 54.0518 313.08H44.6718ZM48.4238 292.948C41.0038 292.948 35.0118 298.94 35.0118 306.36C35.0118 313.78 41.0038 319.772 48.4238 319.772C55.8438 319.772 61.8358 313.78 61.8358 306.36C61.8358 298.94 55.8438 292.948 48.4238 292.948ZM48.4238 294.208C55.1438 294.208 60.5758 299.64 60.5758 306.36C60.5758 313.08 55.1438 318.512 48.4238 318.512C41.7038 318.512 36.2718 313.08 36.2718 306.36C36.2718 299.64 41.7038 294.208 48.4238 294.208ZM88.7438 305.268C89.2478 305.268 89.5278 304.82 89.5278 304.232C89.5278 303.672 89.2478 303.224 88.7438 303.224H71.4958C70.9638 303.224 70.7118 303.672 70.7118 304.232C70.7118 304.82 70.9638 305.268 71.4958 305.268H76.8438C76.3678 307.06 75.8078 308.824 75.1358 310.56C74.5198 312.268 73.8478 314.032 72.9798 315.628C72.4198 315.684 71.8598 315.712 71.3278 315.74C70.7678 315.768 70.4598 316.104 70.4598 316.748C70.4598 316.776 70.4598 316.804 70.4598 316.832C70.5438 317.532 70.9078 317.896 71.5518 317.896C71.5518 317.896 71.5798 317.896 71.6078 317.896C76.1438 317.532 81.2958 316.776 86.1398 315.74C86.5038 316.524 86.8398 317.28 87.1478 318.008C87.2878 318.372 87.5958 318.54 87.9878 318.54C88.1838 318.54 88.4078 318.484 88.6318 318.372C88.9958 318.204 89.2198 317.868 89.2198 317.448C89.2198 317.28 89.1918 317.112 89.1078 316.916C87.9598 314.34 85.8878 310.644 84.2638 308.32C84.0958 308.04 83.7878 307.9 83.4518 307.9C83.2558 307.9 83.0318 307.956 82.8358 308.068C82.4998 308.264 82.3318 308.544 82.3318 308.852C82.3318 309.048 82.3878 309.216 82.4998 309.384C83.4518 310.756 84.4038 312.352 85.2438 313.976C81.9958 314.648 78.6918 315.096 75.4158 315.432C76.3118 313.528 77.0678 311.54 77.7958 309.552C78.2998 308.152 78.7758 306.724 79.1958 305.268H88.7438ZM66.6518 318.568C66.6518 319.1 67.1278 319.38 67.7438 319.38C68.4158 319.38 68.8358 319.1 68.8358 318.568V300.368C69.7598 298.576 70.6838 296.336 71.1598 294.544C71.1878 294.432 71.2158 294.32 71.2158 294.208C71.2158 293.76 70.9358 293.424 70.3758 293.312C70.2358 293.284 70.0958 293.256 69.9558 293.256C69.4798 293.256 69.1438 293.508 69.0038 293.984C67.9398 297.988 65.8678 302.02 63.2918 304.96C63.0958 305.212 62.9838 305.492 62.9838 305.772C62.9838 306.08 63.1238 306.36 63.3758 306.584C63.5998 306.78 63.8518 306.892 64.1318 306.892C64.4398 306.892 64.7758 306.724 65.0278 306.416C65.6718 305.632 66.3438 304.596 66.9038 303.56C66.7358 304.792 66.6518 306.08 66.6518 307.228V318.568ZM87.0078 297.68C87.5118 297.68 87.7918 297.204 87.7918 296.616C87.7918 296.084 87.5118 295.608 87.0078 295.608H73.3998C72.8958 295.608 72.6158 296.084 72.6158 296.616C72.6158 297.204 72.8958 297.68 73.3998 297.68H87.0078ZM99.0758 294.292C98.9638 294.264 98.8518 294.264 98.7678 294.264C98.2638 294.264 97.8998 294.572 97.7318 295.076C97.6758 295.244 97.6478 295.384 97.6478 295.524C97.6478 296 97.9278 296.364 98.4038 296.476C101.484 297.176 106.412 297.848 109.828 298.016C109.856 298.016 109.884 298.016 109.912 298.016C110.64 298.016 111.06 297.652 111.116 296.98C111.116 296.924 111.116 296.896 111.116 296.84C111.116 296.252 110.78 295.804 109.996 295.748C106.664 295.58 102.044 294.964 99.0758 294.292ZM102.828 309.244C103.584 308.74 104.312 308.208 105.124 307.536C106.776 306.136 108.652 304.54 110.332 302.972C110.724 302.608 110.92 302.216 110.92 301.796C110.92 301.572 110.864 301.32 110.724 301.068C110.444 300.592 110.024 300.396 109.324 300.396C109.24 300.396 109.128 300.396 109.044 300.396C104.984 300.816 99.3278 301.18 95.7718 301.236C95.2118 301.236 94.8198 301.768 94.8198 302.384C94.8198 302.412 94.8198 302.412 94.8198 302.44C94.8478 303.084 95.2678 303.56 95.9398 303.588C99.3278 303.504 104.452 303.084 107.7 302.552C106.076 303.896 103.724 306.024 101.4 308.096C98.4878 310.756 95.5758 313.444 93.5318 315.348C93.1958 315.656 93.0558 316.02 93.0558 316.384C93.0558 316.692 93.1958 317 93.4198 317.224C93.6438 317.476 93.9518 317.588 94.2598 317.588C94.5958 317.588 94.9318 317.448 95.2678 317.14C96.6118 315.88 98.1238 314.396 99.4398 313.164C101.512 311.232 103.472 310.364 104.816 310.364C105.768 310.364 106.3 310.784 106.412 312.884C106.608 316.664 107.616 317.812 111.06 317.812C112.824 317.812 114.952 317.392 116.352 316.72C116.884 316.468 117.108 316.048 117.108 315.572C117.108 315.404 117.08 315.236 116.996 315.04C116.8 314.592 116.436 314.368 116.016 314.368C115.82 314.368 115.624 314.424 115.428 314.508C114.196 315.096 112.684 315.572 111.228 315.572C109.296 315.572 108.792 315.04 108.624 312.184C108.456 309.496 107.616 308.572 105.852 308.572C105.068 308.572 104.06 308.768 102.968 309.44L102.828 309.244ZM128.076 305.24C128.86 304.792 129.812 304.148 130.596 303.616C132.864 302.104 135.496 300.088 137.904 297.848C138.268 297.484 138.436 297.092 138.436 296.7C138.436 296.392 138.352 296.14 138.212 295.888C137.932 295.412 137.456 295.188 136.812 295.188C136.728 295.188 136.644 295.188 136.56 295.188C132.836 295.44 128.048 295.58 124.268 295.58C123.624 295.58 123.288 296.084 123.288 296.728C123.288 297.4 123.736 297.82 124.324 297.82C127.908 297.792 132.192 297.624 135.244 297.372C131.716 300.48 125.5 305.044 120.88 307.872C120.46 308.096 120.236 308.516 120.236 308.936C120.236 309.16 120.292 309.356 120.432 309.552C120.656 309.916 121.048 310.084 121.44 310.084C121.692 310.084 121.944 310.028 122.196 309.888C126.788 307.032 130.176 305.8 133.9 305.8C137.876 305.8 140.06 307.732 140.06 310.392C140.06 312.996 137.932 314.76 135.076 315.432C134.6 311.736 132.108 309.916 129.084 309.916C126.34 309.916 124.52 311.512 124.52 313.696C124.52 316.3 127.208 318.036 131.352 318.036C138.184 318.036 142.468 315.068 142.468 310.364C142.468 306.556 139.388 303.896 134.348 303.896C132.36 303.896 130.316 304.372 128.132 305.352L128.076 305.24ZM132.892 315.936C132.22 315.992 131.52 315.992 130.848 315.992C128.356 315.964 126.676 314.9 126.676 313.612C126.676 312.576 127.516 311.82 128.972 311.82C130.904 311.82 132.668 313.192 132.892 315.936ZM159.548 303C160.864 310.112 165.316 315.208 170.244 318.204C170.496 318.344 170.776 318.428 171.028 318.428C171.42 318.428 171.784 318.26 172.064 317.84C172.204 317.588 172.288 317.308 172.288 317.056C172.288 316.636 172.12 316.244 171.784 316.076C168.06 314.004 164.924 310.7 163.272 307.396C161.424 303.728 160.668 300.704 160.668 294.572C160.668 293.956 160.136 293.62 159.492 293.62C158.764 293.62 158.232 293.956 158.232 294.572C158.232 300.76 157.476 303.924 155.712 307.648C154.144 311.008 151.288 314.144 147.48 316.16C147.032 316.384 146.808 316.776 146.808 317.196C146.808 317.42 146.892 317.672 147.032 317.924C147.256 318.372 147.648 318.568 148.068 318.568C148.32 318.568 148.572 318.484 148.824 318.344C154.144 315.068 158.092 310.588 159.548 303ZM188.836 298.212C193.792 298.38 196.9 301.824 196.9 306.556C196.9 309.496 195.612 311.764 193.848 313.08C192.448 314.116 190.292 314.816 188.248 315.096C187.604 315.208 187.24 315.628 187.24 316.188C187.24 316.272 187.24 316.384 187.268 316.468C187.38 317.168 187.856 317.448 188.444 317.448C188.528 317.448 188.64 317.448 188.752 317.42C190.992 317.084 193.008 316.44 194.632 315.404C197.544 313.556 199.252 310.56 199.252 306.612C199.252 300.452 194.884 296.14 188.276 296.14C180.632 296.14 175.76 301.18 175.76 308.152C175.76 312.856 178.084 315.684 180.996 315.684C182.144 315.684 183.32 315.32 184.216 314.452C185.196 313.528 186.008 312.268 186.988 309.384C187.968 306.388 188.584 302.468 188.836 298.212ZM186.512 298.296C186.316 302.132 185.616 305.968 184.748 308.6C184.076 310.644 183.432 311.848 182.816 312.436C182.228 313.024 181.584 313.248 180.94 313.248C179.456 313.248 178.028 311.484 178.028 308.124C178.028 302.692 181.388 298.772 186.512 298.296ZM209.892 316.076C209.892 317.756 210.676 318.484 212.496 318.484H223.752C225.572 318.484 226.356 317.756 226.356 316.076V310.028C226.356 308.348 225.572 307.62 223.752 307.62H215.744C215.184 307.62 214.68 307.648 214.176 307.732C217.704 305.24 220.784 302.412 222.912 299.36C223.304 298.8 223.5 298.268 223.5 297.792C223.5 296.812 222.744 296.112 221.4 296.112H214.092C214.428 295.664 214.736 295.216 215.016 294.768C215.128 294.572 215.184 294.404 215.184 294.236C215.184 293.872 214.904 293.564 214.484 293.424C214.288 293.368 214.092 293.34 213.924 293.34C213.532 293.34 213.196 293.508 212.972 293.9C211.04 297.204 207.792 300.228 204.096 302.356C203.732 302.58 203.508 302.944 203.508 303.308C203.508 303.476 203.564 303.672 203.648 303.84C203.872 304.204 204.18 304.4 204.544 304.4C204.74 304.4 204.964 304.344 205.16 304.232C207.988 302.468 210.48 300.396 212.496 298.1H220.196C220.56 298.1 220.756 298.212 220.756 298.408C220.756 298.52 220.7 298.688 220.56 298.884C219.272 300.676 217.536 302.496 215.464 304.176C214.204 303 213.056 302.048 211.768 301.208C211.572 301.096 211.376 301.04 211.152 301.04C210.872 301.04 210.592 301.152 210.396 301.376C210.2 301.6 210.088 301.824 210.088 302.048C210.088 302.3 210.228 302.552 210.48 302.72C211.6 303.504 212.72 304.4 213.812 305.492C210.816 307.704 207.288 309.692 203.536 311.148C203.088 311.316 202.836 311.68 202.836 312.1C202.836 312.24 202.864 312.408 202.948 312.576C203.144 313.052 203.508 313.332 203.956 313.332C204.096 313.332 204.264 313.304 204.46 313.22C206.364 312.352 208.268 311.372 210.088 310.336C209.948 310.672 209.892 311.064 209.892 311.484V316.076ZM212.916 316.496C212.356 316.496 212.048 316.328 212.048 315.712V310.364C212.048 309.748 212.356 309.58 212.916 309.58H223.248C223.836 309.58 224.116 309.748 224.116 310.364V315.712C224.116 316.328 223.836 316.496 223.248 316.496H212.916ZM241.42 297.372C240.636 295.972 239.824 294.712 238.9 293.648C238.704 293.424 238.452 293.284 238.088 293.284C237.892 293.284 237.668 293.34 237.444 293.424C237.024 293.592 236.8 293.9 236.8 294.208C236.8 294.376 236.856 294.516 236.968 294.656C237.584 295.412 238.368 296.364 238.984 297.372H231.592C231.088 297.372 230.836 297.764 230.836 298.324C230.836 298.912 231.088 299.304 231.592 299.304H255.588C256.092 299.304 256.344 298.912 256.344 298.324C256.344 297.764 256.092 297.372 255.588 297.372H248.168C249.036 296.448 249.764 295.468 250.38 294.544C250.464 294.432 250.492 294.32 250.492 294.208C250.492 293.872 250.212 293.536 249.736 293.368C249.54 293.284 249.344 293.256 249.176 293.256C248.756 293.256 248.392 293.452 248.196 293.816C247.608 294.824 246.852 296.056 245.704 297.372H241.42ZM234.7 312.912H240.748V316.216C240.748 316.972 240.524 317.168 239.656 317.168C239.32 317.168 238.648 317.112 238.172 317C238.116 317 238.088 317 238.06 317C237.724 317 237.332 317.224 237.248 317.756C237.22 317.84 237.22 317.924 237.22 318.008C237.22 318.456 237.5 318.792 237.864 318.876C238.536 319.044 239.292 319.044 239.964 319.044C241.812 319.044 242.792 318.288 242.792 316.692V303.644C242.792 302.132 242.036 301.46 240.496 301.46H234.868C233.328 301.46 232.6 302.132 232.6 303.644V318.54C232.6 319.044 233.02 319.324 233.636 319.324C234.224 319.324 234.7 319.044 234.7 318.54V312.912ZM234.7 308.124H240.748V311.036H234.7V308.124ZM240.748 306.248H234.7V303.98C234.7 303.448 234.952 303.308 235.456 303.308H239.964C240.496 303.308 240.748 303.448 240.748 303.98V306.248ZM248.42 302.524C248.42 302.048 247.888 301.768 247.328 301.768C246.684 301.768 246.236 302.048 246.236 302.524V312.912C246.236 313.416 246.684 313.696 247.328 313.696C247.888 313.696 248.42 313.416 248.42 312.912V302.524ZM254.468 301.824C254.468 301.292 253.964 300.984 253.32 300.984C252.676 300.984 252.284 301.292 252.284 301.824V315.964C252.284 316.86 252.06 317.056 250.94 317.056C250.324 317.056 249.568 317 248.98 316.86C248.896 316.832 248.84 316.832 248.756 316.832C248.336 316.832 247.972 317.112 247.888 317.672C247.86 317.784 247.86 317.868 247.86 317.952C247.86 318.484 248.168 318.82 248.616 318.904C249.288 319.044 250.324 319.1 251.304 319.1C253.46 319.1 254.468 318.26 254.468 316.496V301.824ZM270.26 302.944C269.448 300.592 268.86 297.876 268.384 295.216C268.3 294.572 267.824 294.264 267.264 294.264C267.152 294.264 267.068 294.264 266.956 294.292C266.396 294.404 265.948 294.768 265.948 295.384C265.948 295.468 265.948 295.552 265.976 295.636C266.508 298.464 267.18 301.376 268.02 303.896C263.988 305.856 261.636 308.6 261.636 311.428C261.636 315.656 264.8 317.56 271.66 317.532C274.936 317.532 277.988 317.336 280.144 316.86C280.816 316.72 281.208 316.244 281.208 315.656C281.208 315.544 281.208 315.46 281.18 315.348C281.096 314.704 280.676 314.34 280.06 314.34C279.948 314.34 279.836 314.34 279.724 314.368C277.596 314.816 274.516 315.124 271.772 315.124C265.836 315.124 264.044 313.892 264.044 311.456C264.044 309.412 265.948 307.312 269.588 305.66C272.556 304.316 276.532 303.028 279.444 302.3C280.088 302.132 280.396 301.712 280.396 301.208C280.396 301.068 280.368 300.928 280.34 300.788C280.172 300.228 279.808 299.948 279.248 299.948C279.108 299.948 278.968 299.976 278.8 300.004C276.308 300.648 273.032 301.768 270.26 302.944ZM302.04 308.572C303.72 310.196 305.4 312.016 307.164 314.228C307.444 314.592 307.808 314.788 308.2 314.788C308.452 314.788 308.732 314.704 308.984 314.48C309.32 314.228 309.46 313.892 309.46 313.556C309.46 313.248 309.348 312.912 309.152 312.66C307.472 310.448 305.54 308.404 303.496 306.556C305.316 303.756 306.884 300.396 307.948 296.392C307.976 296.224 308.004 296.084 308.004 295.916C308.004 295.356 307.668 294.908 307.052 294.74C306.856 294.684 306.66 294.656 306.52 294.656C305.96 294.656 305.68 295.048 305.54 295.72C304.672 299.36 303.3 302.356 301.648 304.904C299.1 302.72 296.44 300.788 293.92 299.164C293.64 298.968 293.332 298.884 293.052 298.884C292.716 298.884 292.38 299.024 292.156 299.304C291.988 299.528 291.876 299.808 291.876 300.088C291.876 300.424 292.016 300.732 292.324 300.928C295.18 302.86 297.728 304.68 300.248 306.892C296.972 311.092 292.996 313.696 289.636 315.18C289.132 315.404 288.852 315.768 288.852 316.244C288.852 316.44 288.908 316.664 289.02 316.916C289.188 317.308 289.552 317.504 289.972 317.504C290.168 317.504 290.392 317.448 290.616 317.364C294.34 315.712 298.54 313.024 302.04 308.572ZM319.344 301.516C318.924 301.656 318.616 302.02 318.616 302.44C318.616 302.58 318.644 302.692 318.728 302.832C319.54 304.428 320.436 306.724 320.968 308.516C321.108 308.992 321.5 309.216 321.948 309.216C322.088 309.216 322.228 309.188 322.396 309.132C322.872 308.992 323.18 308.684 323.18 308.208C323.18 308.068 323.152 307.956 323.124 307.788C322.564 305.968 321.668 303.644 320.8 301.992C320.604 301.6 320.268 301.404 319.876 301.404C319.708 301.404 319.512 301.432 319.344 301.516ZM325.252 300.396C324.832 300.564 324.524 300.9 324.524 301.292C324.524 301.432 324.552 301.572 324.636 301.712C325.392 303.224 326.26 305.464 326.736 307.256C326.82 307.676 327.24 307.9 327.688 307.9C327.856 307.9 327.996 307.872 328.164 307.844C328.668 307.676 328.92 307.312 328.92 306.892C328.92 306.808 328.92 306.696 328.892 306.612C328.388 304.708 327.576 302.552 326.708 300.9C326.484 300.48 326.148 300.284 325.756 300.284C325.588 300.284 325.42 300.312 325.252 300.396ZM335.304 300.872C335.248 300.872 335.192 300.872 335.164 300.872C334.688 300.872 334.156 301.124 334.128 301.74C333.764 305.128 332.784 308.488 331.104 310.812C329.228 313.416 326.008 315.292 322.872 316.048C322.368 316.16 322.088 316.524 322.088 316.972C322.088 317.112 322.116 317.252 322.144 317.392C322.284 317.868 322.648 318.148 323.152 318.148C323.236 318.148 323.348 318.148 323.46 318.12C327.212 317.336 330.684 315.068 332.868 312.184C334.8 309.608 336.004 305.856 336.368 302.132C336.368 302.076 336.368 301.992 336.368 301.936C336.368 301.32 336.004 300.984 335.304 300.872ZM349.864 303.644V310.924C349.864 316.076 351.124 317.14 358.348 317.14C361.036 317.14 363.276 316.972 365.096 316.664C365.768 316.552 366.104 316.104 366.104 315.516C366.104 315.432 366.104 315.348 366.076 315.236C365.992 314.648 365.6 314.312 364.9 314.312C364.788 314.312 364.648 314.312 364.508 314.34C362.856 314.62 360.588 314.844 358.264 314.844C352.636 314.844 352.272 314.396 352.272 310.812V303.28L363.528 301.572C363.612 301.544 363.724 301.544 363.78 301.544C364.172 301.544 364.368 301.74 364.368 302.048C364.368 302.216 364.312 302.412 364.2 302.636C363.276 304.708 361.092 306.752 359.104 307.872C358.712 308.096 358.488 308.516 358.488 308.908C358.488 309.132 358.572 309.384 358.74 309.552C359.02 309.86 359.3 310.028 359.636 310.028C359.888 310.028 360.14 309.944 360.448 309.776C362.8 308.46 365.488 305.716 366.664 302.972C366.888 302.468 366.972 301.992 366.972 301.544C366.972 300.928 366.776 300.424 366.468 300.06C366.076 299.556 365.404 299.304 364.536 299.304C364.312 299.304 364.06 299.332 363.808 299.36L352.272 301.012V295.636C352.272 294.88 351.852 294.488 351.068 294.488C350.284 294.488 349.864 294.88 349.864 295.608V301.348L344.404 302.132C343.788 302.244 343.452 302.72 343.452 303.28C343.452 303.336 343.452 303.392 343.452 303.448C343.536 304.064 343.956 304.428 344.544 304.428C344.6 304.428 344.684 304.428 344.768 304.4L349.864 303.644ZM394.216 307.788C394.916 307.788 395.308 307.34 395.308 306.584C395.308 305.856 394.916 305.324 394.188 305.324H372.936C372.208 305.324 371.816 305.856 371.816 306.584C371.816 307.34 372.208 307.788 372.908 307.788H394.216ZM410.848 298.828C408.888 297.568 406.508 296.364 404.604 295.608C404.38 295.524 404.184 295.496 403.988 295.496C403.568 295.496 403.204 295.72 402.952 296.14C402.812 296.336 402.756 296.56 402.756 296.756C402.756 297.176 402.98 297.512 403.4 297.68C405.332 298.464 407.656 299.724 409.532 300.928C409.728 301.068 409.952 301.124 410.176 301.124C410.624 301.124 411.044 300.9 411.268 300.48C411.38 300.284 411.436 300.06 411.436 299.836C411.436 299.472 411.24 299.108 410.848 298.828ZM402.28 302.412C402.056 302.328 401.888 302.3 401.692 302.3C401.3 302.3 400.964 302.496 400.74 302.944C400.6 303.168 400.544 303.392 400.544 303.616C400.544 304.008 400.768 304.316 401.16 304.484C403.26 305.38 405.836 306.78 407.46 307.9C407.684 308.068 407.964 308.152 408.216 308.152C408.636 308.152 409.056 307.956 409.28 307.564C409.392 307.34 409.476 307.06 409.476 306.808C409.476 306.444 409.308 306.08 408.916 305.828C406.984 304.624 404.352 303.224 402.28 302.412ZM421.88 300.592C421.712 300.536 421.572 300.536 421.432 300.536C420.872 300.536 420.508 300.9 420.368 301.488C419.22 305.772 416.868 309.132 413.704 311.54C410.764 313.78 406.144 315.18 402.056 315.46C401.3 315.516 400.936 315.936 400.936 316.552C400.936 316.608 400.936 316.692 400.964 316.748C401.02 317.504 401.524 317.896 402.224 317.896C402.28 317.896 402.336 317.896 402.392 317.896C406.844 317.588 411.772 316.02 415.048 313.584C418.66 310.896 421.376 306.892 422.692 302.16C422.72 301.992 422.748 301.852 422.748 301.712C422.748 301.152 422.412 300.76 421.88 300.592ZM417.988 295.132C417.988 295.384 418.1 295.608 418.268 295.804C419.052 296.672 419.892 297.82 420.48 298.856C420.648 299.192 420.872 299.332 421.208 299.332C421.74 299.332 422.132 298.968 422.132 298.548C422.132 298.184 422.02 297.988 421.936 297.82C421.404 296.896 420.396 295.552 419.528 294.684C419.304 294.46 419.108 294.376 418.8 294.376C418.352 294.376 417.988 294.768 417.988 295.132ZM421.152 293.424C421.152 293.76 421.236 293.9 421.488 294.152C422.244 294.964 422.972 296.056 423.588 297.12C423.784 297.428 423.98 297.568 424.316 297.568C424.848 297.568 425.184 297.12 425.184 296.784C425.184 296.476 425.1 296.252 425.016 296.084C424.512 295.188 423.448 293.732 422.72 293.032C422.468 292.808 422.272 292.696 421.964 292.696C421.572 292.696 421.152 293.06 421.152 293.424ZM153.868 346.596C155.324 345.336 156.612 343.656 157.704 341.808C160.896 341.724 164.396 341.416 167.924 340.912C168.54 340.8 168.876 340.408 168.876 339.876C168.876 339.792 168.876 339.736 168.876 339.68C168.792 339.092 168.428 338.784 167.868 338.784C167.784 338.784 167.7 338.784 167.616 338.812C164.536 339.26 161.204 339.596 158.824 339.68C159.244 338.84 159.608 338.084 159.944 337.272C160.028 337.104 160.056 336.936 160.056 336.796C160.056 336.376 159.748 336.04 159.188 335.928C159.048 335.9 158.936 335.872 158.796 335.872C158.348 335.872 157.956 336.096 157.76 336.684C157.424 337.692 156.92 338.728 156.36 339.736C155.828 339.736 155.296 339.736 154.764 339.736C152.916 339.736 151.124 339.708 149.808 339.596C149.78 339.596 149.752 339.596 149.724 339.596C149.164 339.596 148.772 340.072 148.716 340.632C148.716 340.66 148.716 340.716 148.716 340.744C148.716 341.304 149.08 341.752 149.696 341.78C150.956 341.836 152.552 341.864 153.952 341.864C154.4 341.864 154.848 341.864 155.24 341.864C153.42 344.748 151.012 347.66 148.604 349.9C148.352 350.152 148.212 350.46 148.212 350.796C148.212 351.104 148.324 351.412 148.576 351.636C148.8 351.86 149.052 351.972 149.332 351.972C149.64 351.972 149.976 351.832 150.228 351.552C153.588 348.136 156.668 346.288 159.048 346.288C160.28 346.288 161.12 346.764 161.288 348.472C156.08 350.348 153.504 352.952 153.504 355.612C153.504 358.832 156.472 360.288 161.736 360.288C164.732 360.288 167.448 360.064 169.548 359.7C170.192 359.616 170.584 359.14 170.584 358.552C170.584 358.468 170.584 358.384 170.556 358.272C170.444 357.684 170.08 357.404 169.52 357.404C169.38 357.404 169.268 357.404 169.128 357.432C167.056 357.796 164.256 358.048 161.568 358.048C157.62 358.048 155.8 357.18 155.8 355.528C155.8 353.792 157.536 352.112 161.456 350.6C161.456 351.02 161.456 351.496 161.456 351.944C161.456 352.84 161.456 353.764 161.456 354.52C161.456 355.22 161.848 355.584 162.492 355.584C163.108 355.584 163.556 355.22 163.584 354.52C163.612 353.988 163.612 353.456 163.612 352.924C163.612 351.916 163.584 350.936 163.528 349.928C166.216 348.948 168.848 348.248 170.892 347.716C171.508 347.576 171.788 347.184 171.788 346.68C171.788 346.54 171.76 346.4 171.732 346.232C171.564 345.728 171.2 345.476 170.696 345.476C170.556 345.476 170.388 345.504 170.22 345.532C168.288 346.092 165.852 346.848 163.332 347.744C162.968 345.336 161.484 344.468 159.468 344.468C157.732 344.468 156.164 345.224 153.98 346.764L153.868 346.596ZM186.012 338.98C186.656 338.98 186.88 339.12 186.88 339.764C186.824 342.788 185.732 346.288 183.94 349.648C182.064 353.148 179.068 356.172 175.848 358.188C175.456 358.44 175.232 358.804 175.232 359.168C175.232 359.42 175.316 359.672 175.484 359.924C175.764 360.316 176.1 360.512 176.52 360.512C176.772 360.512 177.052 360.428 177.36 360.232C182.372 356.984 186.516 351.636 188.14 344.692C189.596 351.608 193.712 356.788 198.752 360.176C199.004 360.344 199.284 360.428 199.536 360.428C199.928 360.428 200.292 360.232 200.572 359.868C200.74 359.616 200.824 359.336 200.824 359.084C200.824 358.692 200.628 358.328 200.292 358.104C197.184 356.2 193.964 352.924 192.144 349.592C190.296 346.176 189.288 342.844 189.232 339.148C189.204 337.468 188.392 336.824 186.684 336.824H181.14C180.664 336.824 180.3 337.328 180.3 337.888C180.3 338.504 180.664 338.98 181.14 338.98H186.012ZM205.724 341.36C205.08 341.36 204.744 341.78 204.744 342.452C204.744 343.096 205.08 343.544 205.724 343.544H213.844C213.48 347.436 212.724 349.928 211.38 352.308C209.924 354.884 207.264 357.264 204.688 358.524C204.24 358.748 204.016 359.112 204.016 359.532C204.016 359.756 204.072 359.98 204.212 360.204C204.436 360.596 204.772 360.764 205.136 360.764C205.388 360.764 205.64 360.68 205.892 360.568C208.804 359.112 211.66 356.508 213.396 353.4C214.824 350.852 215.72 347.968 216.14 343.544H223.504C224.54 343.544 224.82 343.824 224.82 344.888C224.792 348.78 224.456 353.736 223.896 356.732C223.672 357.88 223.084 358.328 221.684 358.328C220.368 358.328 218.94 358.076 217.904 357.796C217.764 357.768 217.624 357.74 217.484 357.74C216.98 357.74 216.644 358.076 216.504 358.636C216.476 358.776 216.448 358.916 216.448 359.028C216.448 359.56 216.728 359.952 217.316 360.12C218.576 360.456 220.116 360.652 221.768 360.652C224.344 360.652 225.632 359.644 226.024 357.656C226.64 354.548 227.06 349.284 227.06 344.552C227.06 344.384 227.06 344.216 227.06 344.076C227.06 342.256 226.108 341.36 224.064 341.36H216.308C216.392 339.904 216.448 338.28 216.448 336.488C216.448 335.704 216 335.424 215.272 335.424C214.488 335.424 214.124 335.704 214.124 336.46C214.124 338.28 214.068 339.904 214.012 341.36H205.724ZM237.728 336.6C237.7 336.6 237.672 336.6 237.672 336.6C236.944 336.6 236.496 337.048 236.468 337.776C236.272 341.892 236.132 347.072 236.132 351.412C236.132 354.968 236.72 356.788 238.008 358.048C239.38 359.364 241.34 359.98 243.972 359.98C246.856 359.98 249.488 359.028 251.56 357.012C253.24 355.388 254.416 353.12 255.284 350.292C255.34 350.124 255.368 349.956 255.368 349.816C255.368 349.256 255.004 348.808 254.5 348.668C254.36 348.612 254.192 348.584 254.052 348.584C253.576 348.584 253.184 348.892 252.988 349.536C252.316 351.86 251.28 353.82 250.02 355.108C248.368 356.816 246.184 357.516 244.028 357.516C242.096 357.516 240.696 357.208 239.772 356.34C238.876 355.472 238.54 354.016 238.54 351.384C238.54 346.904 238.764 341.948 238.904 337.832C238.904 337.804 238.904 337.776 238.904 337.748C238.904 337.048 238.512 336.628 237.728 336.6ZM274.072 351.412C273.988 350.684 273.904 349.9 273.792 349.116C273.484 346.68 273.344 345.308 273.316 344.244C276.312 344.188 279.448 343.88 281.548 343.488C282.276 343.348 282.556 342.9 282.556 342.368C282.556 342.256 282.556 342.172 282.528 342.06C282.444 341.472 282.024 341.136 281.464 341.136C281.352 341.136 281.268 341.136 281.156 341.164C278.972 341.584 276.088 341.892 273.204 341.976C273.148 340.548 273.148 338.98 273.148 337.188C273.148 336.404 272.756 336.04 272 336.04C271.3 336.04 270.824 336.348 270.824 337.188C270.824 339.988 270.908 342.256 271.048 344.356C271.16 345.952 271.328 347.632 271.552 349.34C271.608 349.816 271.664 350.32 271.72 350.796C270.432 350.544 269.2 350.432 267.996 350.432C263.74 350.432 261.052 352.448 261.052 355.36C261.052 358.244 263.936 360.092 267.492 360.092C271.664 360.092 274.352 358.636 274.38 355.528C274.38 355.052 274.38 354.576 274.352 354.044C276.256 354.856 278.552 356.452 280.4 358.272C280.736 358.58 281.1 358.72 281.436 358.72C281.772 358.72 282.108 358.552 282.332 358.3C282.556 358.02 282.668 357.712 282.668 357.404C282.668 357.012 282.5 356.62 282.136 356.34C280.008 354.408 277.432 352.756 275.08 351.804C274.744 351.664 274.408 351.524 274.072 351.412ZM271.972 353.148C272.028 353.764 272.056 354.352 272.056 354.912C272.056 357.04 270.124 357.88 267.408 357.88C264.916 357.88 263.376 356.76 263.376 355.332C263.376 353.68 265 352.588 267.884 352.588C269.284 352.588 270.656 352.784 271.972 353.148ZM293.672 338.812C296.976 339.568 302.24 340.212 305.936 340.296C305.964 340.296 305.992 340.296 306.02 340.296C306.748 340.296 307.196 339.904 307.224 339.232C307.224 339.204 307.224 339.176 307.224 339.176C307.224 338.476 306.804 337.972 306.076 337.944C302.38 337.776 297.648 337.244 294.232 336.46C294.148 336.46 294.064 336.46 294.008 336.46C293.42 336.46 292.972 336.768 292.832 337.384C292.804 337.524 292.776 337.636 292.776 337.748C292.776 338.28 293.084 338.672 293.672 338.812ZM309.408 349.396C309.408 345.868 306.804 343.348 301.456 343.348C298.236 343.348 293.84 344.132 290.676 345.112C290.144 345.252 289.808 345.7 289.808 346.26C289.808 346.4 289.836 346.54 289.864 346.68C290.06 347.24 290.48 347.52 290.956 347.52C291.096 347.52 291.236 347.492 291.376 347.464C294.54 346.484 298.572 345.616 301.512 345.616C305.488 345.616 306.972 347.212 306.972 349.508C306.972 351.944 305.712 354.072 302.996 355.612C301.064 356.704 298.04 357.544 295.52 357.88C294.876 357.992 294.512 358.44 294.512 359.028C294.512 359.112 294.512 359.224 294.54 359.308C294.68 359.924 295.072 360.316 295.716 360.316C295.8 360.316 295.884 360.316 295.968 360.288C298.656 359.952 301.792 359.028 303.976 357.824C307.616 355.808 309.408 352.952 309.408 349.396Z" fill="#FFA5BD"/>
<path d="M317.071 127.1C326.447 123.591 331.194 113.145 327.664 103.758C324.155 94.392 313.702 89.6455 304.336 93.1582C294.963 96.6776 290.223 107.123 293.733 116.5C297.249 125.876 307.702 130.626 317.071 127.1Z" fill="#FFA5BD"/>
<path d="M330.208 197.087V148.493C330.084 141.13 324.007 135.267 316.645 135.397C309.279 135.524 303.405 141.588 303.532 148.953V192.781L274.725 198.039C268.566 199.084 263.609 203.391 263.579 209.939L264.455 253.842C264.438 258.956 268.573 263.135 273.705 263.164C278.83 263.17 283.006 259.039 283.026 253.911L285.724 219.443H310.54C324.475 219.408 330.249 211.015 330.208 197.087Z" fill="#FFA5BD"/>
<path d="M352.418 170.827C348.62 170.013 344.884 172.446 344.077 176.251L336.577 211.582C336 214.07 335.254 216.04 334.415 217.579C333.119 219.882 331.74 221.257 329.668 222.436C327.602 223.584 324.64 224.457 320.453 224.784C319.346 224.876 318.163 224.942 316.899 224.952H297.053C293.162 225.014 290.072 228.241 290.137 232.129C290.203 236.016 293.409 239.109 297.3 239.048H317.043C318.597 239.034 320.109 238.934 321.57 238.824C325.278 238.522 328.708 237.886 331.905 236.779C336.69 235.143 340.918 232.314 344.011 228.451C347.132 224.605 349.081 219.951 350.291 214.774L350.311 214.692L357.845 179.169C358.654 175.364 356.223 171.624 352.418 170.827Z" fill="#FFA5BD"/>
<path d="M267.246 168.243V158.165H230.819L217.366 124.316L208 128.035L223.983 168.243H267.246Z" fill="#FFA5BD"/>
<path d="M281.325 173.185H208.584V176.938V187.25V264.929H221.491V187.25H281.325V173.185Z" fill="#FFA5BD"/>
<circle cx="229.5" cy="109.5" r="8.5" fill="#FFA5BD" fill-opacity="0.5"/>
<circle cx="259.5" cy="121.5" r="5.5" fill="#FFA5BD" fill-opacity="0.5"/>
<circle cx="194.5" cy="99.5" r="10.5" fill="#FFD0DD"/>
<ellipse cx="124.5" cy="99.5" rx="71.5" ry="67.5" fill="#FFD0DD"/>
<path d="M155.819 125.856C154.222 123.463 152.006 121.869 149.716 120.733C154.79 114.438 145.896 98.6495 145.257 76.4664C145.257 68.1182 139.806 55.016 121.782 56.0586C108.016 56.8557 101.611 69.3877 101.611 75.6878L101.523 75.7337C101.099 97.9577 94.6514 113.325 98.6778 120.56C97.3132 121.215 95.9717 122.021 94.7555 123.065C93.3832 124.241 92.1794 125.722 91.3327 127.56C90.4847 129.399 89.9988 131.582 90 134.137C90 134.729 90.026 135.342 90.0793 135.977C90.1191 136.423 90.2876 136.782 90.4859 137.08C90.864 137.636 91.3649 138.049 91.9934 138.472C93.0943 139.2 94.6179 139.911 96.5692 140.61C102.409 142.693 112.078 144.599 124.058 144.602C133.793 144.601 142.009 143.338 147.874 141.751C150.807 140.956 153.15 140.085 154.843 139.215C155.69 138.778 156.375 138.344 156.92 137.871C157.192 137.63 157.431 137.38 157.631 137.08C157.828 136.782 157.998 136.423 158.038 135.977C158.09 135.342 158.116 134.732 158.116 134.142C158.121 130.735 157.246 127.99 155.819 125.856ZM105.64 87.9385C106.334 88.4047 107.105 88.6921 107.956 88.7456C126.991 87.1426 134.406 78.5268 133.805 73.1168C136.811 80.3293 136.21 85.8906 140.267 88.4443C140.671 87.9608 141.045 87.4477 141.403 86.9246C141.57 86.953 141.78 87.0113 141.942 87.1179C142.093 87.2146 142.217 87.3273 142.33 87.5344C142.441 87.7428 142.548 88.0726 142.551 88.6378C142.551 89.1237 142.465 89.7758 142.223 90.6187C141.494 93.1885 140.841 94.6825 140.241 95.5105C139.94 95.9295 139.666 96.1924 139.361 96.4056C139.053 96.6175 138.703 96.7849 138.243 96.9498L137.52 97.2089L137.386 97.9651C136.539 102.706 134.097 105.371 132.294 107.379L131.954 107.756V108.264C131.954 110.669 131.954 112.422 131.954 113.826C131.953 114.612 132.235 115.318 132.628 115.911L128.227 124.209L128.246 124.224L124.498 131.318L119.777 123.756L115.551 115.788C115.907 115.224 116.163 114.566 116.163 113.826C116.163 112.422 116.163 110.668 116.163 108.265V107.756L115.824 107.379C114.02 105.371 111.578 102.706 110.732 97.9653L110.598 97.209L109.875 96.95C109.415 96.7851 109.064 96.6177 108.757 96.4057C108.305 96.0859 107.895 95.6507 107.417 94.7569C106.943 93.8693 106.442 92.5439 105.893 90.6187C105.653 89.7782 105.567 89.1237 105.567 88.6378C105.568 88.3474 105.597 88.1219 105.64 87.9385ZM137.576 129.918L129.762 123.877L133.467 116.892C134.063 117.458 134.757 117.933 135.501 118.358C135.884 118.576 136.289 118.765 136.692 118.957L137.576 129.918ZM118.481 123.877L110.668 129.918L111.555 118.919C112.241 118.585 112.923 118.206 113.548 117.77C113.972 117.475 114.359 117.141 114.72 116.785L118.481 123.877ZM126.163 141.932C125.468 141.945 124.771 141.957 124.058 141.957C114.557 141.958 106.543 140.717 100.935 139.197C98.1338 138.441 95.9308 137.609 94.4853 136.864C93.7651 136.495 93.2345 136.14 92.9407 135.883C92.8155 135.772 92.7448 135.689 92.7102 135.641C92.6693 135.119 92.6456 134.615 92.6456 134.137C92.6505 131.169 93.3759 129 94.4964 127.3C96.175 124.76 98.8677 123.205 101.682 122.147C103.083 121.616 104.499 121.215 105.801 120.866C107.104 120.517 108.283 120.225 109.265 119.88C109.599 119.761 109.949 119.63 110.305 119.484L109.251 132.534L119.092 124.926L126.163 136.258V141.932ZM155.406 135.638L155.292 135.773C155.097 135.97 154.704 136.267 154.152 136.581C152.202 137.707 148.352 139.091 143.187 140.142C138.797 141.039 133.429 141.715 127.364 141.9V135.912L125.235 132.498L129.21 124.97L138.993 132.534L137.943 119.511C138.239 119.632 138.539 119.764 138.829 119.873C140.138 120.359 141.809 120.741 143.634 121.274C146.366 122.062 149.385 123.172 151.631 125.102C152.759 126.066 153.703 127.224 154.38 128.684C155.055 130.142 155.471 131.916 155.471 134.142C155.471 134.617 155.447 135.119 155.406 135.638Z" fill="#FF98B3"/>
<path d="M123.66 139.842C124.118 139.842 124.487 139.471 124.487 139.014C124.487 138.558 124.117 138.188 123.66 138.188C123.204 138.188 122.834 138.558 122.834 139.014C122.834 139.471 123.204 139.842 123.66 139.842Z" fill="#FF98B3"/>
</svg>
