<svg width="460" height="402" viewBox="0 0 460 402" fill="none" xmlns="http://www.w3.org/2000/svg">
<rect x="2.5" y="2.5" width="455" height="397" rx="34.5" fill="white" stroke="#8CE3FF" stroke-width="5"/>
<path d="M303.932 116.751C286.508 99.3219 258.257 99.3219 240.833 116.751C234.795 122.783 230.853 130.12 228.995 137.854C227.147 130.12 223.205 122.783 217.168 116.751C199.744 99.3219 171.492 99.3219 154.068 116.751C136.644 134.175 136.644 162.427 154.068 179.845L228.995 254.777L303.932 179.845C321.356 162.427 321.356 134.175 303.932 116.751Z" fill="#FFA5BD"/>
<path d="M29.9476 54.834H27.6596C27.1536 54.834 26.9116 55.164 26.9116 55.626C26.9116 56.11 27.1756 56.418 27.6596 56.418H29.7056L29.1116 60.312H26.8236C26.2956 60.312 26.0536 60.642 26.0536 61.126C26.0536 61.588 26.3176 61.896 26.8236 61.896H28.8696L28.1656 66.472C28.1436 66.538 28.1436 66.582 28.1436 66.648C28.1436 67.088 28.4516 67.264 28.8476 67.286C28.8916 67.286 28.9356 67.286 29.0016 67.286C29.4416 67.286 29.7276 67.088 29.7936 66.604L30.5416 61.896H33.3356L32.6096 66.472C32.5876 66.538 32.5876 66.604 32.5876 66.648C32.5876 67.088 32.8736 67.264 33.3136 67.286C33.3576 67.286 33.4016 67.286 33.4676 67.286C33.9076 67.286 34.1496 67.088 34.2376 66.604L34.9856 61.896H37.2296C37.7136 61.896 37.9556 61.588 37.9556 61.126C37.9556 60.62 37.7356 60.312 37.2296 60.312H35.2276L35.8216 56.418H38.0656C38.5276 56.418 38.8136 56.11 38.8136 55.626C38.8136 55.142 38.5716 54.834 38.0656 54.834H36.0856L36.7016 50.676C36.7236 50.61 36.7236 50.566 36.7236 50.5C36.7236 50.082 36.4376 49.906 36.0196 49.884C35.9756 49.884 35.9316 49.884 35.8876 49.884C35.4476 49.884 35.1396 50.082 35.0516 50.566L34.3916 54.834H31.6196L32.2796 50.676C32.3016 50.61 32.3016 50.566 32.3016 50.5C32.3016 50.082 31.9936 49.906 31.5756 49.884C31.5316 49.884 31.4876 49.884 31.4436 49.884C31.0036 49.884 30.6956 50.082 30.6296 50.566L29.9476 54.834ZM30.7836 60.312L31.3776 56.418H34.1716L33.5776 60.312H30.7836ZM49.8698 59.982C50.0898 60.466 50.2878 60.95 50.4198 61.478C47.7138 63.678 44.2158 65.328 41.0698 66.142C40.7178 66.274 40.4758 66.582 40.4758 66.956C40.4758 67.066 40.4978 67.176 40.5198 67.286C40.6518 67.66 40.9598 67.836 41.2678 67.836C41.3778 67.836 41.4658 67.814 41.5538 67.792C44.8318 66.78 48.1318 65.152 50.7498 63.084C50.8158 63.656 50.8598 64.25 50.8598 64.844C50.8598 66.956 50.5298 67.154 49.2538 67.154C48.7258 67.154 48.0658 67.066 47.5818 66.934C47.5158 66.912 47.4498 66.912 47.3838 66.912C47.0318 66.912 46.7238 67.132 46.6358 67.528C46.6138 67.616 46.6138 67.704 46.6138 67.77C46.6138 68.166 46.8998 68.43 47.2518 68.518C47.8898 68.672 48.6158 68.738 49.5178 68.738C51.4978 68.738 52.4438 67.99 52.4438 64.932C52.4438 63.15 52.1578 61.434 51.5638 59.982C51.0578 58.772 50.3098 57.496 49.2758 56.462C49.8918 56.066 50.4858 55.648 51.0578 55.208H51.7398C52.7738 60.686 55.1058 64.844 59.0218 67.264C59.1978 67.374 59.3958 67.44 59.5718 67.44C59.8578 67.44 60.1438 67.308 60.3418 67.044C60.4518 66.89 60.4958 66.714 60.4958 66.538C60.4958 66.208 60.3198 65.922 60.0338 65.746C57.8778 64.448 56.2278 62.754 55.0398 60.532C56.4918 59.542 57.7238 58.486 58.6038 57.54C58.7358 57.408 58.8018 57.232 58.8018 57.078C58.8018 56.858 58.6918 56.616 58.4718 56.44C58.2738 56.264 58.0538 56.198 57.8558 56.198C57.6358 56.198 57.4598 56.264 57.3278 56.418C56.5358 57.386 55.4798 58.31 54.3798 59.124C53.8738 57.87 53.5218 56.55 53.2798 55.208H57.1738C57.5258 55.208 57.7238 54.922 57.7238 54.526C57.7238 54.108 57.5258 53.844 57.1738 53.844H43.8198C43.4678 53.844 43.2698 54.108 43.2698 54.526C43.2698 54.922 43.4678 55.208 43.8198 55.208H48.6818C46.8558 56.44 44.3038 57.364 41.8618 57.848C41.5098 57.98 41.2678 58.2 41.2678 58.552C41.2678 58.64 41.2678 58.728 41.3118 58.816C41.3998 59.19 41.6418 59.41 41.9938 59.41C42.0598 59.41 42.1478 59.41 42.2358 59.388C44.2158 58.904 46.1958 58.156 48.0218 57.188C48.4398 57.628 48.7918 58.112 49.1218 58.596C46.8118 60.158 43.7978 61.346 41.2898 61.918C40.9598 62.05 40.7838 62.336 40.7838 62.688C40.7838 62.776 40.7838 62.864 40.8058 62.952C40.9378 63.348 41.2238 63.546 41.5758 63.546C41.6418 63.546 41.7298 63.546 41.7958 63.524C44.6558 62.732 47.3398 61.566 49.8258 59.872L49.8698 59.982ZM51.1898 50.368V48.938C51.1898 48.52 50.9478 48.322 50.3758 48.322C49.8038 48.322 49.5178 48.52 49.5178 48.938V50.368H42.8518C41.5758 50.368 40.9598 50.852 40.9598 52.084V54.196C40.9598 54.636 41.2678 54.856 41.7958 54.856C42.3238 54.856 42.6758 54.636 42.6758 54.196V52.392C42.6758 51.974 42.8958 51.842 43.3798 51.842H57.6138C58.0978 51.842 58.3178 51.974 58.3178 52.392V54.196C58.3178 54.636 58.6478 54.856 59.1758 54.856C59.7038 54.856 60.0338 54.636 60.0338 54.196V52.084C60.0338 50.852 59.4178 50.368 58.1418 50.368H51.1898ZM75.3458 61.522C74.6198 64.228 73.1018 65.68 70.5498 66.978C70.2638 67.132 70.1098 67.374 70.1098 67.66C70.1098 67.792 70.1538 67.946 70.2418 68.1C70.3738 68.364 70.6158 68.496 70.9018 68.496C71.0778 68.496 71.2758 68.452 71.4518 68.342C74.0038 66.956 75.5658 65.262 76.4678 62.908C77.3918 65.02 78.9318 67.022 81.4398 68.32C81.5938 68.408 81.7698 68.452 81.9238 68.452C82.1878 68.452 82.4298 68.32 82.6278 67.99C82.7158 67.836 82.7598 67.682 82.7598 67.528C82.7598 67.198 82.5838 66.912 82.2318 66.758C79.9658 65.702 78.3378 63.81 77.3918 61.522H81.8358C82.2318 61.522 82.4518 61.214 82.4518 60.752C82.4518 60.312 82.2318 60.004 81.8358 60.004H77.1938C77.3258 59.014 77.3698 58.046 77.4138 57.056H80.9998C81.3738 57.056 81.5718 56.726 81.5718 56.286C81.5718 55.868 81.3738 55.56 80.9998 55.56H74.9278C75.1478 55.142 75.3238 54.724 75.4778 54.306C75.5218 54.218 75.5438 54.108 75.5438 54.02C75.5438 53.734 75.3238 53.514 74.9718 53.426C74.8618 53.404 74.7298 53.382 74.6198 53.382C74.3558 53.382 74.1358 53.492 74.0258 53.8C73.5418 55.208 72.5518 56.902 71.5618 57.87C71.3858 58.046 71.2758 58.266 71.2758 58.464C71.2758 58.64 71.3418 58.794 71.4958 58.948C71.6718 59.124 71.8698 59.212 72.0678 59.212C72.2878 59.212 72.5078 59.102 72.6618 58.926C73.1678 58.398 73.6518 57.76 74.0918 57.056H75.8518C75.8298 58.046 75.8078 59.036 75.6538 60.004H71.3638C70.9678 60.004 70.7478 60.312 70.7478 60.752C70.7478 61.214 70.9678 61.522 71.3638 61.522H75.3458ZM81.8358 52.766C82.2318 52.766 82.4518 52.436 82.4518 51.996C82.4518 51.534 82.2318 51.226 81.8358 51.226H74.0698C74.3558 50.588 74.6198 49.95 74.8398 49.312C74.8618 49.224 74.8838 49.158 74.8838 49.092C74.8838 48.806 74.6858 48.564 74.2898 48.476C74.1578 48.432 74.0258 48.41 73.9158 48.41C73.6298 48.41 73.3878 48.542 73.2778 48.828C72.5958 50.984 71.4518 53.096 69.9558 54.658C69.8238 54.79 69.7578 54.966 69.7578 55.164C69.7578 55.34 69.8238 55.538 69.9778 55.692C70.1538 55.846 70.3738 55.934 70.5718 55.934C70.7698 55.934 70.9678 55.868 71.1218 55.692C71.8918 54.834 72.6178 53.844 73.2338 52.766H81.8358ZM67.5138 51.886V49.114C67.5138 48.674 67.2278 48.454 66.7218 48.454C66.2158 48.454 65.8858 48.674 65.8858 49.114V51.886H62.8278C62.4098 51.886 62.1898 52.194 62.1898 52.656C62.1898 53.118 62.4098 53.404 62.8278 53.404H64.7418C64.7418 60.818 64.1698 64.096 62.2338 67.11C62.1238 67.264 62.0798 67.462 62.0798 67.638C62.0798 67.902 62.2118 68.166 62.4318 68.32C62.5858 68.408 62.7178 68.452 62.8718 68.452C63.1578 68.452 63.4438 68.276 63.6198 67.968C65.1818 65.394 65.9518 62.644 66.2158 57.804H67.8218C68.2398 57.804 68.4598 57.936 68.4598 58.398C68.4378 61.984 68.1738 64.404 67.7998 65.988C67.6458 66.67 67.3598 66.846 66.9418 66.846C66.6338 66.846 66.1938 66.78 65.8858 66.67C65.8418 66.648 65.7758 66.648 65.7098 66.648C65.4678 66.648 65.1818 66.802 65.0718 67.176C65.0498 67.264 65.0278 67.374 65.0278 67.462C65.0278 67.748 65.1818 68.012 65.4678 68.122C65.8638 68.276 66.4358 68.386 67.0738 68.386C68.4158 68.386 68.9658 67.792 69.2518 66.626C69.7138 64.712 70.0438 62.028 70.0438 58.09C70.0438 56.814 69.5158 56.308 68.2398 56.308H66.2818C66.3258 55.494 66.3258 54.658 66.3258 53.844C66.3258 53.69 66.3258 53.558 66.3258 53.404H70.0218C70.3958 53.404 70.6158 53.096 70.6158 52.656C70.6158 52.194 70.3958 51.886 70.0218 51.886H67.5138ZM93.4738 55.956C92.8358 54.108 92.3738 51.974 91.9998 49.884C91.9338 49.378 91.5598 49.136 91.1198 49.136C91.0318 49.136 90.9658 49.136 90.8778 49.158C90.4378 49.246 90.0858 49.532 90.0858 50.016C90.0858 50.082 90.0858 50.148 90.1078 50.214C90.5258 52.436 91.0538 54.724 91.7138 56.704C88.5458 58.244 86.6978 60.4 86.6978 62.622C86.6978 65.944 89.1838 67.44 94.5738 67.418C97.1478 67.418 99.5458 67.264 101.24 66.89C101.768 66.78 102.076 66.406 102.076 65.944C102.076 65.856 102.076 65.79 102.054 65.702C101.988 65.196 101.658 64.91 101.174 64.91C101.086 64.91 100.998 64.91 100.91 64.932C99.2378 65.284 96.8178 65.526 94.6618 65.526C89.9978 65.526 88.5898 64.558 88.5898 62.644C88.5898 61.038 90.0858 59.388 92.9458 58.09C95.2778 57.034 98.4018 56.022 100.69 55.45C101.196 55.318 101.438 54.988 101.438 54.592C101.438 54.482 101.416 54.372 101.394 54.262C101.262 53.822 100.976 53.602 100.536 53.602C100.426 53.602 100.316 53.624 100.184 53.646C98.2258 54.152 95.6518 55.032 93.4738 55.956ZM111.58 49.4C111.558 49.4 111.536 49.4 111.536 49.4C110.964 49.4 110.612 49.752 110.59 50.324C110.436 53.558 110.326 57.628 110.326 61.038C110.326 63.832 110.788 65.262 111.8 66.252C112.878 67.286 114.418 67.77 116.486 67.77C118.752 67.77 120.82 67.022 122.448 65.438C123.768 64.162 124.692 62.38 125.374 60.158C125.418 60.026 125.44 59.894 125.44 59.784C125.44 59.344 125.154 58.992 124.758 58.882C124.648 58.838 124.516 58.816 124.406 58.816C124.032 58.816 123.724 59.058 123.57 59.564C123.042 61.39 122.228 62.93 121.238 63.942C119.94 65.284 118.224 65.834 116.53 65.834C115.012 65.834 113.912 65.592 113.186 64.91C112.482 64.228 112.218 63.084 112.218 61.016C112.218 57.496 112.394 53.602 112.504 50.368C112.504 50.346 112.504 50.324 112.504 50.302C112.504 49.752 112.196 49.422 111.58 49.4ZM140.376 52.458C136.13 53.976 133.798 56.99 133.798 60.312C133.798 63.106 135.316 65.108 137.582 66.208C138.968 66.868 140.706 67.22 142.532 67.22C143.192 67.22 143.544 66.868 143.588 66.23C143.588 66.186 143.588 66.164 143.588 66.12C143.588 65.614 143.258 65.218 142.62 65.218C141.146 65.196 139.672 64.954 138.506 64.404C136.922 63.678 135.69 62.358 135.69 60.158C135.69 56.616 139.012 53.448 143.764 52.656C144.27 52.568 144.622 52.524 144.996 52.48C145.634 52.414 145.854 51.996 145.854 51.534C145.854 51.512 145.854 51.49 145.854 51.468C145.81 50.962 145.524 50.61 144.908 50.61C144.886 50.61 144.864 50.61 144.842 50.61C139.518 50.852 133.71 51.226 128.342 51.644C127.858 51.688 127.528 52.084 127.528 52.568C127.528 52.59 127.528 52.612 127.528 52.656C127.572 53.162 127.902 53.492 128.474 53.492C128.518 53.492 128.54 53.492 128.584 53.492C131.378 53.272 134.458 52.986 137.604 52.722C138.33 52.656 139.276 52.546 140.354 52.326L140.376 52.458ZM158.64 52.238C162.534 52.37 164.976 55.076 164.976 58.794C164.976 61.104 163.964 62.886 162.578 63.92C161.478 64.734 159.784 65.284 158.178 65.504C157.672 65.592 157.386 65.922 157.386 66.362C157.386 66.428 157.386 66.516 157.408 66.582C157.496 67.132 157.87 67.352 158.332 67.352C158.398 67.352 158.486 67.352 158.574 67.33C160.334 67.066 161.918 66.56 163.194 65.746C165.482 64.294 166.824 61.94 166.824 58.838C166.824 53.998 163.392 50.61 158.2 50.61C152.194 50.61 148.366 54.57 148.366 60.048C148.366 63.744 150.192 65.966 152.48 65.966C153.382 65.966 154.306 65.68 155.01 64.998C155.78 64.272 156.418 63.282 157.188 61.016C157.958 58.662 158.442 55.582 158.64 52.238ZM156.814 52.304C156.66 55.318 156.11 58.332 155.428 60.4C154.9 62.006 154.394 62.952 153.91 63.414C153.448 63.876 152.942 64.052 152.436 64.052C151.27 64.052 150.148 62.666 150.148 60.026C150.148 55.758 152.788 52.678 156.814 52.304ZM183.236 52.546C183.786 52.546 184.028 52.7 184.028 53.03C184.028 53.162 183.984 53.316 183.918 53.514C183.06 55.978 181.234 58.552 178.946 60.664C176.592 62.82 173.798 64.404 171.136 65.416C170.718 65.57 170.476 65.966 170.476 66.362C170.476 66.494 170.498 66.626 170.542 66.736C170.674 67.11 170.982 67.286 171.356 67.286C171.532 67.286 171.708 67.242 171.884 67.176C175.294 65.9 178.748 63.766 181.19 61.082C183.632 62.996 185.348 64.646 186.998 66.626C187.218 66.868 187.504 66.978 187.79 66.978C188.076 66.978 188.362 66.868 188.56 66.648C188.736 66.45 188.846 66.208 188.846 65.944C188.846 65.68 188.736 65.416 188.538 65.174C186.69 63.04 184.886 61.61 182.422 59.696C183.962 57.804 185.194 55.934 185.92 53.976C186.074 53.514 186.162 53.074 186.162 52.7C186.162 52.26 186.052 51.908 185.876 51.6C185.48 51.028 184.864 50.72 183.918 50.72L172.72 50.83C172.214 50.83 171.906 51.182 171.906 51.71C171.906 52.304 172.192 52.678 172.72 52.678L183.236 52.546ZM201.298 61.038L202.662 67.374C202.772 67.836 203.08 68.056 203.476 68.056C203.586 68.056 203.696 68.034 203.828 68.012C204.29 67.902 204.532 67.66 204.532 67.242C204.532 67.176 204.532 67.088 204.51 67L203.146 60.73L210.032 59.63C210.45 59.564 210.692 59.234 210.692 58.816C210.692 58.75 210.692 58.684 210.67 58.618C210.604 58.178 210.296 57.87 209.878 57.87C209.834 57.87 209.768 57.87 209.724 57.892L202.772 59.014L201.826 54.68L208.426 53.624C208.8 53.558 209.02 53.272 209.02 52.898C209.02 52.81 209.02 52.744 208.998 52.656C208.888 52.238 208.624 51.908 208.228 51.908C208.184 51.908 208.162 51.908 208.118 51.908L201.452 52.986L200.77 49.884C200.66 49.4 200.396 49.202 200 49.202C199.912 49.202 199.824 49.202 199.714 49.224C199.23 49.334 198.944 49.598 198.944 50.016C198.944 50.082 198.944 50.17 198.966 50.236L199.626 53.272L193.268 54.284C192.894 54.35 192.652 54.702 192.652 55.098C192.652 55.164 192.652 55.23 192.674 55.296C192.74 55.736 193.048 56 193.444 56C193.488 56 193.532 56 193.576 56L199.978 54.966L200.924 59.322L193.29 60.554C192.916 60.62 192.674 60.972 192.674 61.39C192.674 61.456 192.674 61.522 192.696 61.588C192.762 62.006 193.114 62.27 193.51 62.27C193.554 62.27 193.598 62.27 193.642 62.27L201.298 61.038Z" fill="#FFA5BD"/>
<path d="M256.948 280.834H254.66C254.154 280.834 253.912 281.164 253.912 281.626C253.912 282.11 254.176 282.418 254.66 282.418H256.706L256.112 286.312H253.824C253.296 286.312 253.054 286.642 253.054 287.126C253.054 287.588 253.318 287.896 253.824 287.896H255.87L255.166 292.472C255.144 292.538 255.144 292.582 255.144 292.648C255.144 293.088 255.452 293.264 255.848 293.286C255.892 293.286 255.936 293.286 256.002 293.286C256.442 293.286 256.728 293.088 256.794 292.604L257.542 287.896H260.336L259.61 292.472C259.588 292.538 259.588 292.604 259.588 292.648C259.588 293.088 259.874 293.264 260.314 293.286C260.358 293.286 260.402 293.286 260.468 293.286C260.908 293.286 261.15 293.088 261.238 292.604L261.986 287.896H264.23C264.714 287.896 264.956 287.588 264.956 287.126C264.956 286.62 264.736 286.312 264.23 286.312H262.228L262.822 282.418H265.066C265.528 282.418 265.814 282.11 265.814 281.626C265.814 281.142 265.572 280.834 265.066 280.834H263.086L263.702 276.676C263.724 276.61 263.724 276.566 263.724 276.5C263.724 276.082 263.438 275.906 263.02 275.884C262.976 275.884 262.932 275.884 262.888 275.884C262.448 275.884 262.14 276.082 262.052 276.566L261.392 280.834H258.62L259.28 276.676C259.302 276.61 259.302 276.566 259.302 276.5C259.302 276.082 258.994 275.906 258.576 275.884C258.532 275.884 258.488 275.884 258.444 275.884C258.004 275.884 257.696 276.082 257.63 276.566L256.948 280.834ZM257.784 286.312L258.378 282.418H261.172L260.578 286.312H257.784ZM275.022 282.418C275.242 281.406 275.418 280.394 275.528 279.382H286.858C287.254 279.382 287.518 279.03 287.518 278.568C287.518 278.084 287.254 277.754 286.858 277.754H275.704C275.792 276.94 275.836 276.082 275.88 275.202C275.88 275.18 275.88 275.18 275.88 275.158C275.88 274.718 275.55 274.454 275 274.454C274.428 274.454 274.164 274.74 274.142 275.18C274.098 276.082 274.054 276.94 273.988 277.754H268.158C267.762 277.754 267.498 278.084 267.498 278.568C267.498 279.03 267.762 279.382 268.158 279.382H273.834C273.482 282.308 272.844 284.662 271.876 286.752C270.754 289.128 269.17 291.262 267.586 292.648C267.366 292.824 267.256 293.088 267.256 293.33C267.256 293.55 267.344 293.77 267.52 293.946C267.718 294.144 267.916 294.232 268.136 294.232C268.356 294.232 268.576 294.122 268.796 293.946C270.468 292.384 272.14 290.184 273.416 287.39C273.79 286.554 274.142 285.63 274.45 284.618C274.67 285.124 274.868 285.608 275.132 286.07C275.946 287.5 276.98 288.798 278.146 289.92C276.32 291.35 274.076 292.494 271.678 293.154C271.304 293.264 271.084 293.528 271.084 293.902C271.084 294.012 271.106 294.144 271.15 294.276C271.304 294.672 271.612 294.826 271.942 294.826C272.074 294.826 272.184 294.804 272.316 294.76C274.912 294.056 277.354 292.736 279.422 291.042C281.534 292.78 283.932 294.034 286.198 294.694C286.308 294.738 286.44 294.76 286.572 294.76C286.924 294.76 287.254 294.584 287.408 294.144C287.452 293.99 287.474 293.858 287.474 293.726C287.474 293.33 287.276 293.044 286.946 292.934C284.724 292.362 282.568 291.306 280.698 289.898C282.26 288.38 283.514 286.62 284.306 284.794C284.46 284.42 284.548 284.09 284.548 283.782C284.548 282.968 284.02 282.418 283.008 282.418H275.022ZM282.106 283.958C282.436 283.958 282.59 284.024 282.59 284.222C282.59 284.332 282.546 284.464 282.502 284.618C281.82 286.114 280.764 287.566 279.422 288.842C277.904 287.456 276.672 285.806 275.814 283.958H282.106ZM295.68 282.374C295.328 282.374 295.13 282.66 295.13 283.034C295.13 283.43 295.328 283.738 295.68 283.738H301.114V285.322H296.45C296.098 285.322 295.9 285.652 295.9 286.026C295.9 286.4 296.098 286.73 296.45 286.73H301.114V288.314H295.438C295.064 288.314 294.888 288.666 294.888 289.018C294.888 289.392 295.108 289.7 295.46 289.7H301.114V291.724C301.114 292.142 301.422 292.362 301.906 292.362C302.39 292.362 302.72 292.142 302.72 291.724V289.7H308.748C309.1 289.7 309.276 289.414 309.276 289.018C309.276 288.666 309.1 288.314 308.748 288.314H302.72V286.73H307.648C308 286.73 308.198 286.4 308.198 286.026C308.198 285.652 308 285.322 307.648 285.322H302.72V283.738H308.506C308.858 283.738 309.056 283.43 309.056 283.034C309.056 282.66 308.858 282.374 308.506 282.374H305.272C305.602 281.714 305.932 281.054 306.174 280.372H308.814C309.166 280.372 309.364 280.064 309.364 279.668C309.364 279.294 309.166 279.008 308.814 279.008H302.676V277.446H307.824C308.154 277.446 308.374 277.116 308.374 276.72C308.374 276.368 308.154 276.016 307.824 276.016H302.676V274.894C302.676 274.498 302.368 274.322 301.884 274.322C301.4 274.322 301.07 274.498 301.07 274.894V276.016H296.296C295.944 276.016 295.746 276.368 295.746 276.72C295.746 277.116 295.944 277.446 296.296 277.446H301.07V279.008H295.284C294.91 279.008 294.734 279.294 294.734 279.668C294.734 280.064 294.91 280.372 295.284 280.372H297.726C298.056 281.01 298.342 281.692 298.562 282.374H295.68ZM300.19 282.374C299.97 281.692 299.706 281.01 299.398 280.372H304.48C304.216 281.054 303.952 281.736 303.6 282.374H300.19ZM293.898 285.014C293.898 283.87 293.414 283.276 292.292 283.276H289.806C289.41 283.276 289.146 283.54 289.146 284.046C289.146 284.552 289.41 284.816 289.806 284.816H291.698C292.094 284.816 292.248 284.948 292.248 285.366V290.14C291.412 291.13 290.18 292.164 289.322 292.758C289.08 292.912 288.97 293.132 288.97 293.374C288.97 293.55 289.036 293.748 289.168 293.924C289.366 294.166 289.608 294.276 289.828 294.276C290.004 294.276 290.18 294.21 290.334 294.122C291.214 293.44 292.204 292.516 293.018 291.504C293.7 292.824 294.954 293.638 296.516 293.99C297.594 294.232 299.244 294.342 301.136 294.342C303.776 294.342 306.79 294.254 309.034 294.166C309.606 294.122 309.87 293.814 309.87 293.33C309.87 293.308 309.87 293.286 309.87 293.264C309.826 292.736 309.606 292.45 309.078 292.45C309.056 292.45 309.012 292.45 308.968 292.45C306.724 292.626 303.996 292.736 301.268 292.736C299.508 292.736 298.1 292.648 297.066 292.494C295.724 292.274 294.47 291.614 293.898 290.184V285.014ZM291.302 275.246C291.126 275.092 290.928 275.026 290.73 275.026C290.532 275.026 290.312 275.114 290.136 275.268C289.938 275.444 289.828 275.664 289.828 275.884C289.828 276.06 289.894 276.236 290.048 276.368C290.906 277.204 291.83 278.392 292.512 279.47C292.666 279.712 292.908 279.822 293.15 279.822C293.348 279.822 293.546 279.734 293.722 279.58C293.964 279.404 294.096 279.162 294.096 278.898C294.096 278.744 294.052 278.568 293.942 278.392C293.15 277.292 292.226 276.126 291.302 275.246ZM320.474 281.956C319.836 280.108 319.374 277.974 319 275.884C318.934 275.378 318.56 275.136 318.12 275.136C318.032 275.136 317.966 275.136 317.878 275.158C317.438 275.246 317.086 275.532 317.086 276.016C317.086 276.082 317.086 276.148 317.108 276.214C317.526 278.436 318.054 280.724 318.714 282.704C315.546 284.244 313.698 286.4 313.698 288.622C313.698 291.944 316.184 293.44 321.574 293.418C324.148 293.418 326.546 293.264 328.24 292.89C328.768 292.78 329.076 292.406 329.076 291.944C329.076 291.856 329.076 291.79 329.054 291.702C328.988 291.196 328.658 290.91 328.174 290.91C328.086 290.91 327.998 290.91 327.91 290.932C326.238 291.284 323.818 291.526 321.662 291.526C316.998 291.526 315.59 290.558 315.59 288.644C315.59 287.038 317.086 285.388 319.946 284.09C322.278 283.034 325.402 282.022 327.69 281.45C328.196 281.318 328.438 280.988 328.438 280.592C328.438 280.482 328.416 280.372 328.394 280.262C328.262 279.822 327.976 279.602 327.536 279.602C327.426 279.602 327.316 279.624 327.184 279.646C325.226 280.152 322.652 281.032 320.474 281.956ZM338.58 275.4C338.558 275.4 338.536 275.4 338.536 275.4C337.964 275.4 337.612 275.752 337.59 276.324C337.436 279.558 337.326 283.628 337.326 287.038C337.326 289.832 337.788 291.262 338.8 292.252C339.878 293.286 341.418 293.77 343.486 293.77C345.752 293.77 347.82 293.022 349.448 291.438C350.768 290.162 351.692 288.38 352.374 286.158C352.418 286.026 352.44 285.894 352.44 285.784C352.44 285.344 352.154 284.992 351.758 284.882C351.648 284.838 351.516 284.816 351.406 284.816C351.032 284.816 350.724 285.058 350.57 285.564C350.042 287.39 349.228 288.93 348.238 289.942C346.94 291.284 345.224 291.834 343.53 291.834C342.012 291.834 340.912 291.592 340.186 290.91C339.482 290.228 339.218 289.084 339.218 287.016C339.218 283.496 339.394 279.602 339.504 276.368C339.504 276.346 339.504 276.324 339.504 276.302C339.504 275.752 339.196 275.422 338.58 275.4ZM367.376 278.458C363.13 279.976 360.798 282.99 360.798 286.312C360.798 289.106 362.316 291.108 364.582 292.208C365.968 292.868 367.706 293.22 369.532 293.22C370.192 293.22 370.544 292.868 370.588 292.23C370.588 292.186 370.588 292.164 370.588 292.12C370.588 291.614 370.258 291.218 369.62 291.218C368.146 291.196 366.672 290.954 365.506 290.404C363.922 289.678 362.69 288.358 362.69 286.158C362.69 282.616 366.012 279.448 370.764 278.656C371.27 278.568 371.622 278.524 371.996 278.48C372.634 278.414 372.854 277.996 372.854 277.534C372.854 277.512 372.854 277.49 372.854 277.468C372.81 276.962 372.524 276.61 371.908 276.61C371.886 276.61 371.864 276.61 371.842 276.61C366.518 276.852 360.71 277.226 355.342 277.644C354.858 277.688 354.528 278.084 354.528 278.568C354.528 278.59 354.528 278.612 354.528 278.656C354.572 279.162 354.902 279.492 355.474 279.492C355.518 279.492 355.54 279.492 355.584 279.492C358.378 279.272 361.458 278.986 364.604 278.722C365.33 278.656 366.276 278.546 367.354 278.326L367.376 278.458ZM385.64 278.238C389.534 278.37 391.976 281.076 391.976 284.794C391.976 287.104 390.964 288.886 389.578 289.92C388.478 290.734 386.784 291.284 385.178 291.504C384.672 291.592 384.386 291.922 384.386 292.362C384.386 292.428 384.386 292.516 384.408 292.582C384.496 293.132 384.87 293.352 385.332 293.352C385.398 293.352 385.486 293.352 385.574 293.33C387.334 293.066 388.918 292.56 390.194 291.746C392.482 290.294 393.824 287.94 393.824 284.838C393.824 279.998 390.392 276.61 385.2 276.61C379.194 276.61 375.366 280.57 375.366 286.048C375.366 289.744 377.192 291.966 379.48 291.966C380.382 291.966 381.306 291.68 382.01 290.998C382.78 290.272 383.418 289.282 384.188 287.016C384.958 284.662 385.442 281.582 385.64 278.238ZM383.814 278.304C383.66 281.318 383.11 284.332 382.428 286.4C381.9 288.006 381.394 288.952 380.91 289.414C380.448 289.876 379.942 290.052 379.436 290.052C378.27 290.052 377.148 288.666 377.148 286.026C377.148 281.758 379.788 278.678 383.814 278.304ZM410.236 278.546C410.786 278.546 411.028 278.7 411.028 279.03C411.028 279.162 410.984 279.316 410.918 279.514C410.06 281.978 408.234 284.552 405.946 286.664C403.592 288.82 400.798 290.404 398.136 291.416C397.718 291.57 397.476 291.966 397.476 292.362C397.476 292.494 397.498 292.626 397.542 292.736C397.674 293.11 397.982 293.286 398.356 293.286C398.532 293.286 398.708 293.242 398.884 293.176C402.294 291.9 405.748 289.766 408.19 287.082C410.632 288.996 412.348 290.646 413.998 292.626C414.218 292.868 414.504 292.978 414.79 292.978C415.076 292.978 415.362 292.868 415.56 292.648C415.736 292.45 415.846 292.208 415.846 291.944C415.846 291.68 415.736 291.416 415.538 291.174C413.69 289.04 411.886 287.61 409.422 285.696C410.962 283.804 412.194 281.934 412.92 279.976C413.074 279.514 413.162 279.074 413.162 278.7C413.162 278.26 413.052 277.908 412.876 277.6C412.48 277.028 411.864 276.72 410.918 276.72L399.72 276.83C399.214 276.83 398.906 277.182 398.906 277.71C398.906 278.304 399.192 278.678 399.72 278.678L410.236 278.546ZM428.298 287.038L429.662 293.374C429.772 293.836 430.08 294.056 430.476 294.056C430.586 294.056 430.696 294.034 430.828 294.012C431.29 293.902 431.532 293.66 431.532 293.242C431.532 293.176 431.532 293.088 431.51 293L430.146 286.73L437.032 285.63C437.45 285.564 437.692 285.234 437.692 284.816C437.692 284.75 437.692 284.684 437.67 284.618C437.604 284.178 437.296 283.87 436.878 283.87C436.834 283.87 436.768 283.87 436.724 283.892L429.772 285.014L428.826 280.68L435.426 279.624C435.8 279.558 436.02 279.272 436.02 278.898C436.02 278.81 436.02 278.744 435.998 278.656C435.888 278.238 435.624 277.908 435.228 277.908C435.184 277.908 435.162 277.908 435.118 277.908L428.452 278.986L427.77 275.884C427.66 275.4 427.396 275.202 427 275.202C426.912 275.202 426.824 275.202 426.714 275.224C426.23 275.334 425.944 275.598 425.944 276.016C425.944 276.082 425.944 276.17 425.966 276.236L426.626 279.272L420.268 280.284C419.894 280.35 419.652 280.702 419.652 281.098C419.652 281.164 419.652 281.23 419.674 281.296C419.74 281.736 420.048 282 420.444 282C420.488 282 420.532 282 420.576 282L426.978 280.966L427.924 285.322L420.29 286.554C419.916 286.62 419.674 286.972 419.674 287.39C419.674 287.456 419.674 287.522 419.696 287.588C419.762 288.006 420.114 288.27 420.51 288.27C420.554 288.27 420.598 288.27 420.642 288.27L428.298 287.038Z" fill="#FFA5BD"/>
<path d="M146.736 329.472C146.736 327.792 146.26 327.204 144.58 327.204C144.552 327.204 144.496 327.204 144.468 327.204L141.444 327.26C140.772 327.288 140.436 327.792 140.436 328.464C140.436 329.108 140.8 329.64 141.444 329.64C141.472 329.64 141.472 329.64 141.5 329.64L143.516 329.612C143.544 329.612 143.6 329.612 143.628 329.612C144.076 329.612 144.16 329.78 144.16 330.256V344.62C144.16 345.32 144.692 345.712 145.448 345.712C146.176 345.712 146.736 345.32 146.736 344.62V329.472ZM145 322.948C137.58 322.948 131.588 328.94 131.588 336.36C131.588 343.78 137.58 349.772 145 349.772C152.42 349.772 158.412 343.78 158.412 336.36C158.412 328.94 152.42 322.948 145 322.948ZM145 324.208C151.72 324.208 157.152 329.64 157.152 336.36C157.152 343.08 151.72 348.512 145 348.512C138.28 348.512 132.848 343.08 132.848 336.36C132.848 329.64 138.28 324.208 145 324.208ZM177.564 328.604C178.264 328.604 178.572 328.8 178.572 329.22C178.572 329.388 178.516 329.584 178.432 329.836C177.34 332.972 175.016 336.248 172.104 338.936C169.108 341.68 165.552 343.696 162.164 344.984C161.632 345.18 161.324 345.684 161.324 346.188C161.324 346.356 161.352 346.524 161.408 346.664C161.576 347.14 161.968 347.364 162.444 347.364C162.668 347.364 162.892 347.308 163.116 347.224C167.456 345.6 171.852 342.884 174.96 339.468C178.068 341.904 180.252 344.004 182.352 346.524C182.632 346.832 182.996 346.972 183.36 346.972C183.724 346.972 184.088 346.832 184.34 346.552C184.564 346.3 184.704 345.992 184.704 345.656C184.704 345.32 184.564 344.984 184.312 344.676C181.96 341.96 179.664 340.14 176.528 337.704C178.488 335.296 180.056 332.916 180.98 330.424C181.176 329.836 181.288 329.276 181.288 328.8C181.288 328.24 181.148 327.792 180.924 327.4C180.42 326.672 179.636 326.28 178.432 326.28L164.18 326.42C163.536 326.42 163.144 326.868 163.144 327.54C163.144 328.296 163.508 328.772 164.18 328.772L177.564 328.604ZM200.552 339.412L202.288 347.476C202.428 348.064 202.82 348.344 203.324 348.344C203.464 348.344 203.604 348.316 203.772 348.288C204.36 348.148 204.668 347.84 204.668 347.308C204.668 347.224 204.668 347.112 204.64 347L202.904 339.02L211.668 337.62C212.2 337.536 212.508 337.116 212.508 336.584C212.508 336.5 212.508 336.416 212.48 336.332C212.396 335.772 212.004 335.38 211.472 335.38C211.416 335.38 211.332 335.38 211.276 335.408L202.428 336.836L201.224 331.32L209.624 329.976C210.1 329.892 210.38 329.528 210.38 329.052C210.38 328.94 210.38 328.856 210.352 328.744C210.212 328.212 209.876 327.792 209.372 327.792C209.316 327.792 209.288 327.792 209.232 327.792L200.748 329.164L199.88 325.216C199.74 324.6 199.404 324.348 198.9 324.348C198.788 324.348 198.676 324.348 198.536 324.376C197.92 324.516 197.556 324.852 197.556 325.384C197.556 325.468 197.556 325.58 197.584 325.664L198.424 329.528L190.332 330.816C189.856 330.9 189.548 331.348 189.548 331.852C189.548 331.936 189.548 332.02 189.576 332.104C189.66 332.664 190.052 333 190.556 333C190.612 333 190.668 333 190.724 333L198.872 331.684L200.076 337.228L190.36 338.796C189.884 338.88 189.576 339.328 189.576 339.86C189.576 339.944 189.576 340.028 189.604 340.112C189.688 340.644 190.136 340.98 190.64 340.98C190.696 340.98 190.752 340.98 190.808 340.98L200.552 339.412ZM222.868 334.596C224.324 333.336 225.612 331.656 226.704 329.808C229.896 329.724 233.396 329.416 236.924 328.912C237.54 328.8 237.876 328.408 237.876 327.876C237.876 327.792 237.876 327.736 237.876 327.68C237.792 327.092 237.428 326.784 236.868 326.784C236.784 326.784 236.7 326.784 236.616 326.812C233.536 327.26 230.204 327.596 227.824 327.68C228.244 326.84 228.608 326.084 228.944 325.272C229.028 325.104 229.056 324.936 229.056 324.796C229.056 324.376 228.748 324.04 228.188 323.928C228.048 323.9 227.936 323.872 227.796 323.872C227.348 323.872 226.956 324.096 226.76 324.684C226.424 325.692 225.92 326.728 225.36 327.736C224.828 327.736 224.296 327.736 223.764 327.736C221.916 327.736 220.124 327.708 218.808 327.596C218.78 327.596 218.752 327.596 218.724 327.596C218.164 327.596 217.772 328.072 217.716 328.632C217.716 328.66 217.716 328.716 217.716 328.744C217.716 329.304 218.08 329.752 218.696 329.78C219.956 329.836 221.552 329.864 222.952 329.864C223.4 329.864 223.848 329.864 224.24 329.864C222.42 332.748 220.012 335.66 217.604 337.9C217.352 338.152 217.212 338.46 217.212 338.796C217.212 339.104 217.324 339.412 217.576 339.636C217.8 339.86 218.052 339.972 218.332 339.972C218.64 339.972 218.976 339.832 219.228 339.552C222.588 336.136 225.668 334.288 228.048 334.288C229.28 334.288 230.12 334.764 230.288 336.472C225.08 338.348 222.504 340.952 222.504 343.612C222.504 346.832 225.472 348.288 230.736 348.288C233.732 348.288 236.448 348.064 238.548 347.7C239.192 347.616 239.584 347.14 239.584 346.552C239.584 346.468 239.584 346.384 239.556 346.272C239.444 345.684 239.08 345.404 238.52 345.404C238.38 345.404 238.268 345.404 238.128 345.432C236.056 345.796 233.256 346.048 230.568 346.048C226.62 346.048 224.8 345.18 224.8 343.528C224.8 341.792 226.536 340.112 230.456 338.6C230.456 339.02 230.456 339.496 230.456 339.944C230.456 340.84 230.456 341.764 230.456 342.52C230.456 343.22 230.848 343.584 231.492 343.584C232.108 343.584 232.556 343.22 232.584 342.52C232.612 341.988 232.612 341.456 232.612 340.924C232.612 339.916 232.584 338.936 232.528 337.928C235.216 336.948 237.848 336.248 239.892 335.716C240.508 335.576 240.788 335.184 240.788 334.68C240.788 334.54 240.76 334.4 240.732 334.232C240.564 333.728 240.2 333.476 239.696 333.476C239.556 333.476 239.388 333.504 239.22 333.532C237.288 334.092 234.852 334.848 232.332 335.744C231.968 333.336 230.484 332.468 228.468 332.468C226.732 332.468 225.164 333.224 222.98 334.764L222.868 334.596ZM257.616 335.744V334.428C257.616 333.952 257.224 333.7 256.608 333.7C256.048 333.7 255.656 333.952 255.656 334.428V335.744H252.492C252.044 335.744 251.82 336.136 251.82 336.584C251.82 337.06 252.044 337.452 252.492 337.452H255.656V339.776H251.512C251.092 339.776 250.84 340.168 250.84 340.616C250.84 341.092 251.092 341.484 251.512 341.484H268.76C269.208 341.484 269.46 341.092 269.46 340.616C269.46 340.168 269.208 339.776 268.76 339.776H264.14V337.452H267.808C268.228 337.452 268.48 337.06 268.48 336.584C268.48 336.136 268.228 335.744 267.808 335.744H264.14V334.428C264.14 333.952 263.748 333.7 263.16 333.7C262.572 333.7 262.18 333.952 262.18 334.428V335.744H257.616ZM257.616 339.776V337.452H262.18V339.776H257.616ZM249.72 336.836C249.72 335.352 249.132 334.624 247.676 334.624H244.652C244.148 334.624 243.812 334.96 243.812 335.604C243.812 336.248 244.148 336.556 244.652 336.556H246.92C247.452 336.556 247.62 336.696 247.62 337.256V343.36C246.584 344.648 245.128 345.964 244.176 346.664C243.896 346.888 243.728 347.196 243.728 347.504C243.728 347.756 243.812 347.98 244.008 348.204C244.26 348.54 244.54 348.68 244.82 348.68C245.016 348.68 245.184 348.624 245.352 348.484C246.528 347.644 247.62 346.384 248.6 345.152C249.468 346.832 251.092 347.868 253.136 348.316C254.508 348.624 256.58 348.736 258.932 348.736C262.292 348.736 266.268 348.652 269.124 348.512C269.824 348.484 270.16 348.092 270.16 347.504C270.16 347.476 270.16 347.42 270.16 347.364C270.132 346.692 269.852 346.356 269.208 346.356C269.152 346.356 269.096 346.356 269.04 346.356C266.184 346.58 262.572 346.72 259.1 346.72C256.916 346.72 255.208 346.608 253.92 346.412C252.156 346.16 250.56 345.292 249.72 343.444V336.836ZM246.5 324.488C246.332 324.32 246.108 324.236 245.884 324.236C245.604 324.236 245.352 324.348 245.072 324.572C244.82 324.796 244.68 325.076 244.68 325.3C244.68 325.524 244.792 325.72 244.96 325.916C246.164 327.064 247.2 328.408 248.18 329.836C248.376 330.144 248.656 330.256 248.936 330.256C249.216 330.256 249.496 330.144 249.748 329.948C250.028 329.724 250.168 329.444 250.168 329.136C250.168 328.912 250.084 328.688 249.916 328.436C249.02 327.092 247.788 325.636 246.5 324.488ZM257.196 329.248C258.54 329.248 259.128 328.94 259.128 327.54V325.972C259.128 324.572 258.68 324.068 257.252 324.068H251.736C251.288 324.068 251.036 324.376 251.036 324.908C251.036 325.412 251.288 325.748 251.736 325.748H256.608C257.28 325.748 257.336 325.916 257.336 326.448V326.98C257.336 327.512 257.224 327.624 256.664 327.624H253.108C251.848 327.624 251.288 328.184 251.288 329.276V331.124C251.288 332.188 251.54 332.748 252.492 333C253.052 333.168 253.864 333.196 255.096 333.196C256.132 333.196 256.916 333.168 257.504 333.112C258.372 333 258.82 332.748 259.1 332.44C259.436 332.076 259.744 331.376 259.8 330.62C259.8 330.62 259.8 330.592 259.8 330.564C259.8 330.144 259.464 329.78 258.932 329.724C258.876 329.724 258.82 329.724 258.764 329.724C258.288 329.724 257.924 329.92 257.868 330.424C257.812 330.816 257.7 331.096 257.42 331.32C257.196 331.516 256.776 331.6 255.124 331.6C253.248 331.6 253.108 331.404 253.108 330.788V329.92C253.108 329.332 253.22 329.248 253.808 329.248H257.196ZM266.716 329.248C268.088 329.248 268.676 328.94 268.676 327.54V325.972C268.676 324.572 268.2 324.068 266.8 324.068H261.284C260.864 324.068 260.584 324.376 260.584 324.908C260.584 325.412 260.864 325.748 261.284 325.748H266.1C266.772 325.748 266.828 325.916 266.828 326.448V326.896C266.828 327.428 266.744 327.624 266.156 327.624H262.544C261.312 327.624 260.752 328.156 260.752 329.164V331.152C260.752 332.272 261.004 332.804 261.956 333.028C262.544 333.168 263.468 333.224 264.7 333.224C265.792 333.224 266.744 333.168 267.332 333.056C268.144 332.944 268.592 332.692 268.844 332.356C269.18 332.104 269.404 331.376 269.46 330.592C269.46 330.592 269.46 330.564 269.46 330.536C269.46 330.116 269.152 329.724 268.648 329.668C268.592 329.668 268.508 329.668 268.452 329.668C268.004 329.668 267.64 329.864 267.612 330.284C267.556 330.788 267.5 331.068 267.22 331.32C267.024 331.488 266.492 331.6 265.176 331.6C265.036 331.6 264.868 331.6 264.7 331.6C262.74 331.572 262.6 331.544 262.6 330.76V329.92C262.6 329.332 262.712 329.248 263.3 329.248H266.716ZM258.092 342.38C257.896 342.156 257.644 342.072 257.392 342.072C257.196 342.072 257.028 342.128 256.86 342.212C255.712 342.94 254.06 343.668 252.744 344.004C252.352 344.116 252.1 344.424 252.1 344.788C252.1 344.928 252.128 345.068 252.212 345.208C252.38 345.572 252.688 345.74 253.08 345.74C253.192 345.74 253.304 345.712 253.444 345.684C254.984 345.236 256.692 344.452 258.008 343.584C258.232 343.416 258.344 343.164 258.344 342.94C258.344 342.744 258.26 342.548 258.092 342.38ZM267.36 345.908C267.5 345.936 267.612 345.964 267.724 345.964C268.088 345.964 268.396 345.768 268.508 345.292C268.536 345.18 268.564 345.096 268.564 344.984C268.564 344.648 268.34 344.34 268.004 344.284C266.38 343.808 264.504 343.08 263.076 342.212C262.88 342.1 262.684 342.044 262.488 342.044C262.264 342.044 262.012 342.128 261.788 342.324C261.592 342.52 261.48 342.744 261.48 342.968C261.48 343.22 261.62 343.416 261.872 343.584C263.328 344.508 265.064 345.236 266.772 345.768L267.36 345.908ZM281.304 326.14C280.716 326.14 280.352 326.56 280.352 327.148V327.232C280.352 327.792 280.688 328.212 281.36 328.268C282.34 328.324 283.404 328.352 284.496 328.352C285.728 328.352 287.016 328.324 288.36 328.24C288.36 329.808 288.388 331.32 288.444 332.58C287.1 332.636 285.784 332.664 284.552 332.664C283.292 332.664 282.116 332.636 281.052 332.58H280.94C280.38 332.58 280.044 332.972 280.016 333.588C280.016 334.204 280.296 334.68 280.996 334.736C281.864 334.764 282.788 334.792 283.712 334.792C285.28 334.792 286.904 334.736 288.528 334.652C288.584 335.8 288.64 336.752 288.696 337.536C288.752 338.292 288.836 339.076 288.92 339.86C287.828 339.468 286.624 339.3 285.476 339.3C282.032 339.3 279.904 341.008 279.904 343.584C279.904 346.356 282.144 347.952 285.588 347.952C289.032 347.952 291.16 346.496 291.16 343.78C291.16 343.668 291.16 343.556 291.16 343.416C291.16 343.304 291.16 343.136 291.132 342.996C292.196 343.64 293.288 344.592 294.324 345.628C294.576 345.88 294.856 345.992 295.164 345.992C295.472 345.992 295.752 345.88 295.976 345.628C296.2 345.376 296.312 345.124 296.312 344.844C296.312 344.508 296.144 344.172 295.892 343.92C294.52 342.576 292.84 341.4 291.16 340.616C291.048 339.552 290.936 338.432 290.852 337.508C290.768 336.584 290.74 335.604 290.684 334.512C292.252 334.4 293.68 334.232 294.968 334.036C295.584 333.896 295.864 333.532 295.864 333C295.864 332.944 295.864 332.888 295.864 332.832C295.808 332.272 295.416 331.964 294.912 331.964C294.828 331.964 294.772 331.964 294.716 331.964C293.484 332.16 292.056 332.328 290.628 332.412C290.572 331.068 290.516 329.612 290.516 328.128C290.936 328.1 291.188 328.072 291.72 328.016C292.28 327.96 292.588 327.596 292.588 327.064C292.588 326.476 292.28 325.916 291.608 325.916C291.552 325.916 291.524 325.916 291.468 325.916C290.124 326.028 289.116 326.112 287.688 326.14C286.484 326.168 285.28 326.196 284.132 326.196C283.18 326.196 282.256 326.168 281.416 326.14H281.304ZM289.032 342.912C289.032 345.012 287.912 345.908 285.392 345.908C283.376 345.908 282.088 345.068 282.088 343.584C282.088 342.156 283.348 341.26 285.448 341.26C286.624 341.26 287.856 341.512 289.004 341.988C289.032 342.324 289.032 342.604 289.032 342.912ZM277.188 326.224C277.244 326.056 277.244 325.916 277.244 325.776C277.244 325.244 276.964 324.908 276.404 324.796C276.264 324.768 276.152 324.768 276.04 324.768C275.48 324.768 275.088 325.02 274.892 325.72C273.912 329.444 273.24 334.652 273.24 338.516C273.24 341.792 273.548 344.76 274.108 347.224C274.248 347.924 274.64 348.288 275.256 348.288C275.368 348.288 275.508 348.288 275.62 348.26C276.208 348.12 276.488 347.784 276.488 347.196C276.488 347.028 276.46 346.86 276.432 346.664C275.9 344.284 275.564 341.372 275.564 338.488C275.564 334.652 276.236 329.92 277.188 326.224ZM292.896 324.488C293.372 325.44 293.82 326.616 294.156 327.792C294.268 328.184 294.548 328.38 294.884 328.38C295.388 328.38 295.78 328.072 295.78 327.652C295.78 327.372 295.752 327.148 295.668 326.868C295.444 326.028 294.912 324.684 294.408 323.704C294.24 323.368 293.904 323.2 293.54 323.2C293.064 323.2 292.728 323.508 292.728 323.9C292.728 324.068 292.812 324.348 292.896 324.488ZM296.144 323.62C296.592 324.432 297.096 325.776 297.348 326.7C297.488 327.204 297.684 327.428 298.104 327.428C298.608 327.428 298.944 327.148 298.944 326.644C298.944 326.364 298.916 326.196 298.86 326C298.608 325.132 298.076 323.76 297.572 322.892C297.404 322.584 297.152 322.444 296.788 322.444C296.396 322.444 296.032 322.724 296.032 323.116C296.032 323.368 296.088 323.508 296.144 323.62ZM306.672 326.812C309.976 327.568 315.24 328.212 318.936 328.296C318.964 328.296 318.992 328.296 319.02 328.296C319.748 328.296 320.196 327.904 320.224 327.232C320.224 327.204 320.224 327.176 320.224 327.176C320.224 326.476 319.804 325.972 319.076 325.944C315.38 325.776 310.648 325.244 307.232 324.46C307.148 324.46 307.064 324.46 307.008 324.46C306.42 324.46 305.972 324.768 305.832 325.384C305.804 325.524 305.776 325.636 305.776 325.748C305.776 326.28 306.084 326.672 306.672 326.812ZM322.408 337.396C322.408 333.868 319.804 331.348 314.456 331.348C311.236 331.348 306.84 332.132 303.676 333.112C303.144 333.252 302.808 333.7 302.808 334.26C302.808 334.4 302.836 334.54 302.864 334.68C303.06 335.24 303.48 335.52 303.956 335.52C304.096 335.52 304.236 335.492 304.376 335.464C307.54 334.484 311.572 333.616 314.512 333.616C318.488 333.616 319.972 335.212 319.972 337.508C319.972 339.944 318.712 342.072 315.996 343.612C314.064 344.704 311.04 345.544 308.52 345.88C307.876 345.992 307.512 346.44 307.512 347.028C307.512 347.112 307.512 347.224 307.54 347.308C307.68 347.924 308.072 348.316 308.716 348.316C308.8 348.316 308.884 348.316 308.968 348.288C311.656 347.952 314.792 347.028 316.976 345.824C320.616 343.808 322.408 340.952 322.408 337.396Z" fill="#FFA5BD"/>
<path d="M24.9476 266.834H22.6596C22.1536 266.834 21.9116 267.164 21.9116 267.626C21.9116 268.11 22.1756 268.418 22.6596 268.418H24.7056L24.1116 272.312H21.8236C21.2956 272.312 21.0536 272.642 21.0536 273.126C21.0536 273.588 21.3176 273.896 21.8236 273.896H23.8696L23.1656 278.472C23.1436 278.538 23.1436 278.582 23.1436 278.648C23.1436 279.088 23.4516 279.264 23.8476 279.286C23.8916 279.286 23.9356 279.286 24.0016 279.286C24.4416 279.286 24.7276 279.088 24.7936 278.604L25.5416 273.896H28.3356L27.6096 278.472C27.5876 278.538 27.5876 278.604 27.5876 278.648C27.5876 279.088 27.8736 279.264 28.3136 279.286C28.3576 279.286 28.4016 279.286 28.4676 279.286C28.9076 279.286 29.1496 279.088 29.2376 278.604L29.9856 273.896H32.2296C32.7136 273.896 32.9556 273.588 32.9556 273.126C32.9556 272.62 32.7356 272.312 32.2296 272.312H30.2276L30.8216 268.418H33.0656C33.5276 268.418 33.8136 268.11 33.8136 267.626C33.8136 267.142 33.5716 266.834 33.0656 266.834H31.0856L31.7016 262.676C31.7236 262.61 31.7236 262.566 31.7236 262.5C31.7236 262.082 31.4376 261.906 31.0196 261.884C30.9756 261.884 30.9316 261.884 30.8876 261.884C30.4476 261.884 30.1396 262.082 30.0516 262.566L29.3916 266.834H26.6196L27.2796 262.676C27.3016 262.61 27.3016 262.566 27.3016 262.5C27.3016 262.082 26.9936 261.906 26.5756 261.884C26.5316 261.884 26.4876 261.884 26.4436 261.884C26.0036 261.884 25.6956 262.082 25.6296 262.566L24.9476 266.834ZM25.7836 272.312L26.3776 268.418H29.1716L28.5776 272.312H25.7836ZM50.5458 278.648V274.952H54.3078C54.6598 274.952 54.8798 274.666 54.8798 274.226C54.8798 273.786 54.6598 273.5 54.3078 273.5H50.5458V270.2H54.3078C54.6598 270.2 54.8798 269.914 54.8798 269.474C54.8798 269.056 54.6598 268.748 54.3078 268.748H50.5458V265.624H54.6158C54.9678 265.624 55.1878 265.316 55.1878 264.854C55.1878 264.414 54.9678 264.128 54.6158 264.128H50.8538C51.3598 263.248 51.7778 262.346 52.0638 261.532C52.1078 261.4 52.1298 261.29 52.1298 261.18C52.1298 260.85 51.8878 260.63 51.5138 260.542C51.4258 260.52 51.3378 260.52 51.2498 260.52C50.9198 260.52 50.6558 260.674 50.5238 261.07C50.2158 261.994 49.7538 263.072 49.2038 264.128H46.8498C46.4758 264.128 46.1018 264.172 45.7278 264.238C46.2338 263.292 46.6518 262.346 46.9818 261.444C47.0258 261.334 47.0478 261.224 47.0478 261.136C47.0478 260.784 46.8278 260.564 46.4538 260.476C46.3438 260.454 46.2338 260.432 46.1238 260.432C45.7938 260.432 45.5518 260.564 45.4198 260.938C44.6278 263.314 43.2198 265.888 41.6578 267.56C41.4598 267.78 41.3718 268 41.3718 268.22C41.3718 268.418 41.4598 268.616 41.6358 268.792C41.8118 268.946 41.9878 269.012 42.1638 269.012C42.4058 269.012 42.6478 268.88 42.8678 268.638C43.1098 268.352 43.3298 268 43.5498 267.648C43.4398 268.506 43.3738 269.43 43.3738 270.244V278.274C43.3738 279.594 43.9898 280.144 45.2658 280.144H55.0118C55.3638 280.144 55.5838 279.836 55.5838 279.374C55.5838 278.934 55.3638 278.648 55.0118 278.648H50.5458ZM44.9578 273.5V270.2H49.0058V273.5H44.9578ZM44.9578 274.952H49.0058V278.648H45.6398C45.1558 278.648 44.9578 278.494 44.9578 277.988V274.952ZM49.0058 265.624V268.748H44.9578V266.284C44.9578 265.778 45.1558 265.624 45.6398 265.624H49.0058ZM40.0298 264.722V260.982C40.0298 260.564 39.7438 260.344 39.2378 260.344C38.7318 260.344 38.4238 260.564 38.4238 260.982V264.722H36.0038C35.6078 264.722 35.3878 265.03 35.3878 265.47C35.3878 265.932 35.6078 266.24 36.0038 266.24H38.4238V271.19C37.5438 271.542 36.6418 271.85 35.7618 272.114C35.4318 272.202 35.2778 272.444 35.2778 272.752C35.2778 272.862 35.2998 272.972 35.3438 273.104C35.4538 273.5 35.7398 273.698 36.0698 273.698C36.1578 273.698 36.2458 273.676 36.3338 273.654C36.9938 273.412 37.7198 273.148 38.4238 272.884V278.406C38.4238 278.956 38.2918 279.132 37.6758 279.132C37.3018 279.132 36.8398 279.066 36.5758 279.022C36.5098 279 36.4218 279 36.3558 279C36.0478 279 35.8058 279.176 35.7398 279.572C35.7178 279.66 35.7178 279.726 35.7178 279.814C35.7178 280.166 35.8938 280.43 36.2678 280.518C36.7078 280.628 37.2578 280.672 37.8518 280.672C39.3918 280.672 40.0298 280.144 40.0298 278.714V272.224C40.7558 271.938 41.4378 271.63 42.0318 271.322C42.3178 271.19 42.4498 270.926 42.4498 270.662C42.4498 270.552 42.4278 270.42 42.3618 270.288C42.2298 269.98 42.0318 269.826 41.7898 269.826C41.7018 269.826 41.5918 269.848 41.4818 269.892C41.0418 270.112 40.5578 270.332 40.0298 270.552V266.24H41.7678C42.1858 266.24 42.3838 265.91 42.3838 265.47C42.3838 265.03 42.1858 264.722 41.7678 264.722H40.0298ZM62.5798 261.4C62.5578 261.4 62.5358 261.4 62.5358 261.4C61.9638 261.4 61.6118 261.752 61.5898 262.324C61.4358 265.558 61.3258 269.628 61.3258 273.038C61.3258 275.832 61.7878 277.262 62.7998 278.252C63.8778 279.286 65.4178 279.77 67.4858 279.77C69.7518 279.77 71.8198 279.022 73.4478 277.438C74.7678 276.162 75.6918 274.38 76.3738 272.158C76.4178 272.026 76.4398 271.894 76.4398 271.784C76.4398 271.344 76.1538 270.992 75.7578 270.882C75.6478 270.838 75.5158 270.816 75.4058 270.816C75.0318 270.816 74.7238 271.058 74.5698 271.564C74.0418 273.39 73.2278 274.93 72.2378 275.942C70.9398 277.284 69.2238 277.834 67.5298 277.834C66.0118 277.834 64.9118 277.592 64.1858 276.91C63.4818 276.228 63.2178 275.084 63.2178 273.016C63.2178 269.496 63.3938 265.602 63.5038 262.368C63.5038 262.346 63.5038 262.324 63.5038 262.302C63.5038 261.752 63.1958 261.422 62.5798 261.4ZM88.4738 267.956C87.8358 266.108 87.3738 263.974 86.9998 261.884C86.9338 261.378 86.5598 261.136 86.1198 261.136C86.0318 261.136 85.9658 261.136 85.8778 261.158C85.4378 261.246 85.0858 261.532 85.0858 262.016C85.0858 262.082 85.0858 262.148 85.1078 262.214C85.5258 264.436 86.0538 266.724 86.7138 268.704C83.5458 270.244 81.6978 272.4 81.6978 274.622C81.6978 277.944 84.1838 279.44 89.5738 279.418C92.1478 279.418 94.5458 279.264 96.2398 278.89C96.7678 278.78 97.0758 278.406 97.0758 277.944C97.0758 277.856 97.0758 277.79 97.0538 277.702C96.9878 277.196 96.6578 276.91 96.1738 276.91C96.0858 276.91 95.9978 276.91 95.9098 276.932C94.2378 277.284 91.8178 277.526 89.6618 277.526C84.9978 277.526 83.5898 276.558 83.5898 274.644C83.5898 273.038 85.0858 271.388 87.9458 270.09C90.2778 269.034 93.4018 268.022 95.6898 267.45C96.1958 267.318 96.4378 266.988 96.4378 266.592C96.4378 266.482 96.4158 266.372 96.3938 266.262C96.2618 265.822 95.9758 265.602 95.5358 265.602C95.4258 265.602 95.3158 265.624 95.1838 265.646C93.2258 266.152 90.6518 267.032 88.4738 267.956ZM106.58 261.4C106.558 261.4 106.536 261.4 106.536 261.4C105.964 261.4 105.612 261.752 105.59 262.324C105.436 265.558 105.326 269.628 105.326 273.038C105.326 275.832 105.788 277.262 106.8 278.252C107.878 279.286 109.418 279.77 111.486 279.77C113.752 279.77 115.82 279.022 117.448 277.438C118.768 276.162 119.692 274.38 120.374 272.158C120.418 272.026 120.44 271.894 120.44 271.784C120.44 271.344 120.154 270.992 119.758 270.882C119.648 270.838 119.516 270.816 119.406 270.816C119.032 270.816 118.724 271.058 118.57 271.564C118.042 273.39 117.228 274.93 116.238 275.942C114.94 277.284 113.224 277.834 111.53 277.834C110.012 277.834 108.912 277.592 108.186 276.91C107.482 276.228 107.218 275.084 107.218 273.016C107.218 269.496 107.394 265.602 107.504 262.368C107.504 262.346 107.504 262.324 107.504 262.302C107.504 261.752 107.196 261.422 106.58 261.4ZM135.376 264.458C131.13 265.976 128.798 268.99 128.798 272.312C128.798 275.106 130.316 277.108 132.582 278.208C133.968 278.868 135.706 279.22 137.532 279.22C138.192 279.22 138.544 278.868 138.588 278.23C138.588 278.186 138.588 278.164 138.588 278.12C138.588 277.614 138.258 277.218 137.62 277.218C136.146 277.196 134.672 276.954 133.506 276.404C131.922 275.678 130.69 274.358 130.69 272.158C130.69 268.616 134.012 265.448 138.764 264.656C139.27 264.568 139.622 264.524 139.996 264.48C140.634 264.414 140.854 263.996 140.854 263.534C140.854 263.512 140.854 263.49 140.854 263.468C140.81 262.962 140.524 262.61 139.908 262.61C139.886 262.61 139.864 262.61 139.842 262.61C134.518 262.852 128.71 263.226 123.342 263.644C122.858 263.688 122.528 264.084 122.528 264.568C122.528 264.59 122.528 264.612 122.528 264.656C122.572 265.162 122.902 265.492 123.474 265.492C123.518 265.492 123.54 265.492 123.584 265.492C126.378 265.272 129.458 264.986 132.604 264.722C133.33 264.656 134.276 264.546 135.354 264.326L135.376 264.458ZM153.64 264.238C157.534 264.37 159.976 267.076 159.976 270.794C159.976 273.104 158.964 274.886 157.578 275.92C156.478 276.734 154.784 277.284 153.178 277.504C152.672 277.592 152.386 277.922 152.386 278.362C152.386 278.428 152.386 278.516 152.408 278.582C152.496 279.132 152.87 279.352 153.332 279.352C153.398 279.352 153.486 279.352 153.574 279.33C155.334 279.066 156.918 278.56 158.194 277.746C160.482 276.294 161.824 273.94 161.824 270.838C161.824 265.998 158.392 262.61 153.2 262.61C147.194 262.61 143.366 266.57 143.366 272.048C143.366 275.744 145.192 277.966 147.48 277.966C148.382 277.966 149.306 277.68 150.01 276.998C150.78 276.272 151.418 275.282 152.188 273.016C152.958 270.662 153.442 267.582 153.64 264.238ZM151.814 264.304C151.66 267.318 151.11 270.332 150.428 272.4C149.9 274.006 149.394 274.952 148.91 275.414C148.448 275.876 147.942 276.052 147.436 276.052C146.27 276.052 145.148 274.666 145.148 272.026C145.148 267.758 147.788 264.678 151.814 264.304ZM178.236 264.546C178.786 264.546 179.028 264.7 179.028 265.03C179.028 265.162 178.984 265.316 178.918 265.514C178.06 267.978 176.234 270.552 173.946 272.664C171.592 274.82 168.798 276.404 166.136 277.416C165.718 277.57 165.476 277.966 165.476 278.362C165.476 278.494 165.498 278.626 165.542 278.736C165.674 279.11 165.982 279.286 166.356 279.286C166.532 279.286 166.708 279.242 166.884 279.176C170.294 277.9 173.748 275.766 176.19 273.082C178.632 274.996 180.348 276.646 181.998 278.626C182.218 278.868 182.504 278.978 182.79 278.978C183.076 278.978 183.362 278.868 183.56 278.648C183.736 278.45 183.846 278.208 183.846 277.944C183.846 277.68 183.736 277.416 183.538 277.174C181.69 275.04 179.886 273.61 177.422 271.696C178.962 269.804 180.194 267.934 180.92 265.976C181.074 265.514 181.162 265.074 181.162 264.7C181.162 264.26 181.052 263.908 180.876 263.6C180.48 263.028 179.864 262.72 178.918 262.72L167.72 262.83C167.214 262.83 166.906 263.182 166.906 263.71C166.906 264.304 167.192 264.678 167.72 264.678L178.236 264.546ZM196.298 273.038L197.662 279.374C197.772 279.836 198.08 280.056 198.476 280.056C198.586 280.056 198.696 280.034 198.828 280.012C199.29 279.902 199.532 279.66 199.532 279.242C199.532 279.176 199.532 279.088 199.51 279L198.146 272.73L205.032 271.63C205.45 271.564 205.692 271.234 205.692 270.816C205.692 270.75 205.692 270.684 205.67 270.618C205.604 270.178 205.296 269.87 204.878 269.87C204.834 269.87 204.768 269.87 204.724 269.892L197.772 271.014L196.826 266.68L203.426 265.624C203.8 265.558 204.02 265.272 204.02 264.898C204.02 264.81 204.02 264.744 203.998 264.656C203.888 264.238 203.624 263.908 203.228 263.908C203.184 263.908 203.162 263.908 203.118 263.908L196.452 264.986L195.77 261.884C195.66 261.4 195.396 261.202 195 261.202C194.912 261.202 194.824 261.202 194.714 261.224C194.23 261.334 193.944 261.598 193.944 262.016C193.944 262.082 193.944 262.17 193.966 262.236L194.626 265.272L188.268 266.284C187.894 266.35 187.652 266.702 187.652 267.098C187.652 267.164 187.652 267.23 187.674 267.296C187.74 267.736 188.048 268 188.444 268C188.488 268 188.532 268 188.576 268L194.978 266.966L195.924 271.322L188.29 272.554C187.916 272.62 187.674 272.972 187.674 273.39C187.674 273.456 187.674 273.522 187.696 273.588C187.762 274.006 188.114 274.27 188.51 274.27C188.554 274.27 188.598 274.27 188.642 274.27L196.298 273.038Z" fill="#FFA5BD"/>
<path d="M248.948 69.834H246.66C246.154 69.834 245.912 70.164 245.912 70.626C245.912 71.11 246.176 71.418 246.66 71.418H248.706L248.112 75.312H245.824C245.296 75.312 245.054 75.642 245.054 76.126C245.054 76.588 245.318 76.896 245.824 76.896H247.87L247.166 81.472C247.144 81.538 247.144 81.582 247.144 81.648C247.144 82.088 247.452 82.264 247.848 82.286C247.892 82.286 247.936 82.286 248.002 82.286C248.442 82.286 248.728 82.088 248.794 81.604L249.542 76.896H252.336L251.61 81.472C251.588 81.538 251.588 81.604 251.588 81.648C251.588 82.088 251.874 82.264 252.314 82.286C252.358 82.286 252.402 82.286 252.468 82.286C252.908 82.286 253.15 82.088 253.238 81.604L253.986 76.896H256.23C256.714 76.896 256.956 76.588 256.956 76.126C256.956 75.62 256.736 75.312 256.23 75.312H254.228L254.822 71.418H257.066C257.528 71.418 257.814 71.11 257.814 70.626C257.814 70.142 257.572 69.834 257.066 69.834H255.086L255.702 65.676C255.724 65.61 255.724 65.566 255.724 65.5C255.724 65.082 255.438 64.906 255.02 64.884C254.976 64.884 254.932 64.884 254.888 64.884C254.448 64.884 254.14 65.082 254.052 65.566L253.392 69.834H250.62L251.28 65.676C251.302 65.61 251.302 65.566 251.302 65.5C251.302 65.082 250.994 64.906 250.576 64.884C250.532 64.884 250.488 64.884 250.444 64.884C250.004 64.884 249.696 65.082 249.63 65.566L248.948 69.834ZM249.784 75.312L250.378 71.418H253.172L252.578 75.312H249.784ZM278.484 66.226C278.858 66.226 279.056 65.962 279.056 65.588C279.056 65.214 278.858 64.928 278.484 64.928H272.962V63.894C272.962 63.52 272.654 63.322 272.148 63.322C271.642 63.322 271.334 63.52 271.334 63.894V64.928H266.428C266.054 64.928 265.856 65.214 265.856 65.588C265.856 65.962 266.054 66.226 266.428 66.226H268.122C268.452 66.886 268.716 67.612 268.914 68.316H266.318C265.944 68.316 265.746 68.58 265.746 68.976C265.746 69.35 265.944 69.636 266.318 69.636H279.144C279.518 69.636 279.716 69.35 279.716 68.976C279.716 68.58 279.518 68.316 279.144 68.316H275.426C275.756 67.634 276.064 66.952 276.284 66.226H278.484ZM274.678 66.226C274.458 66.952 274.15 67.656 273.776 68.316H270.454C270.256 67.612 269.992 66.908 269.728 66.226H274.678ZM271.4 77.512V79.03H266.054C265.702 79.03 265.526 79.294 265.526 79.668C265.526 80.042 265.702 80.328 266.054 80.328H271.4V82H264.888C264.536 82 264.36 82.242 264.36 82.638C264.36 83.034 264.536 83.342 264.888 83.342H279.21C279.562 83.342 279.76 83.034 279.76 82.638C279.76 82.242 279.562 82 279.21 82H272.896V80.328H278.396C278.726 80.328 278.902 80.042 278.902 79.668C278.902 79.294 278.726 79.03 278.396 79.03H272.896V77.512H276.68C277.824 77.512 278.374 77.094 278.374 75.928V72.408C278.374 71.242 277.824 70.824 276.68 70.824H267.748C266.604 70.824 266.054 71.242 266.054 72.408V75.928C266.054 77.094 266.604 77.512 267.748 77.512H271.4ZM271.4 72.012V73.574H267.572V72.496C267.572 72.122 267.77 72.012 268.144 72.012H271.4ZM272.896 72.012H276.284C276.658 72.012 276.856 72.122 276.856 72.496V73.574H272.896V72.012ZM271.4 74.718V76.324H268.144C267.77 76.324 267.572 76.214 267.572 75.84V74.718H271.4ZM272.896 74.718H276.856V75.84C276.856 76.214 276.658 76.324 276.284 76.324H272.896V74.718ZM263.282 64.004C263.282 63.586 262.974 63.366 262.468 63.366C261.984 63.366 261.698 63.586 261.698 64.004V83.188C261.698 83.606 261.984 83.826 262.468 83.826C262.974 83.826 263.282 83.606 263.282 83.188V64.004ZM260.466 67.568C260.444 67.568 260.422 67.568 260.4 67.568C260.026 67.568 259.74 67.744 259.74 68.118C259.652 69.746 259.41 71.418 259.014 72.738C258.97 72.848 258.948 72.958 258.948 73.046C258.948 73.332 259.124 73.508 259.41 73.596C259.498 73.618 259.608 73.64 259.696 73.64C260.004 73.64 260.246 73.464 260.356 73.134C260.752 71.726 261.016 69.878 261.104 68.228C261.104 68.206 261.104 68.206 261.104 68.184C261.104 67.766 260.818 67.59 260.466 67.568ZM264.272 67.546C263.964 67.59 263.81 67.832 263.81 68.096C263.81 68.162 263.81 68.228 263.832 68.294C264.074 69.174 264.294 70.274 264.382 71.198C264.426 71.55 264.668 71.704 264.976 71.704C265.042 71.704 265.086 71.704 265.152 71.682C265.46 71.638 265.658 71.418 265.658 71.088C265.658 71.066 265.658 71.022 265.658 70.978C265.57 70.032 265.328 68.844 265.042 67.964C264.954 67.678 264.734 67.524 264.47 67.524C264.404 67.524 264.338 67.524 264.272 67.546ZM287.988 69.262C288.208 69.064 288.318 68.822 288.318 68.58C288.318 68.206 288.01 67.898 287.504 67.898C287.482 67.898 287.46 67.898 287.438 67.898C287.482 66.82 287.526 65.808 287.592 64.752C287.592 64.73 287.592 64.708 287.592 64.708C287.592 64.158 287.262 63.894 286.756 63.894C286.734 63.894 286.712 63.894 286.69 63.894C286.162 63.894 285.832 64.18 285.832 64.73C285.788 65.874 285.744 66.974 285.722 68.008C284.644 68.096 283.478 68.162 282.356 68.272C281.96 68.316 281.674 68.69 281.674 69.174C281.674 69.218 281.674 69.24 281.674 69.284C281.696 69.702 282.026 70.01 282.466 70.01C282.488 70.01 282.532 70.01 282.554 70.01C283.632 69.9 284.732 69.812 285.678 69.724C285.634 70.956 285.612 72.056 285.59 73.222C284.16 74.762 282.796 76.478 281.652 77.93C281.498 78.128 281.41 78.37 281.41 78.59C281.41 78.832 281.52 79.074 281.718 79.25C281.894 79.404 282.114 79.492 282.312 79.492C282.576 79.492 282.818 79.382 283.038 79.096C283.61 78.326 284.336 77.446 284.974 76.544C285.194 76.236 285.414 75.95 285.656 75.466C285.568 76.346 285.546 77.006 285.546 77.556C285.546 77.93 285.546 78.37 285.546 78.854C285.546 80.02 285.568 81.384 285.568 82.638C285.568 83.122 285.986 83.408 286.448 83.408C286.47 83.408 286.47 83.408 286.492 83.408C287.042 83.408 287.372 83.1 287.372 82.616C287.35 80.504 287.306 78.458 287.306 76.412C287.306 75.554 287.306 74.718 287.328 73.86C288.296 72.782 289.418 71.638 290.254 70.934C292.036 69.46 293.312 68.756 294.588 68.756C295.666 68.756 296.238 69.372 296.238 70.472C296.238 71.286 296.084 72.342 295.776 73.926C295.314 76.258 295.138 77.842 295.138 78.876C295.138 80.988 296.37 81.956 298.042 81.956C299.802 81.956 301.056 80.988 301.914 78.304C301.958 78.172 301.98 78.04 301.98 77.93C301.98 77.578 301.782 77.292 301.408 77.16C301.298 77.116 301.166 77.094 301.056 77.094C300.704 77.094 300.418 77.314 300.286 77.71C299.67 79.536 299.032 80.086 298.174 80.086C297.426 80.086 296.986 79.712 296.986 78.634C296.986 77.776 297.206 76.28 297.668 73.838C297.976 72.21 298.108 71.264 298.108 70.12C298.108 68.316 296.898 67.062 294.852 67.062C293.246 67.062 291.728 67.81 289.858 69.284C289.242 69.768 288.538 70.428 287.944 71.022C287.702 71.264 287.438 71.594 287.24 71.858C287.306 71.484 287.328 71.22 287.35 70.868C287.35 70.604 287.35 70.208 287.372 69.812L287.988 69.262ZM312.474 70.956C311.836 69.108 311.374 66.974 311 64.884C310.934 64.378 310.56 64.136 310.12 64.136C310.032 64.136 309.966 64.136 309.878 64.158C309.438 64.246 309.086 64.532 309.086 65.016C309.086 65.082 309.086 65.148 309.108 65.214C309.526 67.436 310.054 69.724 310.714 71.704C307.546 73.244 305.698 75.4 305.698 77.622C305.698 80.944 308.184 82.44 313.574 82.418C316.148 82.418 318.546 82.264 320.24 81.89C320.768 81.78 321.076 81.406 321.076 80.944C321.076 80.856 321.076 80.79 321.054 80.702C320.988 80.196 320.658 79.91 320.174 79.91C320.086 79.91 319.998 79.91 319.91 79.932C318.238 80.284 315.818 80.526 313.662 80.526C308.998 80.526 307.59 79.558 307.59 77.644C307.59 76.038 309.086 74.388 311.946 73.09C314.278 72.034 317.402 71.022 319.69 70.45C320.196 70.318 320.438 69.988 320.438 69.592C320.438 69.482 320.416 69.372 320.394 69.262C320.262 68.822 319.976 68.602 319.536 68.602C319.426 68.602 319.316 68.624 319.184 68.646C317.226 69.152 314.652 70.032 312.474 70.956ZM330.58 64.4C330.558 64.4 330.536 64.4 330.536 64.4C329.964 64.4 329.612 64.752 329.59 65.324C329.436 68.558 329.326 72.628 329.326 76.038C329.326 78.832 329.788 80.262 330.8 81.252C331.878 82.286 333.418 82.77 335.486 82.77C337.752 82.77 339.82 82.022 341.448 80.438C342.768 79.162 343.692 77.38 344.374 75.158C344.418 75.026 344.44 74.894 344.44 74.784C344.44 74.344 344.154 73.992 343.758 73.882C343.648 73.838 343.516 73.816 343.406 73.816C343.032 73.816 342.724 74.058 342.57 74.564C342.042 76.39 341.228 77.93 340.238 78.942C338.94 80.284 337.224 80.834 335.53 80.834C334.012 80.834 332.912 80.592 332.186 79.91C331.482 79.228 331.218 78.084 331.218 76.016C331.218 72.496 331.394 68.602 331.504 65.368C331.504 65.346 331.504 65.324 331.504 65.302C331.504 64.752 331.196 64.422 330.58 64.4ZM359.376 67.458C355.13 68.976 352.798 71.99 352.798 75.312C352.798 78.106 354.316 80.108 356.582 81.208C357.968 81.868 359.706 82.22 361.532 82.22C362.192 82.22 362.544 81.868 362.588 81.23C362.588 81.186 362.588 81.164 362.588 81.12C362.588 80.614 362.258 80.218 361.62 80.218C360.146 80.196 358.672 79.954 357.506 79.404C355.922 78.678 354.69 77.358 354.69 75.158C354.69 71.616 358.012 68.448 362.764 67.656C363.27 67.568 363.622 67.524 363.996 67.48C364.634 67.414 364.854 66.996 364.854 66.534C364.854 66.512 364.854 66.49 364.854 66.468C364.81 65.962 364.524 65.61 363.908 65.61C363.886 65.61 363.864 65.61 363.842 65.61C358.518 65.852 352.71 66.226 347.342 66.644C346.858 66.688 346.528 67.084 346.528 67.568C346.528 67.59 346.528 67.612 346.528 67.656C346.572 68.162 346.902 68.492 347.474 68.492C347.518 68.492 347.54 68.492 347.584 68.492C350.378 68.272 353.458 67.986 356.604 67.722C357.33 67.656 358.276 67.546 359.354 67.326L359.376 67.458ZM377.64 67.238C381.534 67.37 383.976 70.076 383.976 73.794C383.976 76.104 382.964 77.886 381.578 78.92C380.478 79.734 378.784 80.284 377.178 80.504C376.672 80.592 376.386 80.922 376.386 81.362C376.386 81.428 376.386 81.516 376.408 81.582C376.496 82.132 376.87 82.352 377.332 82.352C377.398 82.352 377.486 82.352 377.574 82.33C379.334 82.066 380.918 81.56 382.194 80.746C384.482 79.294 385.824 76.94 385.824 73.838C385.824 68.998 382.392 65.61 377.2 65.61C371.194 65.61 367.366 69.57 367.366 75.048C367.366 78.744 369.192 80.966 371.48 80.966C372.382 80.966 373.306 80.68 374.01 79.998C374.78 79.272 375.418 78.282 376.188 76.016C376.958 73.662 377.442 70.582 377.64 67.238ZM375.814 67.304C375.66 70.318 375.11 73.332 374.428 75.4C373.9 77.006 373.394 77.952 372.91 78.414C372.448 78.876 371.942 79.052 371.436 79.052C370.27 79.052 369.148 77.666 369.148 75.026C369.148 70.758 371.788 67.678 375.814 67.304ZM402.236 67.546C402.786 67.546 403.028 67.7 403.028 68.03C403.028 68.162 402.984 68.316 402.918 68.514C402.06 70.978 400.234 73.552 397.946 75.664C395.592 77.82 392.798 79.404 390.136 80.416C389.718 80.57 389.476 80.966 389.476 81.362C389.476 81.494 389.498 81.626 389.542 81.736C389.674 82.11 389.982 82.286 390.356 82.286C390.532 82.286 390.708 82.242 390.884 82.176C394.294 80.9 397.748 78.766 400.19 76.082C402.632 77.996 404.348 79.646 405.998 81.626C406.218 81.868 406.504 81.978 406.79 81.978C407.076 81.978 407.362 81.868 407.56 81.648C407.736 81.45 407.846 81.208 407.846 80.944C407.846 80.68 407.736 80.416 407.538 80.174C405.69 78.04 403.886 76.61 401.422 74.696C402.962 72.804 404.194 70.934 404.92 68.976C405.074 68.514 405.162 68.074 405.162 67.7C405.162 67.26 405.052 66.908 404.876 66.6C404.48 66.028 403.864 65.72 402.918 65.72L391.72 65.83C391.214 65.83 390.906 66.182 390.906 66.71C390.906 67.304 391.192 67.678 391.72 67.678L402.236 67.546ZM420.298 76.038L421.662 82.374C421.772 82.836 422.08 83.056 422.476 83.056C422.586 83.056 422.696 83.034 422.828 83.012C423.29 82.902 423.532 82.66 423.532 82.242C423.532 82.176 423.532 82.088 423.51 82L422.146 75.73L429.032 74.63C429.45 74.564 429.692 74.234 429.692 73.816C429.692 73.75 429.692 73.684 429.67 73.618C429.604 73.178 429.296 72.87 428.878 72.87C428.834 72.87 428.768 72.87 428.724 72.892L421.772 74.014L420.826 69.68L427.426 68.624C427.8 68.558 428.02 68.272 428.02 67.898C428.02 67.81 428.02 67.744 427.998 67.656C427.888 67.238 427.624 66.908 427.228 66.908C427.184 66.908 427.162 66.908 427.118 66.908L420.452 67.986L419.77 64.884C419.66 64.4 419.396 64.202 419 64.202C418.912 64.202 418.824 64.202 418.714 64.224C418.23 64.334 417.944 64.598 417.944 65.016C417.944 65.082 417.944 65.17 417.966 65.236L418.626 68.272L412.268 69.284C411.894 69.35 411.652 69.702 411.652 70.098C411.652 70.164 411.652 70.23 411.674 70.296C411.74 70.736 412.048 71 412.444 71C412.488 71 412.532 71 412.576 71L418.978 69.966L419.924 74.322L412.29 75.554C411.916 75.62 411.674 75.972 411.674 76.39C411.674 76.456 411.674 76.522 411.696 76.588C411.762 77.006 412.114 77.27 412.51 77.27C412.554 77.27 412.598 77.27 412.642 77.27L420.298 76.038Z" fill="#FFA5BD"/>
</svg>
