<svg width="460" height="402" viewBox="0 0 460 402" fill="none" xmlns="http://www.w3.org/2000/svg">
<rect x="4" y="4" width="452" height="394" rx="33" fill="white" stroke="#8CE3FF" stroke-width="8"/>
<path d="M74.636 287.088C74.72 287.088 74.804 287.088 74.916 287.088C77.408 287.088 78.836 288.236 78.836 290.308C78.836 292.324 77.24 293.556 74.972 293.556C72.704 293.556 71.556 292.716 70.968 291.232C70.744 290.7 70.38 290.476 69.876 290.476C69.708 290.476 69.54 290.504 69.344 290.56C68.756 290.728 68.392 291.12 68.392 291.652C68.392 291.792 68.42 291.96 68.476 292.128C69.4 294.48 71.528 295.768 74.916 295.768C79.06 295.768 81.468 293.612 81.468 290.56C81.468 287.956 80.152 286.36 77.576 285.94C79.844 285.408 80.908 283.896 80.908 281.628C80.908 278.632 78.612 276.784 75.084 276.784C71.64 276.784 69.876 278.268 69.064 280.368C69.008 280.508 68.98 280.648 68.98 280.788C68.98 281.264 69.316 281.656 69.792 281.852C69.988 281.908 70.212 281.964 70.436 281.964C70.884 281.964 71.276 281.768 71.472 281.292C72.032 279.808 73.068 278.94 75 278.94C77.072 278.94 78.332 280.088 78.332 281.88C78.332 283.784 77.044 284.96 74.888 284.96C74.804 284.96 74.748 284.96 74.664 284.96L73.292 284.904C73.264 284.904 73.264 284.904 73.236 284.904C72.648 284.904 72.368 285.464 72.368 286.024C72.368 286.612 72.648 287.116 73.292 287.116L74.636 287.088ZM75 272.948C67.58 272.948 61.588 278.94 61.588 286.36C61.588 293.78 67.58 299.772 75 299.772C82.42 299.772 88.412 293.78 88.412 286.36C88.412 278.94 82.42 272.948 75 272.948ZM75 274.208C81.72 274.208 87.152 279.64 87.152 286.36C87.152 293.08 81.72 298.512 75 298.512C68.28 298.512 62.848 293.08 62.848 286.36C62.848 279.64 68.28 274.208 75 274.208ZM113.584 277.82C114.116 277.82 114.396 277.428 114.396 276.868C114.396 276.308 114.116 275.888 113.584 275.888H97.008C97.204 275.496 97.428 275.104 97.624 274.684C97.708 274.488 97.736 274.32 97.736 274.18C97.736 273.788 97.456 273.508 96.896 273.396C96.728 273.368 96.588 273.34 96.476 273.34C96.028 273.34 95.72 273.564 95.552 273.956C94.32 276.672 92.584 279.276 90.372 281.18C90.12 281.404 89.98 281.684 89.98 281.936C89.98 282.188 90.092 282.44 90.316 282.664C90.54 282.916 90.848 283.028 91.156 283.028C91.436 283.028 91.688 282.916 91.912 282.72C93.396 281.292 94.712 279.64 95.888 277.82H113.584ZM99.08 292.408C96.868 294.34 94.32 295.908 91.66 297C91.24 297.168 91.016 297.504 91.016 297.868C91.016 298.036 91.044 298.204 91.128 298.4C91.324 298.848 91.632 299.072 92.052 299.072C92.22 299.072 92.416 299.044 92.64 298.96C95.496 297.728 98.324 295.88 100.788 293.668C102.496 294.956 104.064 296.356 105.548 297.812C105.772 298.036 106.024 298.148 106.276 298.148C106.556 298.148 106.836 298.008 107.088 297.756C107.284 297.56 107.396 297.28 107.396 296.972C107.396 296.692 107.284 296.384 107.088 296.188C105.576 294.788 103.98 293.444 102.3 292.184C103.42 291.008 104.428 289.776 105.296 288.488C105.408 288.32 105.464 288.124 105.464 287.928C105.464 287.592 105.268 287.284 104.848 287.06C104.624 286.948 104.4 286.892 104.204 286.892C103.84 286.892 103.532 287.06 103.392 287.34C102.608 288.628 101.656 289.832 100.62 290.924C99.08 289.86 97.484 288.852 95.832 287.9C95.664 287.788 95.468 287.732 95.3 287.732C94.964 287.732 94.656 287.9 94.404 288.264C94.264 288.432 94.18 288.656 94.18 288.852C94.18 289.132 94.32 289.356 94.572 289.524C96.14 290.42 97.652 291.4 99.08 292.408ZM95.776 280.06C95.3 280.06 95.02 280.508 95.02 281.04C95.02 281.544 95.3 281.964 95.776 281.964H111.372C111.876 281.964 112.156 281.516 112.156 280.984C112.156 280.452 111.876 280.06 111.372 280.06H95.776ZM92.164 284.232C91.632 284.232 91.324 284.652 91.324 285.184C91.324 285.744 91.632 286.136 92.164 286.136H108.124C108.824 286.136 109.076 286.444 109.076 287.06C109.076 295.376 110.784 297.56 112.24 298.624C112.576 298.876 112.996 299.016 113.416 299.016C114.004 299.016 114.592 298.736 114.928 298.148C115.516 297.14 115.964 295.292 116.104 293.584C116.104 293.556 116.104 293.5 116.104 293.444C116.104 292.884 115.768 292.576 115.236 292.52C115.18 292.52 115.124 292.52 115.068 292.52C114.592 292.52 114.172 292.772 114.144 293.332C114.088 294.62 113.892 295.628 113.64 296.244C113.528 296.496 113.416 296.636 113.304 296.636C113.192 296.636 113.052 296.524 112.856 296.272C111.736 294.844 111.232 292.184 111.232 286.416C111.232 285.016 110.308 284.232 108.74 284.232H92.164ZM133.772 282.048H127.444C126.94 282.048 126.688 282.44 126.688 282.972C126.688 283.532 126.94 283.952 127.444 283.952H138.084V287.088H127.78C127.248 287.088 126.968 287.48 126.968 288.012C126.968 288.6 127.248 289.02 127.78 289.02H138.084V296.048C138.084 296.804 137.888 297.028 136.684 297.028C136.04 297.028 135.34 296.944 134.668 296.804C134.584 296.776 134.528 296.776 134.444 296.776C134.024 296.776 133.688 297.028 133.576 297.588C133.548 297.7 133.548 297.784 133.548 297.868C133.548 298.4 133.856 298.736 134.332 298.82C135.088 298.988 135.984 299.072 136.852 299.072C139.176 299.072 140.1 298.428 140.1 296.44V289.02H142.816C143.32 289.02 143.6 288.6 143.6 288.012C143.6 287.48 143.32 287.088 142.816 287.088H140.1V283.952H143.04C143.516 283.952 143.796 283.532 143.796 282.972C143.796 282.412 143.516 282.048 143.04 282.048H135.844V278.52H141.808C142.312 278.52 142.564 278.1 142.564 277.54C142.564 277.008 142.312 276.616 141.808 276.616H135.844V274.096C135.844 273.564 135.452 273.256 134.808 273.256C134.192 273.256 133.772 273.564 133.772 274.096V276.616H128.592C128.088 276.616 127.808 277.008 127.808 277.54C127.808 278.1 128.088 278.52 128.592 278.52H133.772V282.048ZM124.112 278.856V274.152C124.112 273.62 123.72 273.34 123.076 273.34C122.432 273.34 122.04 273.62 122.04 274.152V278.856H118.988C118.484 278.856 118.204 279.248 118.204 279.808C118.204 280.368 118.484 280.788 118.988 280.788H122.04V286.948C121.004 287.368 119.94 287.76 118.876 288.096C118.484 288.208 118.232 288.516 118.232 288.964C118.232 289.076 118.26 289.216 118.288 289.328C118.428 289.86 118.792 290.112 119.212 290.112C119.296 290.112 119.408 290.084 119.52 290.056C120.332 289.776 121.2 289.468 122.04 289.132V296.216C122.04 296.888 121.872 297.084 121.088 297.084C120.472 297.084 119.884 297 119.464 296.888C119.408 296.86 119.352 296.86 119.268 296.86C118.932 296.86 118.624 297.056 118.484 297.616C118.456 297.728 118.456 297.84 118.456 297.952C118.456 298.4 118.68 298.736 119.128 298.848C119.744 299.016 120.556 299.1 121.424 299.1C123.104 299.1 124.112 298.456 124.112 296.608V288.264C125.092 287.816 126.044 287.368 126.856 286.92C127.192 286.724 127.388 286.444 127.388 286.08C127.388 285.94 127.36 285.772 127.276 285.632C127.136 285.24 126.828 285.016 126.492 285.016C126.38 285.016 126.268 285.044 126.156 285.1C125.54 285.408 124.84 285.744 124.112 286.08V280.788H126.128C126.688 280.788 126.94 280.368 126.94 279.808C126.94 279.248 126.688 278.856 126.128 278.856H124.112ZM130.776 290.448C130.58 290.28 130.328 290.196 130.048 290.196C129.796 290.196 129.544 290.28 129.32 290.476C129.068 290.7 128.956 290.952 128.956 291.204C128.956 291.456 129.068 291.68 129.292 291.876C130.216 292.716 131.476 294.144 132.288 295.264C132.484 295.516 132.736 295.656 133.016 295.656C133.296 295.656 133.548 295.544 133.8 295.348C134.108 295.124 134.248 294.788 134.248 294.48C134.248 294.312 134.192 294.116 134.08 293.948C133.184 292.744 131.868 291.344 130.776 290.448ZM152.812 288.18C154.156 286.024 155.36 283.588 156.396 280.9C160.372 280.816 164.544 280.452 167.484 280.032C168.1 279.948 168.464 279.556 168.464 278.912C168.464 278.856 168.464 278.772 168.464 278.716C168.38 278.156 167.96 277.82 167.428 277.82C167.344 277.82 167.26 277.82 167.176 277.848C164.404 278.212 160.652 278.548 157.18 278.66C157.516 277.68 157.852 276.56 158.16 275.468C158.188 275.328 158.216 275.188 158.216 275.048C158.216 274.544 157.908 274.18 157.32 274.096C157.236 274.068 157.124 274.068 157.04 274.068C156.48 274.068 156.032 274.32 155.92 275.02C155.584 276.308 155.248 277.54 154.856 278.716C152.532 278.716 150.516 278.66 148.808 278.576C148.78 278.576 148.724 278.576 148.696 278.576C148.136 278.576 147.744 278.996 147.716 279.612C147.716 279.64 147.716 279.668 147.716 279.696C147.716 280.312 148.052 280.76 148.668 280.816C149.816 280.9 151.272 280.928 152.756 280.928C153.204 280.928 153.652 280.928 154.1 280.928C152.952 283.84 151.636 286.556 149.928 289.356C149.732 289.664 149.648 289.972 149.648 290.224C149.648 290.672 149.9 291.008 150.236 291.204C150.432 291.316 150.628 291.372 150.88 291.372C151.272 291.372 151.72 291.176 152.28 290.756C154.688 288.824 158.244 287.508 161.38 287.508C165.104 287.508 167.036 288.74 167.036 291.036C167.036 293.976 163.872 295.516 159.364 295.516C156.984 295.516 154.492 295.152 153.064 294.704C152.896 294.648 152.756 294.62 152.616 294.62C152.084 294.62 151.72 294.928 151.552 295.46C151.496 295.6 151.468 295.74 151.468 295.88C151.468 296.356 151.776 296.804 152.336 296.972C154.016 297.504 156.592 297.812 159.42 297.812C166.476 297.812 169.444 294.788 169.444 291.036C169.444 287.788 166.868 285.464 161.66 285.464C158.3 285.464 155.164 286.668 152.952 288.236L152.812 288.18ZM192.012 279.836C194.084 282.58 195.876 286.388 196.856 289.384C197.024 289.972 197.444 290.252 197.92 290.252C198.088 290.252 198.256 290.196 198.452 290.14C198.9 290 199.152 289.608 199.152 289.132C199.152 288.964 199.124 288.796 199.068 288.628C198.116 285.436 196.1 281.404 194.028 278.66C193.776 278.324 193.412 278.156 193.02 278.156C192.824 278.156 192.6 278.212 192.404 278.324C192.04 278.52 191.816 278.884 191.816 279.276C191.816 279.472 191.872 279.668 192.012 279.836ZM181.148 280.368C179.328 280.508 177.004 280.788 175.324 281.04C174.736 281.124 174.372 281.544 174.372 282.076C174.372 282.16 174.372 282.216 174.4 282.3C174.484 282.888 174.876 283.196 175.352 283.196C175.436 283.196 175.52 283.196 175.604 283.168C177.2 282.944 179.188 282.664 180.616 282.552C180.252 283.924 179.776 285.268 179.328 286.584C178.068 290.14 176.556 293.332 174.876 296.02C174.736 296.272 174.652 296.496 174.652 296.748C174.652 297.14 174.876 297.504 175.268 297.728C175.464 297.84 175.688 297.924 175.912 297.924C176.276 297.924 176.668 297.7 176.948 297.224C178.656 294.452 180.168 291.064 181.484 287.284C182.044 285.66 182.548 284.008 182.996 282.384C183.696 282.328 184.452 282.272 185.404 282.272C188.036 282.272 188.848 283.308 188.848 286.416C188.848 288.908 188.484 291.568 188.036 293.136C187.532 294.928 186.804 295.432 185.628 295.432C184.592 295.432 183.472 295.124 182.66 294.732C182.408 294.592 182.156 294.536 181.932 294.536C181.54 294.536 181.204 294.76 181.036 295.152C180.952 295.32 180.896 295.516 180.896 295.712C180.896 296.132 181.12 296.524 181.512 296.748C182.66 297.392 184.228 297.756 185.572 297.756C187.812 297.756 189.408 296.748 190.192 294.004C190.78 291.988 191.172 289.216 191.172 286.528C191.172 282.16 189.492 280.2 185.656 280.2C184.984 280.2 184.312 280.228 183.5 280.256C183.864 278.716 184.228 277.064 184.452 275.468C184.452 275.384 184.452 275.3 184.452 275.216C184.452 274.684 184.116 274.348 183.472 274.264C183.36 274.264 183.276 274.236 183.192 274.236C182.632 274.236 182.212 274.488 182.128 275.216C181.876 276.924 181.568 278.66 181.148 280.368ZM193.748 275.104C193.748 275.356 193.86 275.58 194.028 275.776C194.812 276.644 195.652 277.792 196.24 278.828C196.408 279.164 196.632 279.304 196.968 279.304C197.5 279.304 197.892 278.94 197.892 278.52C197.892 278.156 197.78 277.96 197.696 277.792C197.164 276.868 196.156 275.524 195.288 274.656C195.064 274.432 194.868 274.348 194.56 274.348C194.112 274.348 193.748 274.74 193.748 275.104ZM196.828 273.284C196.828 273.62 196.912 273.76 197.164 274.012C197.92 274.824 198.648 275.916 199.264 276.98C199.46 277.288 199.656 277.428 199.992 277.428C200.524 277.428 200.86 276.98 200.86 276.644C200.86 276.336 200.776 276.112 200.692 275.944C200.188 275.048 199.124 273.592 198.396 272.892C198.144 272.668 197.948 272.556 197.64 272.556C197.248 272.556 196.828 272.92 196.828 273.284ZM219.032 278.716C217.296 279.472 215.728 280.2 214.496 280.844C214.132 281.04 213.964 281.376 213.964 281.712C213.964 281.936 214.02 282.132 214.16 282.3C214.356 282.552 214.636 282.692 214.944 282.692C215.196 282.692 215.504 282.608 215.812 282.44C217.94 281.292 220.264 279.92 222.336 278.856C222.868 278.576 223.092 278.212 223.092 277.736C223.092 277.568 223.064 277.4 223.036 277.232C222.896 276.728 222.392 276.364 221.804 276.364C221.748 276.364 221.692 276.364 221.664 276.364C219.928 276.476 217.352 276.588 214.58 276.588C211.948 276.588 209.456 276.504 207.692 276.364C207.664 276.364 207.608 276.364 207.552 276.364C206.908 276.364 206.516 276.7 206.432 277.344C206.432 277.428 206.432 277.484 206.432 277.54C206.432 278.128 206.768 278.548 207.384 278.632C209.064 278.8 211.36 278.856 213.628 278.856C215.392 278.856 217.352 278.744 218.976 278.576L219.032 278.716ZM204.948 291.596C204.948 293.724 206.068 295.152 208.14 296.02C209.82 296.664 212.2 297.028 215.168 297.028C218.78 297.028 221.832 296.748 224.016 296.16C224.716 295.964 225.136 295.544 225.136 294.928C225.136 294.816 225.108 294.676 225.08 294.536C224.968 293.948 224.576 293.64 223.988 293.64C223.848 293.64 223.68 293.668 223.512 293.696C221.412 294.172 218.472 294.592 215.112 294.592C212.704 294.592 210.912 294.368 209.568 293.92C208.056 293.416 207.3 292.604 207.3 291.26C207.3 290.112 208.056 288.908 209.316 287.732C209.568 287.508 209.68 287.228 209.68 286.976C209.68 286.696 209.568 286.444 209.288 286.22C209.064 286.024 208.812 285.94 208.532 285.94C208.196 285.94 207.86 286.08 207.58 286.332C205.704 288.012 204.948 289.888 204.948 291.596ZM239.64 285.772C239.864 284.26 240.144 282.608 240.452 281.068C241.124 281.096 241.824 281.096 242.496 281.096C244.12 281.096 245.744 281.012 247.34 280.872C247.956 280.816 248.208 280.368 248.208 279.752C248.208 279.696 248.208 279.668 248.208 279.64C248.18 279.08 247.788 278.688 247.2 278.688C247.172 278.688 247.116 278.688 247.088 278.688C245.324 278.856 243.644 278.912 242.048 278.912C241.656 278.912 241.264 278.912 240.9 278.912C241.124 277.736 241.376 276.532 241.628 275.384C241.656 275.3 241.656 275.188 241.656 275.104C241.656 274.628 241.404 274.18 240.732 274.096C240.62 274.068 240.536 274.068 240.452 274.068C239.892 274.068 239.528 274.376 239.416 274.992C239.192 276.224 238.912 277.54 238.688 278.8C236.672 278.688 235.048 278.492 233.676 278.296C233.62 278.296 233.536 278.296 233.48 278.296C232.976 278.296 232.612 278.632 232.528 279.164C232.5 279.248 232.5 279.332 232.5 279.416C232.5 279.92 232.808 280.368 233.312 280.424C234.88 280.676 236.532 280.872 238.296 280.984C237.988 282.496 237.708 284.12 237.484 285.66C235.804 285.52 234.236 285.324 232.864 285.072C232.78 285.044 232.696 285.044 232.64 285.044C232.136 285.044 231.744 285.38 231.66 285.968C231.632 286.052 231.632 286.108 231.632 286.192C231.632 286.724 231.968 287.144 232.5 287.256C233.928 287.536 235.552 287.732 237.148 287.872C236.952 289.356 236.868 290.476 236.868 291.512C236.868 293.864 237.568 295.404 238.912 296.468C240.312 297.588 242.356 298.092 244.932 298.092C250.28 298.092 253.78 295.544 253.78 291.008C253.78 289.16 252.968 287.116 251.596 285.464C251.316 285.128 250.98 284.96 250.644 284.96C250.42 284.96 250.196 285.016 249.972 285.156C249.664 285.38 249.468 285.716 249.468 286.052C249.468 286.276 249.552 286.528 249.72 286.724C250.84 288.04 251.428 289.58 251.428 291.12C251.428 294.06 248.964 295.852 244.848 295.852C242.888 295.852 241.376 295.488 240.396 294.676C239.556 293.976 239.108 292.912 239.108 291.596C239.108 290.504 239.192 289.412 239.416 287.984C240.34 288.012 241.236 288.04 242.104 288.04C243.784 288.04 245.352 287.984 246.668 287.844C247.396 287.76 247.704 287.34 247.704 286.752C247.704 286.696 247.704 286.64 247.704 286.584C247.648 285.996 247.34 285.632 246.696 285.632C246.64 285.632 246.556 285.632 246.5 285.632C245.212 285.772 243.756 285.828 242.16 285.828C241.348 285.828 240.508 285.8 239.64 285.772ZM272.848 282.076C269.6 282.076 265.596 282.832 262.264 283.84C261.704 284.008 261.452 284.372 261.452 284.848C261.452 284.988 261.48 285.128 261.508 285.268C261.62 285.716 262.012 286.024 262.516 286.024C262.656 286.024 262.796 285.996 262.936 285.968C266.212 284.904 270.076 284.148 272.904 284.148C276.264 284.148 277.888 285.912 277.888 288.544C277.888 290.868 276.852 292.66 274.696 293.64C272.848 294.48 269.768 294.872 267.192 294.872C266.492 294.872 266.1 295.376 266.1 296.02C266.1 296.02 266.1 296.048 266.1 296.076C266.1 296.692 266.548 297.14 267.276 297.14C267.36 297.14 267.416 297.14 267.5 297.14C270.272 297.14 273.464 296.636 275.48 295.712C278.504 294.368 280.128 291.764 280.128 288.488C280.128 284.792 277.636 282.076 272.848 282.076ZM292.812 280.984C291.496 286.108 289.592 291.428 287.548 295.656C287.436 295.908 287.38 296.16 287.38 296.356C287.38 296.804 287.604 297.168 287.996 297.364C288.22 297.476 288.416 297.532 288.64 297.532C289.06 297.532 289.452 297.28 289.704 296.776C291.86 292.212 293.764 286.36 295.164 280.816C297.432 280.648 299.644 280.396 301.436 280.088C301.912 280.004 302.248 279.584 302.248 279.08C302.248 278.996 302.248 278.884 302.22 278.8C302.136 278.184 301.744 277.904 301.212 277.904C301.128 277.904 301.016 277.904 300.932 277.932C299.448 278.212 297.6 278.436 295.724 278.604C296.004 277.4 296.228 276.252 296.424 275.16C296.452 275.076 296.452 274.992 296.452 274.936C296.452 274.432 296.088 274.012 295.444 273.956C295.36 273.928 295.276 273.928 295.192 273.928C294.604 273.928 294.24 274.208 294.128 274.824C293.904 276.14 293.624 277.456 293.316 278.772C291.496 278.884 289.62 278.912 288.108 278.912C287.408 278.912 287.072 279.332 287.044 279.948C287.044 279.976 287.044 280.004 287.044 280.032C287.044 280.704 287.38 281.096 288.052 281.124C288.248 281.124 288.416 281.124 288.612 281.124C289.9 281.124 291.384 281.04 292.812 280.984ZM306.168 281.908C303.872 281.908 301.1 282.188 299.028 282.58C298.44 282.692 298.132 283.14 298.132 283.644C298.132 283.728 298.132 283.784 298.16 283.868C298.216 284.484 298.664 284.848 299.252 284.848C299.336 284.848 299.42 284.848 299.504 284.82C301.408 284.456 304.04 284.232 306.028 284.232C306.812 284.232 307.792 284.232 308.52 284.26C308.548 284.26 308.604 284.26 308.632 284.26C309.276 284.26 309.696 283.812 309.696 283.168C309.696 282.524 309.304 282.02 308.604 281.992C307.736 281.936 306.896 281.908 306.168 281.908ZM299.252 290.672C299.448 290.476 299.532 290.252 299.532 290.028C299.532 289.72 299.364 289.384 299.084 289.216C298.888 289.104 298.692 289.02 298.468 289.02C298.216 289.02 297.964 289.132 297.712 289.356C296.648 290.336 296.004 291.848 296.004 293.108C296.004 294.872 296.648 296.076 298.244 296.888C299.448 297.504 301.212 297.784 303.452 297.784C305.832 297.784 308.128 297.588 309.78 297.196C310.508 297.028 310.816 296.58 310.816 296.02C310.816 295.936 310.816 295.852 310.788 295.74C310.704 295.208 310.34 294.872 309.752 294.872C309.612 294.872 309.5 294.872 309.36 294.9C307.764 295.236 305.44 295.46 303.284 295.46C301.548 295.46 300.26 295.32 299.448 294.928C298.608 294.508 298.188 293.92 298.188 292.968C298.188 292.128 298.524 291.4 299.252 290.672ZM333.664 281.656C334.728 281.656 335.064 281.852 335.064 282.776C335.064 282.804 335.064 282.86 335.064 282.888C334.98 286.304 334.756 289.524 334.336 291.848C333.832 294.592 333.272 295.04 331.816 295.04C330.864 295.04 329.716 294.872 328.876 294.62C328.736 294.592 328.596 294.564 328.484 294.564C328.008 294.564 327.616 294.844 327.504 295.404C327.476 295.516 327.476 295.656 327.476 295.768C327.476 296.3 327.756 296.72 328.232 296.888C329.268 297.224 330.724 297.392 332.096 297.392C334.812 297.392 336.072 296.188 336.66 292.464C337.052 289.916 337.36 286.472 337.444 282.384C337.472 280.536 336.436 279.444 334.42 279.444L326.748 279.472C326.804 278.072 326.86 276.84 326.888 275.44C326.888 274.712 326.356 274.32 325.656 274.32C324.928 274.32 324.48 274.684 324.48 275.412C324.48 276.784 324.452 277.988 324.368 279.472L317.536 279.5C316.808 279.5 316.472 279.92 316.472 280.62C316.472 281.32 316.808 281.684 317.508 281.684H324.2C323.976 284.26 323.5 286.444 322.688 288.376C321.456 291.316 319.3 293.78 316.304 295.544C315.912 295.768 315.688 296.16 315.688 296.58C315.688 296.776 315.744 297 315.884 297.196C316.136 297.588 316.472 297.784 316.864 297.784C317.088 297.784 317.34 297.728 317.592 297.588C320.896 295.628 323.332 292.856 324.788 289.496C325.768 287.2 326.356 284.652 326.58 281.656H333.664ZM365.64 287.788C366.34 287.788 366.732 287.34 366.732 286.584C366.732 285.856 366.34 285.324 365.612 285.324H344.36C343.632 285.324 343.24 285.856 343.24 286.584C343.24 287.34 343.632 287.788 344.332 287.788H365.64ZM378.828 285.184C382.916 286.36 387.732 288.292 391.428 290.168C391.624 290.28 391.82 290.308 392.016 290.308C392.52 290.308 392.94 289.972 393.136 289.496C393.22 289.272 393.248 289.076 393.248 288.88C393.248 288.376 393.024 287.956 392.492 287.704C388.264 285.688 383.056 283.812 378.828 282.692V275.496C378.828 274.712 378.296 274.404 377.596 274.404C376.84 274.404 376.364 274.712 376.364 275.468V297.224C376.364 297.98 376.84 298.288 377.596 298.288C378.296 298.288 378.828 297.98 378.828 297.224V285.184ZM386.696 276.252C386.696 276.504 386.808 276.728 386.976 276.924C387.76 277.792 388.6 278.94 389.188 279.976C389.356 280.312 389.58 280.452 389.916 280.452C390.448 280.452 390.84 280.088 390.84 279.668C390.84 279.304 390.728 279.108 390.644 278.94C390.112 278.016 389.104 276.672 388.236 275.804C388.012 275.58 387.816 275.496 387.508 275.496C387.06 275.496 386.696 275.888 386.696 276.252ZM389.776 274.432C389.776 274.768 389.86 274.908 390.112 275.16C390.868 275.972 391.596 277.064 392.212 278.128C392.408 278.436 392.604 278.576 392.94 278.576C393.472 278.576 393.808 278.128 393.808 277.792C393.808 277.484 393.724 277.26 393.64 277.092C393.136 276.196 392.072 274.74 391.344 274.04C391.092 273.816 390.896 273.704 390.588 273.704C390.196 273.704 389.776 274.068 389.776 274.432ZM138.868 326.596C140.324 325.336 141.612 323.656 142.704 321.808C145.896 321.724 149.396 321.416 152.924 320.912C153.54 320.8 153.876 320.408 153.876 319.876C153.876 319.792 153.876 319.736 153.876 319.68C153.792 319.092 153.428 318.784 152.868 318.784C152.784 318.784 152.7 318.784 152.616 318.812C149.536 319.26 146.204 319.596 143.824 319.68C144.244 318.84 144.608 318.084 144.944 317.272C145.028 317.104 145.056 316.936 145.056 316.796C145.056 316.376 144.748 316.04 144.188 315.928C144.048 315.9 143.936 315.872 143.796 315.872C143.348 315.872 142.956 316.096 142.76 316.684C142.424 317.692 141.92 318.728 141.36 319.736C140.828 319.736 140.296 319.736 139.764 319.736C137.916 319.736 136.124 319.708 134.808 319.596C134.78 319.596 134.752 319.596 134.724 319.596C134.164 319.596 133.772 320.072 133.716 320.632C133.716 320.66 133.716 320.716 133.716 320.744C133.716 321.304 134.08 321.752 134.696 321.78C135.956 321.836 137.552 321.864 138.952 321.864C139.4 321.864 139.848 321.864 140.24 321.864C138.42 324.748 136.012 327.66 133.604 329.9C133.352 330.152 133.212 330.46 133.212 330.796C133.212 331.104 133.324 331.412 133.576 331.636C133.8 331.86 134.052 331.972 134.332 331.972C134.64 331.972 134.976 331.832 135.228 331.552C138.588 328.136 141.668 326.288 144.048 326.288C145.28 326.288 146.12 326.764 146.288 328.472C141.08 330.348 138.504 332.952 138.504 335.612C138.504 338.832 141.472 340.288 146.736 340.288C149.732 340.288 152.448 340.064 154.548 339.7C155.192 339.616 155.584 339.14 155.584 338.552C155.584 338.468 155.584 338.384 155.556 338.272C155.444 337.684 155.08 337.404 154.52 337.404C154.38 337.404 154.268 337.404 154.128 337.432C152.056 337.796 149.256 338.048 146.568 338.048C142.62 338.048 140.8 337.18 140.8 335.528C140.8 333.792 142.536 332.112 146.456 330.6C146.456 331.02 146.456 331.496 146.456 331.944C146.456 332.84 146.456 333.764 146.456 334.52C146.456 335.22 146.848 335.584 147.492 335.584C148.108 335.584 148.556 335.22 148.584 334.52C148.612 333.988 148.612 333.456 148.612 332.924C148.612 331.916 148.584 330.936 148.528 329.928C151.216 328.948 153.848 328.248 155.892 327.716C156.508 327.576 156.788 327.184 156.788 326.68C156.788 326.54 156.76 326.4 156.732 326.232C156.564 325.728 156.2 325.476 155.696 325.476C155.556 325.476 155.388 325.504 155.22 325.532C153.288 326.092 150.852 326.848 148.332 327.744C147.968 325.336 146.484 324.468 144.468 324.468C142.732 324.468 141.164 325.224 138.98 326.764L138.868 326.596ZM172.58 320.492C170.62 319.232 168.24 318.028 166.336 317.272C166.112 317.188 165.916 317.16 165.72 317.16C165.3 317.16 164.936 317.384 164.684 317.804C164.544 318.028 164.488 318.224 164.488 318.448C164.488 318.84 164.712 319.176 165.132 319.344C167.064 320.128 169.388 321.388 171.264 322.592C171.46 322.732 171.684 322.788 171.908 322.788C172.356 322.788 172.776 322.564 173 322.144C173.112 321.948 173.168 321.724 173.168 321.5C173.168 321.136 172.972 320.772 172.58 320.492ZM164.012 324.076C163.788 323.992 163.62 323.964 163.424 323.964C163.032 323.964 162.696 324.16 162.472 324.608C162.332 324.832 162.276 325.056 162.276 325.28C162.276 325.672 162.5 325.98 162.892 326.148C164.992 327.044 167.54 328.444 169.164 329.564C169.416 329.732 169.696 329.816 169.948 329.816C170.368 329.816 170.76 329.592 170.984 329.228C171.124 329.004 171.208 328.724 171.208 328.472C171.208 328.108 171.04 327.744 170.62 327.492C168.688 326.288 166.084 324.888 164.012 324.076ZM183.612 322.256C183.444 322.228 183.304 322.2 183.164 322.2C182.604 322.2 182.24 322.564 182.1 323.152C180.952 327.436 178.6 330.796 175.436 333.204C172.496 335.444 167.876 336.844 163.788 337.124C163.032 337.18 162.668 337.6 162.668 338.216C162.668 338.272 162.668 338.328 162.668 338.412C162.752 339.168 163.256 339.56 163.956 339.56C164.012 339.56 164.068 339.56 164.096 339.56C168.548 339.252 173.504 337.684 176.78 335.248C180.392 332.56 183.108 328.556 184.424 323.824C184.452 323.656 184.48 323.516 184.48 323.376C184.48 322.816 184.144 322.424 183.612 322.256ZM201.868 336.648V325.728H208.196C208.784 325.728 209.148 325.252 209.148 324.692C209.148 324.132 208.812 323.6 208.196 323.6H193.58C193.02 323.6 192.656 324.132 192.656 324.692C192.656 325.252 193.02 325.728 193.58 325.728H199.6V336.648H192.236C191.648 336.648 191.312 337.18 191.312 337.74C191.312 338.3 191.648 338.804 192.236 338.804H209.652C210.24 338.804 210.604 338.3 210.604 337.74C210.604 337.18 210.268 336.648 209.652 336.648H201.868ZM218.64 317.944C217.996 317.944 217.632 318.392 217.632 319.12C217.632 319.848 217.968 320.268 218.64 320.268H237.064C237.708 320.268 237.988 320.548 237.988 320.94C237.988 321.136 237.904 321.388 237.792 321.64C236.504 324.02 234.152 326.008 231.688 327.072C231.268 327.268 230.988 327.66 230.988 328.136C230.988 328.332 231.044 328.556 231.156 328.752C231.352 329.116 231.716 329.284 232.108 329.284C232.304 329.284 232.5 329.228 232.724 329.144C235.552 328.052 238.632 325.364 240.06 322.34C240.34 321.724 240.48 321.108 240.48 320.576C240.48 319.96 240.312 319.428 240.004 319.008C239.5 318.364 238.772 317.944 237.512 317.944H218.64ZM228.244 322.788C227.488 322.788 226.956 323.18 226.956 323.992C226.956 328.332 226.48 330.684 225.528 332.728C224.408 335.136 222.196 336.928 219.536 337.824C218.976 338.02 218.724 338.384 218.724 338.832C218.724 339 218.752 339.196 218.836 339.392C219.06 339.896 219.396 340.12 219.844 340.12C220.04 340.12 220.236 340.092 220.432 340.008C223.484 339 226.172 336.956 227.712 333.848C228.832 331.608 229.448 328.836 229.476 323.936C229.476 323.18 229 322.788 228.244 322.788ZM250.728 316.6C250.7 316.6 250.672 316.6 250.672 316.6C249.944 316.6 249.496 317.048 249.468 317.776C249.272 321.892 249.132 327.072 249.132 331.412C249.132 334.968 249.72 336.788 251.008 338.048C252.38 339.364 254.34 339.98 256.972 339.98C259.856 339.98 262.488 339.028 264.56 337.012C266.24 335.388 267.416 333.12 268.284 330.292C268.34 330.124 268.368 329.956 268.368 329.816C268.368 329.256 268.004 328.808 267.5 328.668C267.36 328.612 267.192 328.584 267.052 328.584C266.576 328.584 266.184 328.892 265.988 329.536C265.316 331.86 264.28 333.82 263.02 335.108C261.368 336.816 259.184 337.516 257.028 337.516C255.096 337.516 253.696 337.208 252.772 336.34C251.876 335.472 251.54 334.016 251.54 331.384C251.54 326.904 251.764 321.948 251.904 317.832C251.904 317.804 251.904 317.776 251.904 317.748C251.904 317.048 251.512 316.628 250.728 316.6ZM287.072 331.412C286.988 330.684 286.904 329.9 286.792 329.116C286.484 326.68 286.344 325.308 286.316 324.244C289.312 324.188 292.448 323.88 294.548 323.488C295.276 323.348 295.556 322.9 295.556 322.368C295.556 322.256 295.556 322.172 295.528 322.06C295.444 321.472 295.024 321.136 294.464 321.136C294.352 321.136 294.268 321.136 294.156 321.164C291.972 321.584 289.088 321.892 286.204 321.976C286.148 320.548 286.148 318.98 286.148 317.188C286.148 316.404 285.756 316.04 285 316.04C284.3 316.04 283.824 316.348 283.824 317.188C283.824 319.988 283.908 322.256 284.048 324.356C284.16 325.952 284.328 327.632 284.552 329.34C284.608 329.816 284.664 330.32 284.72 330.796C283.432 330.544 282.2 330.432 280.996 330.432C276.74 330.432 274.052 332.448 274.052 335.36C274.052 338.244 276.936 340.092 280.492 340.092C284.664 340.092 287.352 338.636 287.38 335.528C287.38 335.052 287.38 334.576 287.352 334.044C289.256 334.856 291.552 336.452 293.4 338.272C293.736 338.58 294.1 338.72 294.436 338.72C294.772 338.72 295.108 338.552 295.332 338.3C295.556 338.02 295.668 337.712 295.668 337.404C295.668 337.012 295.5 336.62 295.136 336.34C293.008 334.408 290.432 332.756 288.08 331.804C287.744 331.664 287.408 331.524 287.072 331.412ZM284.972 333.148C285.028 333.764 285.056 334.352 285.056 334.912C285.056 337.04 283.124 337.88 280.408 337.88C277.916 337.88 276.376 336.76 276.376 335.332C276.376 333.68 278 332.588 280.884 332.588C282.284 332.588 283.656 332.784 284.972 333.148ZM306.672 318.812C309.976 319.568 315.24 320.212 318.936 320.296C318.964 320.296 318.992 320.296 319.02 320.296C319.748 320.296 320.196 319.904 320.224 319.232C320.224 319.204 320.224 319.176 320.224 319.176C320.224 318.476 319.804 317.972 319.076 317.944C315.38 317.776 310.648 317.244 307.232 316.46C307.148 316.46 307.064 316.46 307.008 316.46C306.42 316.46 305.972 316.768 305.832 317.384C305.804 317.524 305.776 317.636 305.776 317.748C305.776 318.28 306.084 318.672 306.672 318.812ZM322.408 329.396C322.408 325.868 319.804 323.348 314.456 323.348C311.236 323.348 306.84 324.132 303.676 325.112C303.144 325.252 302.808 325.7 302.808 326.26C302.808 326.4 302.836 326.54 302.864 326.68C303.06 327.24 303.48 327.52 303.956 327.52C304.096 327.52 304.236 327.492 304.376 327.464C307.54 326.484 311.572 325.616 314.512 325.616C318.488 325.616 319.972 327.212 319.972 329.508C319.972 331.944 318.712 334.072 315.996 335.612C314.064 336.704 311.04 337.544 308.52 337.88C307.876 337.992 307.512 338.44 307.512 339.028C307.512 339.112 307.512 339.224 307.54 339.308C307.68 339.924 308.072 340.316 308.716 340.316C308.8 340.316 308.884 340.316 308.968 340.288C311.656 339.952 314.792 339.028 316.976 337.824C320.616 335.808 322.408 332.952 322.408 329.396Z" fill="#FFA5BD"/>
<path d="M243.27 207.597C241.659 208.908 240.04 209.938 238.411 210.716C237.305 210.834 236.191 210.921 235.072 210.987V198.004C232.395 195.813 229.702 193.537 227 191.199V210.989C225.881 210.921 224.767 210.834 223.664 210.716C222.034 209.938 220.413 208.908 218.803 207.597C213.553 203.324 208.64 196.112 204.872 186.83H222.029C219.105 184.215 216.178 181.522 213.251 178.758H202.05C200.713 174.31 199.636 169.512 198.816 164.481C195.629 161.183 192.534 157.878 189.528 154.578C190.203 163.17 191.587 171.32 193.65 178.758H173.033C167.26 169.428 163.682 158.614 163.004 146.995H182.796C180.458 144.294 178.182 141.601 175.993 138.924H163.004C163.282 134.163 164.073 129.549 165.274 125.106C162.534 121.367 159.964 117.683 157.594 114.076C154.07 123.025 152.113 132.762 152.113 142.962C152.116 186.551 187.444 221.877 231.034 221.88C241.231 221.88 250.968 219.923 259.914 216.402C255.109 213.241 250.164 209.728 245.135 205.921C244.517 206.517 243.898 207.085 243.27 207.597ZM182.839 191.158C181.456 189.776 180.143 188.325 178.884 186.83H196.27C197.565 190.361 198.989 193.725 200.584 196.814C202.462 200.446 204.544 203.748 206.816 206.675C197.741 203.225 189.591 197.905 182.839 191.158Z" fill="#FFA5BD"/>
<path d="M173.658 88.8028C175.382 91.8899 177.342 95.1062 179.499 98.419C180.576 97.1684 181.669 95.9334 182.838 94.7643C189.604 88.0038 197.773 82.6727 206.869 79.2229C202.641 84.6513 199.086 91.3853 196.257 99.0892H179.927C181.656 101.722 183.519 104.418 185.492 107.16H193.671C192.928 109.838 192.289 112.623 191.714 115.471C193.876 118.251 196.139 121.062 198.493 123.895C199.342 117.962 200.534 112.326 202.09 107.16H227.001V138.923H211.667C214.161 141.622 216.714 144.315 219.329 146.995H227.001V154.667C229.681 157.279 232.374 159.838 235.072 162.329V146.995H264.894C264.563 158.582 262.805 169.397 259.986 178.758H254.077C257.955 181.882 261.783 184.822 265.527 187.552C265.619 187.305 265.727 187.079 265.819 186.829H283.189C281.928 188.324 280.617 189.775 279.234 191.157C278.068 192.323 276.843 193.432 275.593 194.509C278.901 196.664 282.111 198.619 285.191 200.342C300.433 185.955 309.96 165.576 309.96 142.962C309.957 99.373 274.626 64.0418 231.034 64.0391C208.419 64.0418 188.046 73.5662 173.658 88.8028ZM289.04 178.759H268.401C271.065 169.155 272.679 158.409 272.991 146.996H299.069C298.391 158.614 294.812 169.428 289.04 178.759ZM289.034 107.16C294.81 116.491 298.388 127.308 299.068 138.924H272.965C272.649 127.521 271.084 116.758 268.419 107.16H289.034ZM279.231 94.7643C280.613 96.1465 281.924 97.5942 283.183 99.0892H265.803C264.507 95.5606 263.08 92.1975 261.488 89.1076C259.61 85.4791 257.529 82.1765 255.259 79.2467C264.331 82.6965 272.479 88.0198 279.231 94.7643ZM235.072 74.9324C236.194 75.0007 237.308 75.0874 238.414 75.2056C240.043 75.9808 241.659 77.0109 243.27 78.3217C248.519 82.5915 253.43 89.8064 257.198 99.0888H235.072V74.9324ZM235.072 107.16H260.019C262.839 116.519 264.586 127.347 264.92 138.924H235.072V107.16ZM218.803 78.3217C220.413 77.0106 222.029 75.9808 223.658 75.2029C224.764 75.0847 225.879 74.998 227 74.9297V99.0892H204.916C205.807 96.8897 206.743 94.7671 207.754 92.8123C210.997 86.5272 214.812 81.5825 218.803 78.3217Z" fill="#FFA5BD"/>
<path d="M317.96 197.179C316.326 192.772 314.056 188.009 311.276 182.959C309.376 186.748 307.222 190.392 304.825 193.855C306.042 196.37 307.062 198.734 307.868 200.915C309.51 205.316 310.251 208.986 310.238 211.441C310.238 212.605 310.083 213.479 309.88 214.068C309.676 214.659 309.46 214.967 309.213 215.222C308.963 215.463 308.659 215.676 308.065 215.884C307.479 216.083 306.604 216.238 305.44 216.238C303.123 216.249 299.718 215.595 295.642 214.136C291.559 212.689 286.796 210.473 281.57 207.568C263.653 197.61 240.382 179.528 217.437 156.566C194.475 133.621 176.393 110.35 166.433 92.4304C163.527 87.2043 161.315 82.4434 159.864 78.3602C158.409 74.2851 157.752 70.8802 157.762 68.5625C157.762 67.3958 157.92 66.521 158.12 65.9375C158.325 65.3438 158.538 65.0417 158.782 64.7895C159.039 64.5401 159.344 64.3243 159.938 64.1197C160.524 63.9199 161.398 63.7622 162.568 63.7622C165.019 63.7493 168.69 64.4901 173.083 66.1271C175.272 66.9363 177.647 67.9609 180.175 69.18C183.638 66.7837 187.274 64.6295 191.066 62.7297C186.005 59.9416 181.231 57.6691 176.817 56.0348C171.651 54.1351 166.961 53.0156 162.568 53C160.479 53.0031 158.44 53.2658 156.485 53.9254C154.536 54.582 152.675 55.6698 151.17 57.1831C149.662 58.6832 148.577 60.5411 147.925 62.4881C147.265 64.4402 147.003 66.4765 147 68.5628C147.013 72.7143 148.014 77.1255 149.725 81.9628C151.443 86.7947 153.905 92.0392 157.029 97.6619C167.733 116.871 186.293 140.631 209.827 164.175C233.372 187.71 257.132 206.27 276.338 216.974C281.964 220.098 287.208 222.56 292.04 224.279C296.877 225.987 301.289 226.987 305.44 227.001C307.526 227.001 309.563 226.735 311.515 226.078C313.459 225.424 315.317 224.342 316.82 222.834C318.333 221.325 319.421 219.465 320.075 217.521C320.735 215.566 320.998 213.527 321 211.441C320.984 207.042 319.865 202.35 317.96 197.179Z" fill="#FFA5BD"/>
<path d="M112.951 57.0505C106.219 50.3165 95.3035 50.3165 88.5715 57.0505C86.239 59.3809 84.7159 62.2156 83.9978 65.2039C83.2839 62.2156 81.7607 59.3809 79.4283 57.0505C72.6963 50.3165 61.7809 50.3165 55.049 57.0505C48.317 63.7824 48.317 74.6978 55.049 81.4276L83.9978 110.378L112.951 81.4276C119.683 74.6978 119.683 63.7824 112.951 57.0505Z" fill="#FFA5BD"/>
<path d="M405.951 176.05C399.219 169.317 388.303 169.317 381.572 176.05C379.239 178.381 377.716 181.216 376.998 184.204C376.284 181.216 374.761 178.381 372.428 176.05C365.696 169.317 354.781 169.317 348.049 176.05C341.317 182.782 341.317 193.698 348.049 200.428L376.998 229.378L405.951 200.428C412.683 193.698 412.683 182.782 405.951 176.05Z" fill="#FFA5BD"/>
</svg>
