<svg width="64" height="64" viewBox="0 0 64 64" fill="none" xmlns="http://www.w3.org/2000/svg">
<g clip-path="url(#clip0)">
<path d="M61.4558 26.8953L52.6848 34.536L52.6486 35.3051C52.6213 35.7387 52.4773 36.3532 52.2328 36.9953C52.0977 37.3299 51.9431 37.6646 51.7806 37.9992L41.8343 29.4181C41.4458 29.0835 40.93 28.9297 40.4241 28.9933C40.3332 29.0111 33.0369 29.9249 25.767 32.9899C25.043 33.2971 24.5009 33.3882 24.1388 33.3882C23.8413 33.3882 23.669 33.3334 23.5331 33.2706C23.3344 33.1709 23.1984 33.0446 23.0633 32.7824C22.9273 32.529 22.8372 32.158 22.8372 31.7599C22.8372 31.2001 23.0359 30.6296 23.262 30.3497C23.5428 29.9878 23.8864 29.4906 24.356 28.8486C25.0616 27.8993 26.0196 26.6693 27.1596 25.4667C28.2987 24.264 29.6188 23.1072 31.0024 22.2932C32.8735 21.1903 34.4744 20.9192 35.9843 20.9094C36.9159 20.9094 37.8104 21.0278 38.6881 21.1541C39.5561 21.2804 40.3967 21.4437 41.3098 21.4437C41.8891 21.4437 42.5036 21.3802 43.1455 21.118H43.1543C44.1495 20.6933 45.1252 20.0689 46.1116 19.3635C47.5766 18.2969 49.0229 17.0403 50.1258 16.0363C50.343 15.8465 50.5417 15.6566 50.7227 15.4844L48.2548 12.8539C47.7117 13.3599 47.0061 13.9929 46.2468 14.635C45.4696 15.3043 44.6281 15.9824 43.8325 16.5432C43.0369 17.1127 42.2774 17.5649 41.7619 17.7723C41.7345 17.7909 41.5905 17.8271 41.3098 17.8271C40.8762 17.836 40.1345 17.7185 39.2214 17.5824C38.3085 17.4473 37.2134 17.2928 35.9843 17.2928C34.9177 17.284 33.7326 17.4199 32.4849 17.7634C31.246 17.4199 30.0619 17.2928 28.9855 17.2928C27.7555 17.2928 26.671 17.4472 25.7572 17.5824C24.8442 17.7185 24.1025 17.8358 23.6601 17.8271C23.389 17.8271 23.2442 17.7909 23.2167 17.7723C22.6649 17.5551 21.8419 17.0492 20.9925 16.4346C19.6997 15.503 18.3248 14.3092 17.2856 13.3599C17.0047 13.1064 16.7513 12.8717 16.5253 12.6641L14.0484 15.2946C14.5818 15.7926 15.2776 16.4346 16.0555 17.1127C16.9235 17.8535 17.8913 18.6492 18.8679 19.3635C19.8533 20.069 20.83 20.6934 21.8242 21.118C22.4663 21.3802 23.0904 21.4437 23.66 21.4437C24.5729 21.4437 25.4233 21.2901 26.2913 21.1541C26.3541 21.1453 26.4087 21.1453 26.4627 21.1355C25.26 22.1669 24.211 23.2884 23.3252 24.3276C22.5748 25.2045 21.9504 26.0274 21.4445 26.7056C20.9561 27.3749 20.5764 27.9171 20.4043 28.1343C19.5813 29.2018 19.229 30.4857 19.2201 31.7599C19.229 32.9537 19.546 34.2014 20.3681 35.2505C20.7751 35.7661 21.3182 36.2269 21.9689 36.5344C22.6198 36.8416 23.3703 37.0051 24.1386 37.0051C25.1064 37.0051 26.1103 36.7693 27.1769 36.3173C30.5227 34.9071 33.977 33.9578 36.5713 33.3786C37.8738 33.0899 38.959 32.8903 39.7183 32.764C39.8631 32.7366 39.9806 32.719 40.098 32.7005L51.4643 42.4931V42.5028H51.473C51.473 42.5389 51.4545 42.6379 51.3733 42.7915C51.2381 43.0449 50.9397 43.3796 50.56 43.6145C50.1803 43.8492 49.737 43.9853 49.3211 43.9853C49.1675 43.9853 49.0227 44.0127 48.8778 44.0392C48.6244 43.9853 48.3622 43.9129 48.1096 43.8043C47.3228 43.4971 46.5899 43.0087 46.0751 42.5839C45.8129 42.3755 45.6044 42.1857 45.4694 42.0506L45.3158 41.9057L45.2796 41.8696V41.8608C45.0076 41.5711 44.6376 41.4263 44.2757 41.4263C43.9498 41.4263 43.6249 41.5438 43.3626 41.7787C42.8108 42.2856 42.7746 43.1446 43.2815 43.6958C43.3264 43.7506 44.0046 44.4913 45.1251 45.2605C45.6771 45.6402 46.3553 46.0288 47.1244 46.336C47.2956 46.3995 47.4854 46.4719 47.6752 46.5258C47.7301 46.6433 47.7928 46.7616 47.8739 46.8693H47.865L47.8739 46.8789C47.9012 46.9328 47.956 47.1501 47.9464 47.4123C47.9561 47.9094 47.7751 48.5602 47.5127 48.9222C47.3856 49.112 47.2594 49.2207 47.133 49.293C46.9971 49.3654 46.8708 49.4105 46.6263 49.4193H46.5362C46.4912 49.4104 46.4363 49.4193 46.3913 49.4282C46.3824 49.4282 46.3824 49.4282 46.3824 49.4282C45.2072 49.4282 44.1132 48.9222 43.3079 48.3703C42.9009 48.0992 42.5759 47.8194 42.3586 47.6197C42.2499 47.5209 42.1687 47.4396 42.1237 47.3848L42.069 47.331L42.0602 47.3213V47.3124C41.7979 47.0051 41.4183 46.8515 41.0385 46.8515C40.7224 46.8515 40.4054 46.9601 40.152 47.1863C39.5825 47.6745 39.5199 48.5337 40.017 49.0944C40.062 49.1572 40.6951 49.8716 41.7803 50.6132C42.4946 51.1015 43.435 51.6075 44.5468 51.8971C44.529 51.9246 44.5194 51.9606 44.5105 51.9872C44.3658 52.3131 44.1671 52.6389 43.6063 52.9639C43.2355 53.1812 42.9645 53.2898 42.7746 53.3534C42.5848 53.4073 42.4849 53.4161 42.3499 53.4161C42.1688 53.4161 41.9066 53.3799 41.473 53.2898C41.3908 53.2712 41.3096 53.2712 41.2285 53.2623C41.201 53.2534 41.1746 53.2447 41.1383 53.2261C40.695 53.0089 40.1431 52.6292 39.7361 52.3042C39.5374 52.1506 39.3661 51.997 39.2477 51.8971L39.1127 51.771L39.0853 51.7435H39.0765C38.5343 51.219 37.6752 51.2464 37.1594 51.7797C36.6436 52.322 36.6622 53.181 37.2044 53.6968C37.2317 53.7233 37.8012 54.2751 38.6057 54.8447C38.7416 54.9533 38.9041 55.0531 39.0578 55.1518C38.8414 55.5051 38.6057 55.7488 38.3797 55.9024C38.0183 56.1559 37.63 56.2734 37.1231 56.2734C36.6711 56.2734 36.1377 56.1648 35.6043 55.9387C35.4232 55.8663 35.2511 55.7577 35.0797 55.6676C35.1786 55.2791 35.2334 54.8898 35.2334 54.4924C35.2334 53.6783 35.0162 52.8464 34.5553 52.1047C33.7773 50.857 32.4758 50.1162 31.1097 49.9987C31.1097 49.9528 31.1194 49.899 31.1194 49.8539C31.1194 48.9585 30.8747 48.0454 30.3777 47.2314C29.4462 45.7302 27.8275 44.8896 26.1825 44.8896H26.1551C26.0827 44.8896 26.0191 44.8985 25.9564 44.8985C25.8752 44.1929 25.6491 43.4972 25.2508 42.864C24.4826 41.6251 23.2527 40.8481 21.9236 40.6035C21.9139 39.7267 21.6702 38.8313 21.1819 38.0356C20.2415 36.5257 18.6141 35.694 16.9594 35.694C16.064 35.694 15.1509 35.9377 14.3368 36.4445L12.6008 37.5201C12.5558 37.43 12.502 37.3303 12.4657 37.2402C12.1576 36.5171 11.9678 35.793 11.9501 35.3055L11.9138 34.5364L3.14274 26.8957L0.665527 29.5267L8.4334 36.2994C8.56846 37.1134 8.82191 37.8906 9.12045 38.6137C9.31026 39.0844 9.52749 39.5276 9.74386 39.9436C9.27405 40.7206 9.01183 41.616 9.01183 42.5114C9.01183 43.4067 9.25551 44.3198 9.7624 45.1331C10.5306 46.3632 11.7607 47.1412 13.0897 47.3848C13.0985 48.2617 13.3431 49.1571 13.8313 49.9526C14.7718 51.4627 16.3991 52.3042 18.054 52.3042C18.1175 52.3042 18.1803 52.2945 18.2438 52.2856C18.3339 52.9912 18.5599 53.6869 18.9581 54.329C19.8985 55.8399 21.5259 56.6716 23.1806 56.6716C23.3431 56.6716 23.5065 56.6531 23.669 56.6354C23.7503 57.2676 23.9586 57.9008 24.3109 58.4703C25.1701 59.8452 26.6526 60.6134 28.1539 60.6045C28.9679 60.6045 29.7998 60.3873 30.5406 59.9264L32.8012 58.5251C33.2446 58.8147 33.7054 59.0672 34.2035 59.2667C35.1076 59.6552 36.102 59.8902 37.1236 59.8902C38.245 59.8989 39.4389 59.5916 40.4605 58.8685C41.1201 58.4076 41.6808 57.7744 42.1418 57.0238C42.2142 57.0238 42.2777 57.0327 42.3502 57.0327C42.8199 57.0327 43.3268 56.9701 43.8416 56.8067C44.3484 56.6531 44.8544 56.4182 45.3975 56.1109C46.6903 55.378 47.4681 54.3024 47.8479 53.3894C47.9291 53.1809 47.9927 52.9911 48.0466 52.8101C48.3538 52.7112 48.6612 52.5928 48.9332 52.4305C49.9274 51.8609 50.5782 50.9841 50.9853 50.1064C51.3835 49.2207 51.5636 48.2979 51.5636 47.4123C51.5636 47.3213 51.5548 47.24 51.546 47.1499C52.2056 46.8877 52.7936 46.5081 53.2908 46.0736C53.8064 45.6215 54.24 45.0969 54.557 44.501C54.8731 43.9129 55.0903 43.226 55.0903 42.4843C55.0903 41.9959 54.9906 41.49 54.7742 41.0105C54.7107 40.8569 54.6109 40.7208 54.512 40.576C54.9005 39.8891 55.289 39.1208 55.606 38.289C55.8498 37.6558 56.0484 36.9954 56.1667 36.3084L63.9335 29.5267L61.4558 26.8953ZM14.7806 43.6054L14.6993 43.6593C14.4733 43.7954 14.2287 43.8589 13.985 43.8589C13.5329 43.8589 13.0897 43.6416 12.8362 43.2257C12.6922 42.9996 12.6287 42.755 12.6287 42.5112C12.6375 42.0591 12.8547 41.6247 13.2706 41.3624L16.2455 39.509C16.4803 39.3739 16.7152 39.3103 16.9599 39.3103C17.4208 39.3103 17.8553 39.5363 18.1077 39.9434L19.6451 38.9933L18.1077 39.9523C18.2525 40.1783 18.3162 40.4133 18.3162 40.6578C18.3073 40.9739 18.1988 41.2813 17.9904 41.5259L15.4314 43.1171C15.1964 43.2619 14.9889 43.4244 14.7806 43.6054ZM18.7682 48.4788C18.5421 48.6236 18.2975 48.6871 18.0538 48.6871C17.6017 48.6871 17.1585 48.461 16.905 48.0452C16.761 47.8192 16.6975 47.5833 16.6975 47.3396C16.7063 47.0235 16.8149 46.7153 17.0233 46.4715L19.5814 44.8804C19.8172 44.7356 20.0248 44.5635 20.2242 44.3921L20.3143 44.3373C20.5491 44.1925 20.7841 44.1299 21.0287 44.1299C21.4896 44.1386 21.9241 44.3559 22.1765 44.7717C22.3213 44.9978 22.385 45.2326 22.385 45.4773C22.3761 45.9382 22.159 46.3718 21.743 46.634L18.7682 48.4788ZM26.8698 51.0016L23.8861 52.8551C23.66 52.991 23.4242 53.0546 23.1805 53.0546C22.7196 53.0546 22.2851 52.8286 22.0327 52.4214C21.8879 52.1865 21.8242 51.9509 21.8242 51.7072C21.8242 51.2463 22.0503 50.8118 22.4663 50.5584L25.4411 48.7049C25.6671 48.5698 25.9108 48.5062 26.1555 48.5062C26.6075 48.5062 27.0411 48.7235 27.3034 49.1394C27.4394 49.3655 27.503 49.6092 27.503 49.8539C27.503 50.3058 27.2858 50.7394 26.8698 51.0016ZM31.1922 55.2603L28.6333 56.8514C28.4796 56.9513 28.326 56.9874 28.1539 56.9874C27.8553 56.9874 27.5569 56.8427 27.3856 56.5627C27.2947 56.4091 27.2497 56.2553 27.2497 56.0832C27.2497 55.776 27.4033 55.4864 27.6744 55.3239V55.315L30.2334 53.7229C30.3968 53.6327 30.5505 53.5877 30.7129 53.5877C31.0201 53.5966 31.3097 53.7414 31.4811 54.0213C31.5808 54.175 31.617 54.3286 31.617 54.4919C31.6169 54.7994 31.4721 55.0891 31.1922 55.2603Z" fill="#FFD348"/>
</g>
<defs>
<clipPath id="clip0">
<rect x="0.665527" width="63.268" height="63.268" fill="white"/>
</clipPath>
</defs>
</svg>
