<svg width="46" height="55" viewBox="0 0 46 55" fill="none" xmlns="http://www.w3.org/2000/svg">
<path d="M22.4575 11.7849C19.8665 9.19295 18.0931 4.6668 17.213 0.548584C16.3316 4.66764 14.5601 9.19473 11.9682 11.7866C9.37719 14.3768 4.84967 16.1502 0.7323 17.0321C4.85136 17.9121 9.37803 19.6845 11.969 22.2765C14.56 24.8675 16.3334 29.3946 17.2148 33.5128C18.0949 29.3937 19.8678 24.8667 22.4584 22.2747C25.0493 19.6838 29.5768 17.9112 33.6942 17.0293C29.5761 16.1492 25.0494 14.3759 22.4575 11.7849Z" fill="#F2FD79"/>
<path d="M39.2873 32.5377C37.7407 30.9904 36.6795 28.2849 36.1538 25.825C35.6271 28.2849 34.5694 30.9903 33.0212 32.5385C31.4729 34.0851 28.768 35.1454 26.3084 35.6721C28.7688 36.1987 31.4729 37.2573 33.0212 38.8055C34.5694 40.353 35.6289 43.0583 36.1555 45.5183C36.6812 43.0573 37.7407 40.353 39.288 38.8047C40.8355 37.2573 43.5408 36.1977 46 35.6703C43.5409 35.1445 40.8356 34.0851 39.2873 32.5377Z" fill="#F2FD79"/>
<path d="M11.8411 37.8315C11.3989 39.8967 10.5109 42.1687 9.21132 43.4682C7.91195 44.7667 5.64094 45.6566 3.57605 46.0988C5.64094 46.5419 7.91195 47.429 9.21132 48.7294C10.5109 50.0287 11.4007 52.2989 11.8429 54.3652C12.2846 52.2989 13.173 50.0288 14.473 48.7285C15.7716 47.4292 18.043 46.5401 20.1075 46.0971C18.0431 45.6556 15.7716 44.7668 14.4722 43.4673C13.173 42.1688 12.2828 39.8969 11.8411 37.8315Z" fill="#F2FD79"/>
</svg>
